<svg width="68" height="32" viewBox="0 0 68 32" fill="none" xmlns="http://www.w3.org/2000/svg">
<path d="M65.2737 3.09756C65.5684 1.54276 64.0375 -0.129457 62.3399 0.627343C62.2859 0.642713 62.2168 0.707704 62.2831 0.758714C63.5842 1.53787 64.1585 3.34496 63.5835 4.85646C63.5739 4.89836 63.5882 4.91796 63.6101 4.92706C63.6197 4.95006 63.6375 4.96546 63.6717 4.95426C65.0329 4.31626 66.6622 4.95216 67.3644 6.39656C67.4143 6.47206 67.4663 6.39166 67.4827 6.33296C68.1589 4.45256 66.6725 2.77056 65.2737 3.09756Z" fill="#1F2023"/>
<path d="M47.38 3.09756C47.6747 1.54276 46.1439 -0.129457 44.4462 0.627343C44.3922 0.642713 44.3232 0.707704 44.3895 0.758714C45.6906 1.53787 46.2649 3.34496 45.6899 4.85646C45.6803 4.89836 45.6947 4.91796 45.7166 4.92706C45.7261 4.95006 45.7439 4.96546 45.7781 4.95426C47.1394 4.31626 48.7686 4.95216 49.4708 6.39656C49.5207 6.47206 49.5727 6.39166 49.5891 6.33296C50.2653 4.45256 48.7789 2.77056 47.38 3.09756Z" fill="#1F2023"/>
<path d="M49.2941 9.19139C49.5888 7.63659 48.0579 5.96429 46.3603 6.72109C46.3063 6.73649 46.2372 6.80149 46.3036 6.85249C47.6046 7.63169 48.179 9.43869 47.604 10.9502C47.5944 10.9922 47.6088 11.0117 47.6306 11.0208C47.6402 11.0439 47.658 11.0592 47.6922 11.0481C49.0534 10.4101 50.6827 11.046 51.3849 12.4904C51.4348 12.5659 51.4867 12.4855 51.5031 12.4268C52.1793 10.5463 50.6929 8.86429 49.2941 9.19139Z" fill="#1F2023"/>
<path d="M51.2081 15.2832C51.5028 13.7283 49.972 12.0561 48.2744 12.8129C48.2204 12.8283 48.1513 12.8933 48.2176 12.9443C49.5187 13.7235 50.093 15.5305 49.518 17.042C49.5085 17.084 49.5228 17.1035 49.5447 17.1126C49.5543 17.1357 49.572 17.151 49.6062 17.1399C50.9675 16.5019 52.5968 17.1378 53.2989 18.5822C53.3488 18.6576 53.4008 18.5773 53.4172 18.5186C54.0934 16.6381 52.607 14.9561 51.2081 15.2832Z" fill="#1F2023"/>
<path d="M53.1222 21.375C53.4169 19.8201 51.8861 18.1479 50.1884 18.9047C50.1344 18.9201 50.0654 18.9851 50.1317 19.0361C51.4328 19.8153 52.0071 21.6223 51.4321 23.1338C51.4225 23.1758 51.4369 23.1953 51.4588 23.2044C51.4683 23.2275 51.4861 23.2428 51.5203 23.2317C52.8815 22.5937 54.5108 23.2296 55.213 24.674C55.2629 24.7494 55.3149 24.6691 55.3313 24.6104C56.0075 22.7299 54.5211 21.0479 53.1222 21.375Z" fill="#1F2023"/>
<path d="M56.0919 27.4686C56.3866 25.9138 54.8558 24.2416 53.1582 24.9984C53.1041 25.0137 53.0351 25.0787 53.1014 25.1297C54.4025 25.9089 54.9768 27.716 54.4018 29.2275C54.3922 29.2694 54.4066 29.289 54.4285 29.2981C54.4381 29.3211 54.4558 29.3365 54.49 29.3253C55.8513 28.6873 57.4805 29.3232 58.1827 30.7676C58.2326 30.8431 58.2846 30.7627 58.301 30.704C58.9772 28.8229 57.4908 27.1416 56.0919 27.4686Z" fill="#1F2023"/>
<path d="M58.7903 22.5936C59.085 21.0388 57.5541 19.3666 55.8565 20.1234C55.8025 20.1387 55.7334 20.203 55.7997 20.2547C57.1008 21.0339 57.6752 22.841 57.1002 24.3525C57.0906 24.3944 57.1049 24.414 57.1268 24.4231C57.1364 24.4461 57.1542 24.4615 57.1884 24.4503C58.5496 23.8123 60.1789 24.4482 60.8811 25.8926C60.931 25.9681 60.9829 25.8877 60.9993 25.829C61.6755 23.9479 60.1891 22.2666 58.7903 22.5936Z" fill="#1F2023"/>
<path d="M60.4113 17.7207C60.706 16.1658 59.1751 14.4936 57.4775 15.2504C57.4235 15.2658 57.3544 15.3308 57.4207 15.3818C58.7218 16.161 59.2961 17.968 58.7212 19.4795C58.7116 19.5215 58.7259 19.541 58.7478 19.5501C58.7574 19.5732 58.7752 19.5885 58.8094 19.5774C60.1706 18.9394 61.7999 19.5753 62.502 21.0197C62.552 21.0951 62.6039 21.0148 62.6203 20.9561C63.2965 19.0749 61.8101 17.3936 60.4113 17.7207Z" fill="#1F2023"/>
<path d="M62.0314 12.8457C62.3261 11.2908 60.7953 9.61859 59.0976 10.3754C59.0436 10.3908 58.9745 10.4558 59.0409 10.5068C60.342 11.286 60.9163 13.093 60.3413 14.6045C60.3317 14.6465 60.3461 14.666 60.3679 14.6751C60.3775 14.6982 60.3953 14.7135 60.4295 14.7024C61.7907 14.0644 63.42 14.7003 64.1222 16.1447C64.1721 16.2201 64.224 16.1398 64.2404 16.0811C64.9166 14.1999 63.4303 12.5186 62.0314 12.8457Z" fill="#1F2023"/>
<path d="M63.6525 7.97255C63.9472 6.41775 62.4163 4.74554 60.7187 5.50234C60.6647 5.51774 60.5956 5.58265 60.662 5.63375C61.963 6.41285 62.5374 8.21995 61.9624 9.73145C61.9528 9.77335 61.9671 9.79295 61.989 9.80205C61.9986 9.82505 62.0164 9.84044 62.0506 9.82924C63.4118 9.19124 65.0411 9.82715 65.7433 11.2715C65.7932 11.347 65.8451 11.2666 65.8615 11.2079C66.5377 9.32684 65.0513 7.64555 63.6525 7.97255Z" fill="#1F2023"/>
<path d="M38.4886 1.95474C38.5085 1.95474 38.5269 1.95125 38.5461 1.94915C38.5426 1.96033 38.5385 1.96872 38.5365 1.9813C38.5078 2.13363 38.5372 2.30344 38.6096 2.31881C38.6821 2.33419 38.7696 2.18884 38.7983 2.0365C38.8113 1.96522 38.8086 1.90653 38.7949 1.8618C39.0513 2.12315 39.5689 2.30414 39.9962 2.30414C40.2129 2.30414 40.3736 2.25592 40.4926 2.17556C40.5411 2.14272 40.602 2.13713 40.6532 2.16368C40.7907 2.23636 40.9541 2.26012 41.125 2.2126C41.3575 2.14831 41.5434 1.94426 41.5968 1.69549C41.6966 1.23149 41.3677 0.819203 40.9479 0.819203C40.8426 0.819203 40.7435 0.845063 40.6546 0.891873C40.6026 0.919133 40.5418 0.914243 40.4926 0.881393C40.3736 0.800333 40.2129 0.752123 39.9962 0.752123C39.5689 0.752123 39.0513 0.933102 38.7949 1.19515C38.8086 1.14973 38.8113 1.09103 38.7983 1.01975C38.7696 0.868123 38.6821 0.722073 38.6096 0.737443C38.5372 0.752813 38.5078 0.923323 38.5365 1.07566C38.5385 1.08684 38.5426 1.09522 38.5454 1.10571C38.5269 1.10361 38.5078 1.10081 38.4886 1.10081C38.2336 1.10081 38.0264 1.29159 38.0264 1.52778C38.0264 1.76327 38.2336 1.95474 38.4886 1.95474Z" fill="#1F2023"/>
<path d="M34.3616 1.95474C34.3814 1.95474 34.3999 1.95125 34.419 1.94915C34.4156 1.96033 34.4115 1.96872 34.4094 1.9813C34.3807 2.13363 34.4101 2.30344 34.4826 2.31881C34.5551 2.33419 34.6426 2.18884 34.6713 2.0365C34.6843 1.96522 34.6815 1.90653 34.6679 1.8618C34.9243 2.12315 35.4418 2.30414 35.8691 2.30414C36.0859 2.30414 36.2466 2.25592 36.3655 2.17556C36.4141 2.14272 36.4749 2.13713 36.5262 2.16368C36.6629 2.23636 36.827 2.26012 36.9979 2.2126C37.2304 2.14831 37.4164 1.94426 37.4697 1.69549C37.5695 1.23149 37.2407 0.819203 36.8209 0.819203C36.7156 0.819203 36.6164 0.845063 36.5276 0.891873C36.4756 0.919133 36.4147 0.914243 36.3655 0.881393C36.2466 0.800333 36.0859 0.752123 35.8691 0.752123C35.4418 0.752123 34.9243 0.933102 34.6679 1.19515C34.6815 1.14973 34.6843 1.09103 34.6713 1.01975C34.6426 0.868123 34.5551 0.722073 34.4826 0.737443C34.4101 0.752813 34.3807 0.923323 34.4094 1.07566C34.4115 1.08684 34.4156 1.09522 34.4183 1.10571C34.3999 1.10361 34.3807 1.10081 34.3616 1.10081C34.1066 1.10081 33.8994 1.29159 33.8994 1.52778C33.8994 1.76327 34.1066 1.95474 34.3616 1.95474Z" fill="#1F2023"/>
<path d="M30.261 1.99231L30.3164 1.98393C30.3137 1.99511 30.3116 2.00349 30.3089 2.01607C30.2904 2.16981 30.3287 2.33822 30.3977 2.3494C30.4675 2.36058 30.5447 2.21034 30.5659 2.0566C30.5755 1.98463 30.57 1.92663 30.555 1.8819C30.8216 2.13067 31.3132 2.30467 31.7426 2.30397C31.9586 2.30397 32.12 2.25576 32.2383 2.1754C32.2868 2.14255 32.3477 2.13696 32.399 2.16352C32.5364 2.23619 32.6998 2.25995 32.8714 2.21243C33.1032 2.14814 33.2891 1.9441 33.3432 1.69532C33.4423 1.23063 33.1134 0.819034 32.6936 0.819034C32.5883 0.819034 32.4892 0.844893 32.401 0.891013C32.349 0.918263 32.2875 0.914073 32.239 0.880533C32.12 0.800173 31.9593 0.751953 31.7426 0.751953C31.3173 0.752653 30.7724 0.942024 30.527 1.21595C30.5393 1.16983 30.54 1.11113 30.5235 1.04125C30.488 0.891013 30.3895 0.750553 30.3143 0.770123C30.2391 0.789693 30.2193 0.961594 30.2576 1.11183C30.2617 1.12301 30.2644 1.1314 30.2685 1.14188L30.2097 1.13978C29.9472 1.15096 29.7516 1.3641 29.7742 1.60029C29.7968 1.83299 30.0128 2.00279 30.261 1.99231Z" fill="#1F2023"/>
<path d="M26.7031 3.17547C26.7154 3.16357 26.7256 3.15037 26.7359 3.13777C26.7414 3.14757 26.7461 3.15517 26.7516 3.16567C26.8378 3.29147 26.9731 3.39557 27.023 3.37047C27.0723 3.34457 27.0271 3.18807 26.9513 3.05247C26.9157 2.98957 26.8774 2.94627 26.8405 2.91977C27.0066 2.94067 27.2159 2.94767 27.395 2.90927C27.6001 2.89947 27.7731 2.83587 27.9495 2.77927C28.1259 2.71987 28.2305 2.61367 28.3173 2.51582C28.3508 2.47319 28.4034 2.45363 28.4554 2.4683C28.5963 2.50953 28.7344 2.48507 28.8848 2.41729C29.0831 2.31736 29.2253 2.08466 29.2444 1.8289C29.2861 1.35232 28.8902 0.998726 28.4356 1.08538C28.3228 1.11473 28.2223 1.16784 28.1402 1.23702C28.0917 1.27825 28.0267 1.29013 27.9659 1.27196C27.8182 1.22025 27.6288 1.2517 27.3943 1.33555C27.1632 1.41242 26.9301 1.60599 26.7482 1.78418C26.5766 1.99871 26.4494 2.20765 26.4262 2.40471C26.4091 2.35999 26.3756 2.31177 26.3202 2.26705C26.2026 2.17061 26.0283 2.13567 25.9715 2.21044C25.9141 2.28522 26.0064 2.42987 26.1342 2.51582C26.1452 2.52141 26.1527 2.5256 26.1629 2.53049L26.1117 2.57172C25.9011 2.78207 25.923 3.10067 26.1069 3.23137C26.3004 3.37187 26.5479 3.32777 26.7031 3.17547Z" fill="#1F2023"/>
<path d="M25.6542 6.80708L25.6508 6.75048C25.6617 6.75398 25.6699 6.75678 25.6816 6.76028C25.8293 6.78958 25.9968 6.76168 26.0139 6.69318C26.0309 6.62468 25.8908 6.53668 25.7431 6.50378C25.6734 6.48838 25.6159 6.48978 25.5715 6.50168C25.8279 6.25088 26.0385 5.77358 26.0979 5.39128C26.1342 5.19918 26.1068 5.04328 26.0562 4.92028C26.0371 4.87138 26.046 4.81618 26.0843 4.77918C26.1909 4.68208 26.234 4.54158 26.2518 4.39418C26.2702 4.19288 26.1397 3.94548 25.9578 3.78898C25.605 3.46958 25.0731 3.61568 24.9049 4.10138C24.8721 4.21808 24.8659 4.33688 24.8823 4.44588C24.8926 4.51088 24.87 4.57578 24.8235 4.62268C24.7148 4.73448 24.6423 4.90568 24.5986 5.14818C24.5234 5.62748 24.6649 6.20958 24.9199 6.48148C24.8762 6.46608 24.8187 6.46118 24.749 6.47308C24.5993 6.49748 24.4543 6.58978 24.4666 6.66938C24.4796 6.74838 24.6458 6.78048 24.7955 6.75188C24.8064 6.74838 24.8146 6.74558 24.8256 6.74208L24.8187 6.80218C24.8146 7.06768 25.0047 7.27598 25.2344 7.27738C25.4662 7.27808 25.6501 7.06358 25.6542 6.80708Z" fill="#1F2023"/>
<path d="M25.6613 11.0015L25.6544 10.9471C25.6654 10.9492 25.6736 10.9513 25.6852 10.9541C25.8349 10.9751 26.0004 10.9387 26.014 10.8723C26.0277 10.806 25.8835 10.7277 25.7337 10.7011C25.664 10.6893 25.6066 10.6928 25.5628 10.7067C25.8151 10.4517 25.9949 9.91705 25.9942 9.48235C25.9942 9.26085 25.947 9.09665 25.8677 8.97505C25.8356 8.92545 25.8301 8.86325 25.8568 8.81085C25.9279 8.67035 25.9511 8.50335 25.9047 8.32865C25.8418 8.09105 25.6421 7.90105 25.3987 7.84655C24.944 7.74445 24.5413 8.08065 24.5413 8.50965C24.5413 8.61725 24.5666 8.71865 24.6118 8.80945C24.6384 8.86255 24.6336 8.92475 24.6015 8.97505C24.5229 9.09665 24.4757 9.26085 24.4757 9.48235C24.4764 9.92055 24.6507 10.4447 24.9105 10.7137C24.8661 10.6997 24.8087 10.697 24.7396 10.7116C24.5913 10.7438 24.4511 10.8458 24.4682 10.9269C24.4846 11.0079 24.6521 11.0316 24.7998 10.9938C24.8114 10.9896 24.8189 10.987 24.8299 10.9835C24.8285 11.0037 24.8244 11.0232 24.8265 11.0442C24.8442 11.3251 25.0541 11.5271 25.2859 11.4936C25.5108 11.4607 25.6763 11.2426 25.6613 11.0015Z" fill="#1F2023"/>
<path d="M27.5637 13.8109L27.5131 13.8004C27.5193 13.7907 27.5234 13.7837 27.5302 13.7725C27.5993 13.6355 27.6239 13.465 27.5733 13.4336C27.5207 13.4049 27.4072 13.5153 27.3306 13.6446C27.2944 13.7061 27.2759 13.7613 27.2711 13.8088C27.133 13.4783 26.8807 13.1296 26.679 12.9158C26.5655 12.811 26.4712 12.7411 26.3495 12.7152C26.2975 12.7061 26.2729 12.6628 26.275 12.6139C26.2784 12.4853 26.2462 12.3672 26.1546 12.2554C26.0302 12.1073 25.7943 12.0031 25.5454 12.0101C25.086 12.0094 24.7489 12.4741 24.9739 12.9759C25.0204 13.0975 25.1168 13.1939 25.2063 13.2666C25.2617 13.3085 25.2904 13.3777 25.3027 13.4448C25.3273 13.6097 25.4053 13.8207 25.6111 14.0185C26.0097 14.435 26.69 14.5831 27.0332 14.4294C27.0038 14.4657 26.9785 14.5181 26.9669 14.5908C26.9409 14.7466 26.9915 14.9241 27.079 14.9318C27.1665 14.9437 27.2472 14.7906 27.2622 14.6362C27.2615 14.6236 27.2615 14.6152 27.2615 14.6041L27.3197 14.6278C27.5918 14.7222 27.8482 14.56 27.8899 14.3329C27.9336 14.0967 27.7764 13.8871 27.5637 13.8109Z" fill="#1F2023"/>
<path d="M31.5454 14.0351L31.4887 14.0406C31.4914 14.0295 31.4942 14.0204 31.4976 14.0085C31.5263 13.8562 31.4969 13.6864 31.4244 13.671C31.3519 13.6556 31.2644 13.801 31.2357 13.9533C31.2227 14.0246 31.2255 14.0833 31.2391 14.128C30.9827 13.8666 30.4652 13.6857 30.0379 13.6857C29.8211 13.6857 29.6605 13.7339 29.5415 13.8142C29.4936 13.8471 29.4321 13.8527 29.3808 13.8261C29.2372 13.7562 29.0984 13.722 28.9371 13.7653C28.7204 13.8282 28.5351 14.0078 28.4558 14.2496C28.2999 14.6982 28.6096 15.1594 29.0725 15.1643C29.188 15.1692 29.294 15.1454 29.3794 15.0979C29.4314 15.0707 29.4923 15.0756 29.5415 15.1084C29.6605 15.1895 29.8211 15.2377 30.0379 15.2377C30.4652 15.2377 30.9827 15.056 31.2391 14.7946C31.2255 14.8401 31.2227 14.8988 31.2357 14.9693C31.2644 15.1217 31.3519 15.2677 31.4244 15.2524C31.4969 15.237 31.5263 15.0665 31.4976 14.9141C31.4942 14.903 31.4921 14.8946 31.4887 14.8841L31.5454 14.889C31.8011 14.889 32.0076 14.6982 32.0076 14.462C32.0076 14.2265 31.8011 14.0351 31.5454 14.0351Z" fill="#1F2023"/>
<path d="M35.673 14.0351C35.6532 14.0351 35.6347 14.0378 35.6162 14.0406C35.619 14.0295 35.6231 14.0204 35.6251 14.0085C35.6538 13.8562 35.6244 13.6864 35.552 13.671C35.4795 13.6556 35.392 13.801 35.3633 13.9533C35.3503 14.0246 35.353 14.0833 35.3667 14.128C35.1103 13.8666 34.5927 13.6857 34.1654 13.6857C33.9487 13.6857 33.788 13.7339 33.669 13.8142C33.6212 13.8471 33.5596 13.8527 33.5084 13.8261C33.3716 13.7534 33.2075 13.7297 33.0366 13.7772C32.8042 13.8415 32.6182 14.0455 32.5649 14.2943C32.465 14.7583 32.7939 15.1706 33.2137 15.1706C33.319 15.1706 33.4188 15.1447 33.507 15.0979C33.559 15.0707 33.6198 15.0756 33.669 15.1084C33.788 15.1895 33.9487 15.2377 34.1654 15.2377C34.5927 15.2377 35.1103 15.056 35.3667 14.7946C35.353 14.8401 35.3503 14.8988 35.3633 14.9693C35.392 15.1217 35.4795 15.2677 35.552 15.2524C35.6244 15.237 35.6538 15.0665 35.6251 14.9141C35.6231 14.903 35.619 14.8946 35.6162 14.8841C35.6354 14.8862 35.6538 14.889 35.673 14.889C35.9287 14.889 36.1352 14.6982 36.1352 14.462C36.1352 14.2265 35.9287 14.0351 35.673 14.0351Z" fill="#1F2023"/>
<path d="M39.799 14.0351C39.7791 14.0351 39.7607 14.0378 39.7415 14.0406C39.7449 14.0295 39.7491 14.0204 39.7511 14.0085C39.7798 13.8562 39.7504 13.6864 39.6779 13.671C39.6055 13.6556 39.518 13.801 39.4892 13.9533C39.4763 14.0246 39.479 14.0833 39.4927 14.128C39.2363 13.8666 38.7187 13.6857 38.2914 13.6857C38.0747 13.6857 37.914 13.7339 37.795 13.8142C37.7465 13.8471 37.6856 13.8527 37.6343 13.8261C37.4969 13.7534 37.3335 13.7297 37.1626 13.7772C36.9301 13.8415 36.7442 14.0455 36.6908 14.2943C36.591 14.7583 36.9199 15.1706 37.3397 15.1706C37.445 15.1706 37.5441 15.1447 37.633 15.0979C37.6849 15.0707 37.7458 15.0756 37.795 15.1084C37.914 15.1895 38.0747 15.2377 38.2914 15.2377C38.7187 15.2377 39.2363 15.056 39.4927 14.7946C39.479 14.8401 39.4763 14.8988 39.4892 14.9693C39.518 15.1217 39.6055 15.2677 39.6779 15.2524C39.7504 15.237 39.7798 15.0665 39.7511 14.9141C39.7491 14.903 39.7449 14.8946 39.7422 14.8841C39.7614 14.8862 39.7798 14.889 39.799 14.889C40.054 14.889 40.2611 14.6982 40.2611 14.462C40.2611 14.2265 40.054 14.0351 39.799 14.0351Z" fill="#1F2023"/>
<path d="M39.3123 30.1032C39.3335 30.1032 39.3533 30.0997 39.3731 30.0976C39.3704 30.1088 39.3656 30.1179 39.3629 30.1298C39.3328 30.2814 39.3642 30.4519 39.4415 30.4673C39.5181 30.4827 39.6124 30.3373 39.6425 30.185C39.6562 30.1137 39.6527 30.055 39.6384 30.0103C39.9119 30.2716 40.4636 30.4526 40.919 30.4526C41.1501 30.4526 41.321 30.4044 41.4482 30.324C41.4994 30.2912 41.5644 30.2856 41.6191 30.3122C41.7654 30.3848 41.9397 30.4086 42.1216 30.3611C42.3698 30.2968 42.5681 30.0927 42.6248 29.844C42.7308 29.38 42.3801 28.9677 41.9329 28.9677C41.8208 28.9677 41.7148 28.9935 41.6205 29.0404C41.5651 29.0676 41.5001 29.0627 41.4482 29.0299C41.3217 28.9488 41.1501 28.9006 40.919 28.9006C40.4636 28.9006 39.9119 29.0823 39.6384 29.3436C39.6527 29.2982 39.6562 29.2395 39.6425 29.1682C39.6124 29.0166 39.5181 28.8705 39.4415 28.8859C39.3642 28.9013 39.3328 29.0718 39.3629 29.2241C39.3656 29.2353 39.3697 29.2437 39.3731 29.2542C39.3526 29.2521 39.3328 29.2493 39.3123 29.2493C39.0401 29.2493 38.8193 29.4401 38.8193 29.6763C38.8193 29.9118 39.0401 30.1032 39.3123 30.1032Z" fill="#1F2023"/>
<path d="M34.9138 30.1032C34.935 30.1032 34.9548 30.0997 34.9747 30.0976C34.9719 30.1088 34.9672 30.1179 34.9651 30.1298C34.9343 30.2814 34.9658 30.4519 35.043 30.4673C35.1196 30.4827 35.214 30.3373 35.2441 30.185C35.2577 30.1137 35.2543 30.055 35.24 30.0103C35.5134 30.2716 36.0652 30.4526 36.5205 30.4526C36.7516 30.4526 36.9226 30.4044 37.0497 30.324C37.101 30.2912 37.166 30.2856 37.2206 30.3122C37.367 30.3848 37.5413 30.4086 37.7232 30.3611C37.9714 30.2968 38.1696 30.0927 38.2264 29.844C38.3324 29.38 37.9816 28.9677 37.5345 28.9677C37.4223 28.9677 37.3164 28.9935 37.222 29.0404C37.1666 29.0676 37.1017 29.0627 37.0497 29.0299C36.9232 28.9488 36.7516 28.9006 36.5205 28.9006C36.0652 28.9006 35.5134 29.0823 35.24 29.3436C35.2543 29.2982 35.2577 29.2395 35.2441 29.1682C35.214 29.0166 35.1196 28.8705 35.043 28.8859C34.9658 28.9013 34.9343 29.0718 34.9651 29.2241C34.9672 29.2353 34.9713 29.2437 34.9747 29.2542C34.9542 29.2521 34.9343 29.2493 34.9138 29.2493C34.6417 29.2493 34.4209 29.4401 34.4209 29.6763C34.4209 29.9118 34.6417 30.1032 34.9138 30.1032Z" fill="#1F2023"/>
<path d="M30.4877 30.0613L30.5506 30.0606C30.5465 30.0711 30.5432 30.0794 30.5384 30.0913C30.4974 30.2409 30.5179 30.4135 30.5986 30.4344C30.6793 30.4554 30.7858 30.317 30.8241 30.1675C30.8419 30.0969 30.8405 30.0382 30.8282 29.9921C31.0928 30.2618 31.6768 30.4568 32.1233 30.4526C32.3544 30.4526 32.5252 30.4044 32.6524 30.324C32.7036 30.2912 32.7687 30.2856 32.8234 30.3121C32.9697 30.3848 33.144 30.4086 33.3266 30.3611C33.5741 30.2968 33.7717 30.0927 33.8291 29.844C33.9351 29.3793 33.5843 28.9677 33.1371 28.9677C33.025 28.9677 32.9191 28.9935 32.8254 29.0396C32.7694 29.0669 32.7043 29.0627 32.6524 29.0292C32.5259 28.9488 32.3544 28.9006 32.1233 28.9006C31.659 28.9048 31.1394 29.0725 30.8584 29.3261C30.8741 29.2821 30.8803 29.2241 30.87 29.1521C30.8475 28.9977 30.7667 28.8461 30.6935 28.8559C30.6211 28.8656 30.5795 29.034 30.5986 29.1878C30.6013 29.1997 30.6026 29.208 30.6053 29.2185L30.5473 29.2094C30.2855 29.1948 30.0543 29.3597 30.0269 29.591C29.9989 29.8279 30.2061 30.0459 30.4877 30.0613Z" fill="#1F2023"/>
<path d="M36.7973 23.8172L36.8602 23.8165C36.8561 23.827 36.8527 23.8354 36.8479 23.8473C36.8069 23.9968 36.8274 24.1694 36.9081 24.1904C36.9888 24.2114 37.0954 24.073 37.1337 23.9235C37.1515 23.8529 37.1501 23.7942 37.1378 23.7481C37.4024 24.0178 37.987 24.2128 38.4327 24.2086C38.6638 24.2086 38.8348 24.1603 38.9612 24.08C39.0132 24.0471 39.0782 24.0415 39.1329 24.0681C39.2792 24.1408 39.4535 24.1645 39.6361 24.117C39.8836 24.0527 40.0812 23.8487 40.1386 23.5999C40.2446 23.1359 39.8938 22.7236 39.4467 22.7236C39.3346 22.7236 39.2286 22.7495 39.1349 22.7963C39.0788 22.8235 39.0139 22.8187 38.9619 22.7851C38.8354 22.7048 38.6638 22.6565 38.4327 22.6565C37.9685 22.6607 37.4489 22.8291 37.1679 23.0821C37.1836 23.0381 37.1898 22.9801 37.1795 22.9081C37.1569 22.7537 37.0763 22.602 37.0031 22.6118C36.9306 22.6216 36.8889 22.79 36.9081 22.9437C36.9108 22.9556 36.9122 22.964 36.9149 22.9745L36.8568 22.9654C36.5949 22.9514 36.3638 23.1156 36.3365 23.3469C36.3085 23.5838 36.5156 23.8019 36.7973 23.8172Z" fill="#1F2023"/>
<path d="M26.1919 28.3929L26.2404 28.4404C26.2301 28.4453 26.2219 28.4495 26.211 28.4551C26.0845 28.5341 25.9833 28.6864 26.0449 28.7591C26.1043 28.8331 26.2848 28.801 26.4072 28.7081C26.4653 28.6647 26.4995 28.6179 26.5166 28.5732C26.5508 28.9876 27.0157 29.5019 27.4943 29.729C27.737 29.8345 27.9374 29.8541 28.0939 29.831C28.1575 29.8226 28.2266 29.8366 28.2758 29.8785C28.4084 29.991 28.5896 30.0707 28.7934 30.0756C29.0709 30.0665 29.3143 29.9072 29.4114 29.6731C29.5885 29.2301 29.3219 28.7744 28.9404 28.6724C28.8433 28.6445 28.7448 28.6438 28.6484 28.664C28.5917 28.6766 28.5349 28.6563 28.5035 28.606C28.4248 28.4865 28.3004 28.3922 28.1179 28.3139C27.7746 28.1448 27.2919 28.0631 26.9446 28.0701C26.9836 28.0449 27.0232 28.0023 27.0595 27.9408C27.1361 27.8073 27.175 27.6487 27.1183 27.62C27.0595 27.5928 26.9289 27.6857 26.8386 27.815C26.8325 27.8255 26.8284 27.8332 26.8229 27.8437L26.7915 27.7982C26.6363 27.6158 26.3518 27.583 26.172 27.713C25.9758 27.8555 25.9874 28.1581 26.1919 28.3929Z" fill="#1F2023"/>
<path d="M24.8173 23.9121L24.8227 23.9743C24.8118 23.9708 24.8036 23.968 24.7913 23.9645C24.6422 23.933 24.4761 23.9652 24.461 24.0441C24.4467 24.1231 24.5875 24.2167 24.7386 24.251C24.8084 24.2664 24.8658 24.2622 24.9096 24.2468C24.66 24.5326 24.5028 25.1566 24.5848 25.6723C24.6231 25.9316 24.725 26.1168 24.8289 26.2356C24.8726 26.2845 24.8938 26.3537 24.8822 26.4214C24.8651 26.6003 24.9102 26.8044 25.0217 26.9868C25.1851 27.2341 25.4777 27.3439 25.7129 27.2789C25.9365 27.2188 26.0958 27.0532 26.186 26.875C26.2729 26.6968 26.2913 26.506 26.2366 26.3159C26.2059 26.223 26.1505 26.144 26.0801 26.0769C26.0438 26.035 26.0356 25.9742 26.0568 25.9197C26.1122 25.7855 26.1136 25.6332 26.0842 25.4257C26.0192 25.0211 25.8244 24.5172 25.5618 24.2447C25.6063 24.2587 25.6637 24.2615 25.7327 24.2475C25.8791 24.2202 26.0233 24.1217 26.0083 24.0441C25.9932 23.9652 25.8264 23.933 25.678 23.9645C25.6664 23.968 25.6582 23.9708 25.648 23.9743L25.6527 23.9121C25.6527 23.634 25.4661 23.4082 25.235 23.4082C25.0046 23.4082 24.8173 23.634 24.8173 23.9121Z" fill="#1F2023"/>
<path d="M24.9442 19.3417L24.9373 19.4088C24.9271 19.4025 24.9195 19.3983 24.9086 19.392C24.7684 19.3305 24.5982 19.3319 24.5674 19.4186C24.5373 19.5059 24.657 19.6352 24.804 19.6883C24.871 19.7128 24.9284 19.7169 24.9736 19.7079C24.6809 19.9462 24.4635 20.6114 24.4751 21.0586C24.4751 21.2948 24.5223 21.4702 24.6009 21.5995C24.6331 21.6519 24.6385 21.7183 24.6126 21.7742C24.5414 21.9237 24.5182 22.1026 24.5647 22.2885C24.6276 22.5415 24.8272 22.7441 25.0706 22.8021C25.5253 22.9111 25.928 22.5527 25.928 22.0956C25.928 21.981 25.9027 21.8727 25.8569 21.7763C25.8309 21.7197 25.835 21.6526 25.8678 21.5995C25.9465 21.4702 25.9936 21.2948 25.9936 21.0586C25.9841 20.5751 25.8391 20.1132 25.6197 19.7987C25.6627 19.8183 25.7188 19.8295 25.7892 19.826C25.9369 19.8162 26.0955 19.7575 26.0921 19.6897C26.0894 19.6212 25.9307 19.5604 25.7796 19.5597C25.768 19.5611 25.7598 19.5618 25.7489 19.5632L25.7639 19.508C25.8029 19.2578 25.6976 19.0126 25.472 18.9364C25.26 18.863 24.9934 19.0419 24.9442 19.3417Z" fill="#1F2023"/>
<path d="M32.6573 15.9492L32.5965 15.9548C32.5999 15.9436 32.6026 15.9345 32.6061 15.9227C32.6368 15.7703 32.6054 15.6005 32.5281 15.5851C32.4515 15.5698 32.3572 15.7151 32.3271 15.8675C32.3134 15.9387 32.3169 15.9974 32.3312 16.0422C32.0577 15.7808 31.506 15.5998 31.0506 15.5998C30.8195 15.5998 30.6486 15.648 30.5214 15.7284C30.4702 15.7612 30.4052 15.7668 30.3505 15.7403C30.2042 15.6676 30.0299 15.6438 29.8473 15.6914C29.5991 15.7563 29.4029 15.9576 29.3441 16.2099C29.2422 16.6746 29.5875 17.0834 30.0367 17.0848C30.1488 17.0848 30.2548 17.0582 30.3485 17.0121C30.4045 16.9848 30.4695 16.9897 30.5214 17.0226C30.6479 17.1036 30.8195 17.1518 31.0506 17.1518C31.506 17.1518 32.0577 16.9702 32.3312 16.7088C32.3169 16.7542 32.3134 16.8129 32.3271 16.8835C32.3572 17.0358 32.4515 17.1812 32.5281 17.1665C32.6054 17.1511 32.6368 16.9806 32.6061 16.8283C32.6026 16.8171 32.5999 16.8087 32.5965 16.7983L32.6573 16.8031C32.9295 16.8031 33.1503 16.6124 33.1503 16.3762C33.1503 16.1407 32.9295 15.9492 32.6573 15.9492Z" fill="#1F2023"/>
<path d="M37.0552 15.9492C37.034 15.9492 37.0142 15.952 36.9944 15.9548C36.9971 15.9436 37.0019 15.9345 37.0046 15.9227C37.0347 15.7703 37.0032 15.6005 36.926 15.5851C36.8494 15.5698 36.7551 15.7151 36.725 15.8675C36.7113 15.9387 36.7147 15.9974 36.7291 16.0422C36.4556 15.7808 35.9039 15.5998 35.4485 15.5998C35.2174 15.5998 35.0465 15.648 34.9193 15.7284C34.868 15.7612 34.8031 15.7668 34.7484 15.7403C34.6021 15.6676 34.4277 15.6438 34.2452 15.6914C33.9977 15.7556 33.7994 15.9597 33.7427 16.2085C33.6367 16.6725 33.9874 17.0848 34.4346 17.0848C34.5467 17.0848 34.6527 17.0582 34.747 17.0121C34.8024 16.9848 34.8674 16.9897 34.9193 17.0226C35.0458 17.1036 35.2174 17.1518 35.4485 17.1518C35.9039 17.1518 36.4556 16.9702 36.7291 16.7088C36.7147 16.7542 36.7113 16.8129 36.725 16.8835C36.7551 17.0358 36.8494 17.1812 36.926 17.1665C37.0032 17.1511 37.0347 16.9806 37.0046 16.8283C37.0019 16.8171 36.9978 16.8087 36.9944 16.7983C37.0149 16.8003 37.0347 16.8031 37.0552 16.8031C37.3273 16.8031 37.5482 16.6124 37.5482 16.3762C37.5482 16.1407 37.3273 15.9492 37.0552 15.9492Z" fill="#1F2023"/>
<path d="M41.4536 15.9492C41.4325 15.9492 41.4126 15.952 41.3928 15.9548C41.3955 15.9436 41.4003 15.9345 41.4024 15.9227C41.4331 15.7703 41.4017 15.6005 41.3244 15.5851C41.2479 15.5698 41.1535 15.7151 41.1234 15.8675C41.1091 15.9387 41.1132 15.9974 41.1275 16.0422C40.854 15.7808 40.3023 15.5998 39.8469 15.5998C39.6158 15.5998 39.4442 15.648 39.3178 15.7284C39.2665 15.7612 39.2015 15.7668 39.1468 15.7403C39.0005 15.6676 38.8262 15.6438 38.6436 15.6914C38.3961 15.7556 38.1978 15.9597 38.1411 16.2085C38.0351 16.6725 38.3859 17.0848 38.833 17.0848C38.9451 17.0848 39.0511 17.0582 39.1455 17.0121C39.2002 16.9848 39.2658 16.9897 39.3178 17.0226C39.4442 17.1036 39.6158 17.1518 39.8469 17.1518C40.3023 17.1518 40.854 16.9702 41.1275 16.7088C41.1132 16.7542 41.1091 16.8129 41.1234 16.8835C41.1535 17.0358 41.2479 17.1812 41.3244 17.1665C41.4017 17.1511 41.4331 16.9806 41.4024 16.8283C41.4003 16.8171 41.3962 16.8087 41.3928 16.7983C41.4133 16.8003 41.4331 16.8031 41.4536 16.8031C41.7258 16.8031 41.9466 16.6124 41.9466 16.3762C41.9466 16.1407 41.7258 15.9492 41.4536 15.9492Z" fill="#1F2023"/>
<path d="M37.1107 27.9137C37.1326 27.9137 37.1531 27.9109 37.1743 27.9081C37.1709 27.9193 37.1661 27.9283 37.1633 27.9402C37.1319 28.0926 37.1647 28.2624 37.2447 28.2777C37.3247 28.2931 37.4225 28.1478 37.4539 27.9954C37.4683 27.9241 37.4649 27.8654 37.4498 27.8207C37.7342 28.0821 38.3079 28.2631 38.781 28.2631C39.021 28.2631 39.1994 28.2148 39.3307 28.1345C39.384 28.1016 39.4517 28.0961 39.5085 28.1226C39.6609 28.1953 39.8421 28.219 40.0315 28.1715C40.2893 28.1072 40.495 27.9032 40.5538 27.6544C40.6646 27.1904 40.3002 26.7781 39.8353 26.7781C39.7184 26.7781 39.6083 26.804 39.5105 26.8508C39.4531 26.8781 39.3854 26.8732 39.3307 26.8403C39.1994 26.7593 39.021 26.711 38.781 26.711C38.3079 26.711 37.7342 26.8927 37.4498 27.1541C37.4649 27.1087 37.4683 27.05 37.4539 26.9794C37.4225 26.827 37.3247 26.681 37.2447 26.6964C37.1647 26.7117 37.1319 26.8822 37.1633 27.0346C37.1661 27.0458 37.1709 27.0541 37.1736 27.0646C37.1524 27.0625 37.1319 27.0597 37.1107 27.0597C36.8276 27.0597 36.5986 27.2505 36.5986 27.4867C36.5986 27.7222 36.8276 27.9137 37.1107 27.9137Z" fill="#1F2023"/>
<path d="M32.5394 27.9137C32.5613 27.9137 32.5818 27.9109 32.603 27.9081C32.5996 27.9193 32.5948 27.9283 32.5921 27.9402C32.5606 28.0926 32.5934 28.2624 32.6734 28.2777C32.7534 28.2931 32.8512 28.1478 32.8826 27.9954C32.897 27.9241 32.8936 27.8654 32.8785 27.8207C33.163 28.0821 33.7366 28.2631 34.2097 28.2631C34.4497 28.2631 34.6281 28.2148 34.7594 28.1345C34.8127 28.1016 34.8804 28.0961 34.9372 28.1226C35.0896 28.1953 35.2708 28.219 35.4602 28.1715C35.718 28.1072 35.9238 27.9032 35.9826 27.6544C36.0933 27.1904 35.7289 26.7781 35.264 26.7781C35.1471 26.7781 35.037 26.804 34.9392 26.8508C34.8818 26.8781 34.8134 26.8732 34.7594 26.8403C34.6281 26.7593 34.4497 26.711 34.2097 26.711C33.7366 26.711 33.163 26.8927 32.8785 27.1541C32.8936 27.1087 32.897 27.05 32.8826 26.9794C32.8512 26.827 32.7534 26.681 32.6734 26.6964C32.5934 26.7117 32.5606 26.8822 32.5921 27.0346C32.5948 27.0458 32.5996 27.0541 32.6023 27.0646C32.5811 27.0625 32.5606 27.0597 32.5394 27.0597C32.2564 27.0597 32.0273 27.2505 32.0273 27.4867C32.0273 27.7222 32.2564 27.9137 32.5394 27.9137Z" fill="#1F2023"/>
<path d="M27.9227 26.7231C27.9391 26.7426 27.9589 26.7559 27.9787 26.7699C27.9678 26.7755 27.9603 26.7797 27.9486 26.7853C27.8187 26.8719 27.7319 27.0201 27.801 27.0997C27.8693 27.1787 28.0546 27.1458 28.1722 27.048C28.2276 27.0026 28.2584 26.953 28.2727 26.9061C28.3527 27.3135 28.9065 27.8369 29.4453 27.9837C29.7126 28.0501 29.9239 28.064 30.0798 28.0012C30.144 27.9788 30.2172 27.9851 30.2746 28.0221C30.4298 28.1255 30.626 28.1661 30.8353 28.1367C31.121 28.1046 31.3412 27.8901 31.4068 27.6476C31.5231 27.1808 31.1757 26.7797 30.7662 26.7314C30.6589 26.7252 30.5597 26.7335 30.466 26.7643C30.4107 26.7832 30.3505 26.7685 30.3081 26.728C30.2015 26.6357 30.0709 26.54 29.8712 26.4946C29.4911 26.3862 29.0323 26.3345 28.67 26.3779C28.7069 26.3506 28.7438 26.3059 28.7766 26.2409C28.8457 26.1018 28.8812 25.9411 28.8265 25.916C28.7718 25.8901 28.6358 25.9963 28.5544 26.1242C28.5489 26.1347 28.5455 26.1417 28.5407 26.1514L28.5045 26.1102C28.339 25.9397 28.069 25.8908 27.883 26.018C27.6868 26.1542 27.6888 26.482 27.9227 26.7231Z" fill="#1F2023"/>
<path d="M30.7803 22.2846C30.794 22.3063 30.8117 22.3223 30.8295 22.339C30.8186 22.3425 30.8097 22.3453 30.7974 22.3495C30.6572 22.4166 30.5512 22.5516 30.6087 22.6403C30.6654 22.7284 30.8534 22.7221 30.9833 22.6417C31.0442 22.6047 31.0818 22.56 31.1023 22.5152C31.1262 22.9303 31.6041 23.527 32.1176 23.7485C32.3733 23.8519 32.5805 23.8954 32.7432 23.8555C32.8102 23.8423 32.8813 23.8589 32.934 23.9036C33.0734 24.0287 33.2628 24.0966 33.4734 24.0966C33.7606 24.105 34.0081 23.924 34.1058 23.6934C34.2836 23.2476 33.9944 22.8003 33.5951 22.6955C33.4898 22.6739 33.3907 22.6683 33.2936 22.6857C33.2362 22.6962 33.1787 22.6732 33.1418 22.627C33.0488 22.5208 32.9326 22.4076 32.7412 22.3336C32.3795 22.1728 31.9316 22.0568 31.5672 22.0484C31.6076 22.0268 31.65 21.9876 31.691 21.9283C31.7785 21.7997 31.8352 21.6458 31.7846 21.613C31.7341 21.5802 31.585 21.6661 31.4872 21.7807C31.4804 21.7905 31.4756 21.7975 31.4695 21.8059L31.4401 21.7597C31.2992 21.5676 31.038 21.481 30.8363 21.581C30.6237 21.6879 30.5806 22.0128 30.7803 22.2846Z" fill="#1F2023"/>
<path d="M28.1273 15.9385C28.1027 15.9385 28.0795 15.9448 28.0562 15.9518C28.059 15.9399 28.061 15.9308 28.0644 15.9182C28.0843 15.761 28.0296 15.5975 27.9263 15.5996C27.8224 15.6017 27.7267 15.7666 27.724 15.9217C27.7219 15.9944 27.7383 16.051 27.7643 16.0922C27.4088 15.8896 26.6594 15.9818 26.2013 16.3053C25.9784 16.4703 25.8308 16.6254 25.7768 16.7875C25.7521 16.8518 25.6995 16.9049 25.6345 16.9259C25.4568 16.979 25.2988 17.1055 25.186 17.2872C25.0247 17.5303 25.0411 17.8413 25.1792 18.0495C25.4513 18.4423 25.9757 18.4325 26.2772 18.1446C26.3511 18.0656 26.4092 17.9832 26.4468 17.8902C26.4693 17.835 26.5193 17.7973 26.5767 17.791C26.7141 17.7679 26.87 17.7288 27.0341 17.603C27.3609 17.3773 27.6966 17.0538 27.8997 16.7442C27.8962 16.7903 27.9058 16.8483 27.9325 16.9154C27.9913 17.0593 28.0884 17.1907 28.1424 17.1656C28.1971 17.1397 28.206 16.965 28.1636 16.8183C28.1595 16.8071 28.1561 16.7994 28.152 16.7896L28.206 16.7889C28.4405 16.7707 28.6524 16.5926 28.6777 16.3647C28.7037 16.1237 28.4589 15.9126 28.1273 15.9385Z" fill="#1F2023"/>
<path d="M26.7157 22.0175L26.7212 22.0825C26.7102 22.0783 26.7013 22.0755 26.6897 22.072C26.5407 22.0391 26.3745 22.0727 26.3595 22.1544C26.3444 22.2362 26.4866 22.3361 26.6357 22.3683C26.7054 22.3829 26.7629 22.3795 26.8066 22.3641C26.6788 22.5094 26.5707 22.7288 26.4942 22.972C26.4258 23.2257 26.38 23.5213 26.4053 23.7861C26.4313 24.0573 26.4942 24.2522 26.6036 24.3864C26.6453 24.4416 26.6644 24.515 26.6494 24.5835C26.6022 24.7658 26.6453 24.9825 26.7458 25.1823C26.8982 25.4555 27.1779 25.5988 27.4213 25.5478C27.8766 25.4346 28.092 24.9776 28.0038 24.603C27.9751 24.5073 27.9272 24.4192 27.8711 24.3389C27.8363 24.2921 27.8294 24.2299 27.8534 24.1761C27.9046 24.0475 27.9409 23.8791 27.919 23.661C27.8971 23.4451 27.8554 23.2047 27.7713 22.972C27.6954 22.7288 27.5867 22.5094 27.4589 22.3641C27.5033 22.3795 27.5607 22.3829 27.6305 22.3683C27.7788 22.3361 27.9217 22.2362 27.9067 22.1544C27.8917 22.0727 27.7248 22.0391 27.5758 22.072C27.5648 22.0755 27.5566 22.0783 27.5464 22.0818L27.5512 22.0175C27.5512 21.7282 27.3645 21.4941 27.1334 21.4941C26.903 21.4941 26.7157 21.7282 26.7157 22.0175Z" fill="#1F2023"/>
<path d="M28.7834 17.7612L28.7211 17.7941C28.7205 17.7822 28.7205 17.7731 28.7198 17.7598C28.6952 17.6054 28.5988 17.4621 28.5037 17.4873C28.4094 17.5097 28.3649 17.6948 28.4019 17.8486C28.4189 17.9199 28.449 17.9695 28.4832 18.0023C28.1038 17.8919 27.3681 18.1519 26.9968 18.6976C26.8088 18.9604 26.7493 19.207 26.7596 19.3929C26.763 19.4691 26.7343 19.5487 26.6905 19.6102C26.5634 19.7696 26.4827 20.0002 26.5005 20.2413C26.5182 20.5725 26.7302 20.815 26.9695 20.8653C27.1978 20.9254 27.4091 20.8485 27.5712 20.7262C27.7318 20.606 27.8392 20.4488 27.8768 20.2762C27.8911 20.1867 27.8911 20.1036 27.8706 20.0162C27.8556 19.9638 27.8822 19.917 27.928 19.8926C28.0381 19.8304 28.1291 19.7423 28.2255 19.6095C28.3957 19.3482 28.6459 18.9506 28.7772 18.597C28.7854 18.6438 28.8087 18.6976 28.8517 18.7549C28.9427 18.8758 29.0733 18.9722 29.128 18.9345C29.1806 18.8947 29.1437 18.7256 29.0609 18.5963C29.0534 18.5865 29.0486 18.5802 29.0411 18.5718L29.0951 18.5537C29.329 18.4593 29.4828 18.2161 29.424 17.9904C29.3645 17.7605 29.076 17.6431 28.7834 17.7612Z" fill="#1F2023"/>
<path d="M36.9626 3.95084C36.9838 3.95084 37.0043 3.94734 37.0248 3.94524C37.0214 3.95644 37.0166 3.96554 37.0145 3.97734C36.9838 4.12974 37.0152 4.29954 37.0938 4.31484C37.1725 4.33024 37.2682 4.18494 37.2989 4.03254C37.3133 3.96134 37.3099 3.90264 37.2955 3.85784C37.5738 4.11924 38.1365 4.30024 38.6014 4.30024C38.8366 4.30024 39.0116 4.25204 39.1402 4.17164C39.1928 4.13884 39.2591 4.13324 39.3152 4.15974C39.4642 4.23244 39.642 4.25614 39.828 4.20864C40.0803 4.14434 40.2826 3.94034 40.3408 3.69154C40.4495 3.22754 40.0912 2.81524 39.6352 2.81524C39.521 2.81524 39.413 2.84114 39.3166 2.88794C39.2605 2.91524 39.1935 2.91034 39.1408 2.87744C39.0116 2.79644 38.8366 2.74814 38.6014 2.74814C38.1365 2.74814 37.5738 2.92984 37.2955 3.19124C37.3099 3.14584 37.3133 3.08714 37.2989 3.01584C37.2682 2.86414 37.1725 2.71814 37.0938 2.73354C37.0152 2.74884 36.9838 2.91944 37.0145 3.07174C37.0166 3.08294 37.0214 3.09134 37.0241 3.10174C37.0036 3.09964 36.9838 3.09684 36.9626 3.09684C36.685 3.09684 36.46 3.28764 36.46 3.52384C36.46 3.75934 36.685 3.95084 36.9626 3.95084Z" fill="#1F2023"/>
<path d="M32.4771 3.95084C32.4983 3.95084 32.5188 3.94734 32.5393 3.94524C32.5359 3.95644 32.5311 3.96554 32.5291 3.97734C32.4983 4.12974 32.5298 4.29954 32.6084 4.31484C32.687 4.33024 32.7827 4.18494 32.8135 4.03254C32.8278 3.96134 32.8244 3.90264 32.8101 3.85784C33.0883 4.11924 33.651 4.30024 34.116 4.30024C34.3511 4.30024 34.5262 4.25204 34.6547 4.17164C34.7074 4.13884 34.7737 4.13324 34.8297 4.15974C34.9788 4.23244 35.1566 4.25614 35.3425 4.20864C35.5948 4.14434 35.7972 3.94034 35.8553 3.69154C35.964 3.22754 35.6064 2.81524 35.1497 2.81524C35.0355 2.81524 34.9275 2.84114 34.8318 2.88794C34.775 2.91524 34.708 2.91034 34.6554 2.87744C34.5262 2.79644 34.3511 2.74814 34.116 2.74814C33.651 2.74814 33.0883 2.92984 32.8101 3.19124C32.8244 3.14584 32.8278 3.08714 32.8135 3.01584C32.7827 2.86414 32.687 2.71814 32.6084 2.73354C32.5298 2.74884 32.4983 2.91944 32.5291 3.07174C32.5311 3.08294 32.5359 3.09134 32.5386 3.10174C32.5181 3.09964 32.4983 3.09684 32.4771 3.09684C32.1995 3.09684 31.9746 3.28764 31.9746 3.52384C31.9746 3.75934 32.1995 3.95084 32.4771 3.95084Z" fill="#1F2023"/>
<path d="M28.413 4.70365C28.426 4.69175 28.437 4.67785 28.4486 4.66455C28.4527 4.67575 28.4561 4.68405 28.4609 4.69595C28.5347 4.83435 28.6496 4.94685 28.7077 4.93215C28.7624 4.91535 28.7426 4.75465 28.6879 4.61005C28.6619 4.54225 28.6305 4.49335 28.597 4.46185C28.945 4.55135 29.401 4.54015 29.8058 4.46815C30.0006 4.41645 30.1565 4.35985 30.2597 4.25715C30.3028 4.21795 30.3616 4.19985 30.4163 4.22215C30.564 4.28295 30.7281 4.29275 30.8976 4.23055C31.1301 4.15375 31.3195 3.94965 31.3735 3.69735C31.4767 3.23755 31.1055 2.81205 30.6112 2.85675C30.4888 2.86725 30.376 2.90285 30.2789 2.95805C30.2221 2.99025 30.1497 2.99925 30.0888 2.97415C29.9384 2.92175 29.7422 2.88535 29.4803 2.95245C28.9648 3.04125 28.3782 3.49965 28.2578 3.89235C28.2483 3.84485 28.223 3.79245 28.1724 3.74075C28.0664 3.62965 27.8852 3.57515 27.8087 3.64495C27.73 3.71275 27.8066 3.88045 27.9249 3.97485C27.9351 3.98115 27.942 3.98525 27.9515 3.99155L27.8934 4.03495C27.6295 4.24665 27.6138 4.58905 27.7963 4.72885C27.9823 4.87275 28.2367 4.84275 28.413 4.70365Z" fill="#1F2023"/>
<path d="M27.5505 8.65644L27.545 8.59284C27.556 8.59634 27.5648 8.59914 27.5765 8.60334C27.7255 8.63474 27.8916 8.60264 27.9067 8.52224C27.9217 8.44184 27.7795 8.34404 27.6305 8.31264C27.5607 8.29794 27.5033 8.30144 27.4595 8.31614C27.718 8.04284 27.8862 7.43074 27.8985 7.00724C27.9053 6.78784 27.8725 6.62994 27.8048 6.50344C27.7795 6.45314 27.7823 6.39304 27.8151 6.34694C27.8978 6.22044 27.9587 6.08834 27.945 5.92134C27.9416 5.71174 27.8151 5.47904 27.6257 5.32174C27.4425 5.17504 27.2257 5.12964 27.0145 5.21414C26.8189 5.29664 26.6282 5.51324 26.5789 5.78084C26.5468 5.91574 26.5502 6.04644 26.5837 6.16104C26.6008 6.22954 26.5865 6.30354 26.5461 6.36014C26.4538 6.49644 26.3889 6.69424 26.3807 6.95624C26.3677 7.48174 26.5543 8.01984 26.8073 8.31614C26.7629 8.30144 26.7054 8.29794 26.6364 8.31264C26.4873 8.34404 26.3444 8.44184 26.3595 8.52224C26.3745 8.60264 26.5413 8.63474 26.6904 8.60334C26.7013 8.59984 26.7095 8.59704 26.7198 8.59354L26.715 8.65644C26.715 8.94014 26.9016 9.17004 27.1327 9.17004C27.3631 9.17004 27.5505 8.94014 27.5505 8.65644Z" fill="#1F2023"/>
<path d="M28.9085 12.2052L28.8572 12.1863C28.8648 12.178 28.8709 12.171 28.8791 12.1619C28.968 12.0361 29.0159 11.8705 28.97 11.8328C28.9263 11.7929 28.7971 11.8789 28.6945 11.9956C28.648 12.0501 28.62 12.1011 28.6084 12.1465C28.5154 11.7894 28.3335 11.389 28.181 11.0997C28.0949 10.9537 28.0074 10.8523 27.898 10.7832C27.8522 10.7559 27.8358 10.7028 27.8481 10.6532C27.8823 10.519 27.8802 10.3828 27.8194 10.2388C27.736 10.0564 27.5404 9.85454 27.297 9.78744C27.0693 9.73224 26.8553 9.79584 26.6981 9.93204C26.5415 10.0753 26.4479 10.3415 26.4943 10.6238C26.521 10.765 26.5695 10.8936 26.6489 10.9949C26.6947 11.055 26.7083 11.1354 26.7022 11.208C26.6817 11.3855 26.7179 11.6217 26.8738 11.8894C27.1705 12.4428 27.8754 12.7964 28.2679 12.7146C28.231 12.7454 28.1968 12.7922 28.1749 12.8621C28.1263 13.0081 28.1585 13.2017 28.2542 13.2345C28.3506 13.2653 28.4566 13.1276 28.4894 12.9753C28.4901 12.9627 28.4908 12.9543 28.4921 12.9431L28.553 12.9781C28.8436 13.1171 29.1389 13.0032 29.1998 12.7747C29.2606 12.549 29.1205 12.3079 28.9085 12.2052Z" fill="#1F2023"/>
<path d="M39.5513 6.03873C39.5718 6.03873 39.5917 6.03523 39.6115 6.03313C39.6088 6.04433 39.604 6.05263 39.6019 6.06523C39.5718 6.21763 39.6026 6.38743 39.6792 6.40273C39.7558 6.41813 39.8487 6.27283 39.8788 6.12043C39.8925 6.04913 39.8891 5.99043 39.8754 5.94573C40.1461 6.20713 40.6938 6.38813 41.1457 6.38813C41.3748 6.38813 41.5443 6.33983 41.6701 6.25953C41.7214 6.22663 41.7857 6.22113 41.8404 6.24763C41.9853 6.32033 42.1583 6.34403 42.3395 6.29653C42.5849 6.23223 42.7812 6.02823 42.8379 5.77943C42.9439 5.31543 42.5959 4.90313 42.1515 4.90313C42.0407 4.90313 41.9354 4.92903 41.8417 4.97583C41.787 5.00313 41.7221 4.99823 41.6701 4.96533C41.545 4.88433 41.3748 4.83603 41.1457 4.83603C40.6938 4.83603 40.1461 5.01703 39.8754 5.27913C39.8891 5.23373 39.8925 5.17503 39.8788 5.10373C39.8487 4.95203 39.7558 4.80603 39.6792 4.82143C39.6026 4.83673 39.5718 5.00723 39.6019 5.15963C39.604 5.17083 39.6088 5.17913 39.6115 5.18963C39.5917 5.18753 39.5718 5.18473 39.5513 5.18473C39.2813 5.18473 39.0625 5.37553 39.0625 5.61173C39.0625 5.84723 39.2813 6.03873 39.5513 6.03873Z" fill="#1F2023"/>
<path d="M35.1871 6.03873C35.2076 6.03873 35.2274 6.03523 35.2472 6.03313C35.2445 6.04433 35.2397 6.05263 35.2377 6.06523C35.2076 6.21763 35.2383 6.38743 35.3149 6.40273C35.3915 6.41813 35.4845 6.27283 35.5146 6.12043C35.5282 6.04913 35.5248 5.99043 35.5111 5.94573C35.7819 6.20713 36.3295 6.38813 36.7815 6.38813C37.0105 6.38813 37.1801 6.33983 37.3059 6.25953C37.3571 6.22663 37.4214 6.22113 37.4761 6.24763C37.6211 6.32033 37.794 6.34403 37.9752 6.29653C38.2207 6.23223 38.4169 6.02823 38.4736 5.77943C38.5796 5.31543 38.2316 4.90313 37.7872 4.90313C37.6764 4.90313 37.5712 4.92903 37.4775 4.97583C37.4228 5.00313 37.3578 4.99823 37.3059 4.96533C37.1808 4.88433 37.0105 4.83603 36.7815 4.83603C36.3295 4.83603 35.7819 5.01703 35.5111 5.27913C35.5248 5.23373 35.5282 5.17503 35.5146 5.10373C35.4845 4.95203 35.3915 4.80603 35.3149 4.82143C35.2383 4.83673 35.2076 5.00723 35.2377 5.15963C35.2397 5.17083 35.2445 5.17913 35.2472 5.18963C35.2274 5.18753 35.2076 5.18473 35.1871 5.18473C34.917 5.18473 34.6982 5.37553 34.6982 5.61173C34.6982 5.84723 34.917 6.03873 35.1871 6.03873Z" fill="#1F2023"/>
<path d="M30.8874 6.07694L30.94 6.06584C30.938 6.07694 30.9373 6.08604 30.9352 6.09864C30.9305 6.25164 30.9804 6.41794 31.0405 6.42634C31.1014 6.43684 31.1609 6.27964 31.1814 6.12864C31.1896 6.05744 31.1834 5.99944 31.167 5.95464C31.4084 6.20064 31.9676 6.39004 32.4168 6.38794C32.6459 6.38794 32.8161 6.33974 32.9419 6.25934C32.9932 6.22654 33.0575 6.22094 33.1115 6.24744C33.2571 6.32014 33.4301 6.34394 33.6106 6.29644C33.8567 6.23214 34.0529 6.02804 34.1097 5.77924C34.215 5.31454 33.867 4.90304 33.4232 4.90304C33.3118 4.90304 33.2072 4.92884 33.1135 4.97494C33.0581 5.00224 32.9939 4.99804 32.9419 4.96454C32.8161 4.88414 32.6466 4.83594 32.4168 4.83594C31.9629 4.83874 31.4268 5.00994 31.1267 5.28874C31.139 5.24334 31.1397 5.18464 31.1198 5.11474C31.0802 4.96104 30.9544 4.83104 30.8628 4.85544C30.7712 4.88134 30.7602 5.05394 30.8149 5.20064C30.8204 5.21184 30.8245 5.21954 30.8293 5.23004L30.7623 5.23284C30.4498 5.28384 30.2632 5.55774 30.3507 5.77514C30.4389 5.99524 30.6652 6.11404 30.8874 6.07694Z" fill="#1F2023"/>
<path d="M29.5583 9.2418L29.5528 9.1803C29.5638 9.1838 29.5727 9.1859 29.5843 9.1901C29.7326 9.2208 29.8995 9.1894 29.9145 9.1111C29.9295 9.0329 29.7873 8.9378 29.6383 8.9071C29.5685 8.8924 29.5111 8.8959 29.4674 8.9106C29.7251 8.6248 29.8899 8.0769 29.9357 7.7003C29.9555 7.5018 29.9357 7.3613 29.8851 7.2446C29.8646 7.1971 29.8707 7.1426 29.9084 7.1098C30.0116 7.0252 30.0718 6.9302 30.0895 6.8121C30.1046 6.6521 30.0588 6.4298 29.9473 6.1985C29.8413 5.9896 29.6663 5.8436 29.4311 5.8498C29.2076 5.8554 28.9272 6.0336 28.8048 6.3159C28.731 6.4564 28.7228 6.5962 28.7214 6.7247C28.7269 6.7995 28.705 6.8736 28.6572 6.9274C28.5416 7.0581 28.4541 7.26 28.4268 7.527C28.3666 8.0699 28.5628 8.6436 28.8151 8.9106C28.7707 8.8959 28.7132 8.8924 28.6442 8.9071C28.4951 8.9378 28.3522 9.0329 28.3673 9.1111C28.3823 9.1894 28.5491 9.2208 28.6982 9.1901C28.7091 9.1866 28.7173 9.1838 28.7276 9.1803L28.7228 9.2418C28.716 9.508 28.9245 9.7715 29.1535 9.7414C29.3839 9.7107 29.5528 9.5276 29.5583 9.2418Z" fill="#1F2023"/>
<path d="M31.7527 12.0593L31.6994 12.0481C31.7055 12.0383 31.7103 12.0307 31.7172 12.0202C31.7848 11.8825 31.806 11.7106 31.7527 11.6778C31.6994 11.6463 31.5804 11.7588 31.5032 11.8888C31.4669 11.9503 31.4491 12.0062 31.4457 12.0537C31.2933 11.7232 30.9815 11.3577 30.7169 11.1229C30.5795 11.0041 30.4557 10.944 30.3299 10.9189C30.2759 10.9112 30.2376 10.8735 30.2342 10.8203C30.2137 10.6827 30.1645 10.5625 30.0551 10.4633C29.9149 10.3305 29.6715 10.255 29.4274 10.2746C29.1957 10.2976 29.007 10.415 28.9085 10.6219C28.821 10.8189 28.8292 11.1048 28.9823 11.3409C29.05 11.4646 29.158 11.5471 29.2592 11.6121C29.3194 11.6498 29.3645 11.712 29.3837 11.7791C29.4233 11.9482 29.5368 12.1369 29.7508 12.32C30.1734 12.691 30.855 12.8294 31.2153 12.677C31.1852 12.7134 31.1613 12.7665 31.1511 12.8392C31.1278 12.9964 31.1852 13.1704 31.2782 13.183C31.3712 13.1962 31.4512 13.0432 31.4615 12.8874C31.4608 12.8755 31.4608 12.8664 31.4601 12.8552L31.5223 12.8804C31.8149 12.9635 32.0843 12.814 32.1144 12.5771C32.1445 12.3465 31.9804 12.1243 31.7527 12.0593Z" fill="#1F2023"/>
<path d="M31.3934 9.2352L31.4235 9.1891C31.4304 9.1988 31.4351 9.2058 31.4427 9.2163C31.5418 9.3316 31.6895 9.4169 31.7394 9.3784C31.7879 9.34 31.7305 9.1849 31.6423 9.0626C31.5999 9.0053 31.5562 8.96749 31.5145 8.94659C31.8707 8.92699 32.3192 8.7684 32.6316 8.6063C32.7909 8.521 32.8921 8.426 32.9619 8.3163C32.9892 8.268 33.0377 8.2457 33.0877 8.2625C33.2203 8.2953 33.3475 8.2932 33.4787 8.2268C33.6517 8.1444 33.8117 7.9417 33.8855 7.7027C33.9512 7.4756 33.9163 7.2527 33.7659 7.0815C33.6203 6.925 33.3577 6.825 33.0863 6.8809C32.9475 6.8991 32.8326 6.9704 32.7362 7.0417C32.6788 7.0843 32.6056 7.1039 32.538 7.0969C32.3698 7.071 32.1558 7.1074 31.9096 7.2408C31.4139 7.5022 31.0331 8.0954 31.0352 8.4938C31.0133 8.4518 30.9743 8.4092 30.9128 8.3722C30.7788 8.2911 30.5997 8.2799 30.5532 8.3638C30.506 8.4462 30.6147 8.5797 30.7521 8.6482C30.7631 8.6524 30.7713 8.6552 30.7815 8.6594L30.7357 8.7083C30.5504 8.9543 30.5846 9.2652 30.7884 9.3833C30.9859 9.4979 31.2492 9.4267 31.3934 9.2352Z" fill="#1F2023"/>
<path d="M39.0754 25.8257C39.0966 25.8257 39.1165 25.8222 39.1363 25.8201C39.1336 25.8313 39.1288 25.8405 39.1267 25.8523C39.096 26.0047 39.1274 26.1744 39.2047 26.1898C39.2819 26.2051 39.3763 26.0598 39.4064 25.9074C39.4207 25.8362 39.4173 25.7775 39.4029 25.7327C39.6771 25.9941 40.2302 26.1751 40.6869 26.1751C40.9187 26.1751 41.091 26.1269 41.2175 26.0465C41.2695 26.0137 41.3344 26.0081 41.3891 26.0353C41.5361 26.1073 41.7111 26.1311 41.8937 26.0835C42.1426 26.0193 42.3408 25.8152 42.3983 25.5664C42.5049 25.1024 42.1528 24.6901 41.7043 24.6901C41.5922 24.6901 41.4855 24.716 41.3912 24.7628C41.3358 24.7901 41.2701 24.7852 41.2182 24.7523C41.091 24.6713 40.9187 24.6231 40.6869 24.6231C40.2302 24.6231 39.6771 24.8047 39.4029 25.0661C39.4173 25.0207 39.4207 24.9621 39.4064 24.8915C39.3763 24.7392 39.2819 24.5937 39.2047 24.6084C39.1274 24.6238 39.096 24.7943 39.1267 24.9466C39.1288 24.9578 39.1336 24.9662 39.1363 24.9766C39.1158 24.9746 39.096 24.9718 39.0754 24.9718C38.8027 24.9718 38.5811 25.1625 38.5811 25.3987C38.5811 25.6342 38.8027 25.8257 39.0754 25.8257Z" fill="#1F2023"/>
<path d="M34.6632 25.8257C34.6844 25.8257 34.7043 25.8222 34.7241 25.8201C34.7214 25.8313 34.7166 25.8405 34.7145 25.8523C34.6838 26.0047 34.7152 26.1744 34.7925 26.1898C34.8697 26.2051 34.9641 26.0598 34.9942 25.9074C35.0085 25.8362 35.0051 25.7775 34.9907 25.7327C35.2649 25.9941 35.818 26.1751 36.2747 26.1751C36.5065 26.1751 36.6788 26.1269 36.8053 26.0465C36.8573 26.0137 36.9222 26.0081 36.9769 26.0353C37.1239 26.1073 37.2989 26.1311 37.4815 26.0835C37.7303 26.0193 37.9286 25.8152 37.9861 25.5664C38.0927 25.1024 37.7413 24.6901 37.2921 24.6901C37.18 24.6901 37.0733 24.716 36.979 24.7628C36.9236 24.7901 36.8579 24.7852 36.806 24.7523C36.6788 24.6713 36.5065 24.6231 36.2747 24.6231C35.818 24.6231 35.2649 24.8047 34.9907 25.0661C35.0051 25.0207 35.0085 24.9621 34.9942 24.8915C34.9641 24.7392 34.8697 24.5937 34.7925 24.6084C34.7152 24.6238 34.6838 24.7943 34.7145 24.9466C34.7166 24.9578 34.7214 24.9662 34.7241 24.9766C34.7036 24.9746 34.6838 24.9718 34.6632 24.9718C34.3904 24.9718 34.1689 25.1625 34.1689 25.3987C34.1689 25.6342 34.3904 25.8257 34.6632 25.8257Z" fill="#1F2023"/>
<path d="M30.1231 25.3031L30.186 25.3338C30.1778 25.3415 30.171 25.3478 30.1614 25.3562C30.0602 25.4708 30.0103 25.6427 30.0917 25.7007C30.173 25.7566 30.3392 25.6748 30.428 25.5491C30.4704 25.4904 30.4889 25.4345 30.4916 25.3862C30.6584 25.7573 31.2622 26.1256 31.8043 26.1577C32.0847 26.1794 32.2781 26.1263 32.3944 26.0466C32.4457 26.0138 32.5106 26.0082 32.566 26.0354C32.7123 26.1074 32.8873 26.1312 33.0706 26.0836C33.3187 26.0194 33.5177 25.8153 33.5745 25.5665C33.6811 25.1025 33.3297 24.6902 32.8805 24.6902C32.7684 24.6902 32.6624 24.7161 32.5674 24.7629C32.512 24.7902 32.4463 24.7853 32.3944 24.7524C32.2563 24.6714 32.1052 24.6253 31.924 24.6106C31.55 24.5882 31.0803 24.6413 30.7494 24.7741C30.7788 24.7385 30.8034 24.6854 30.8198 24.6148C30.854 24.4631 30.8485 24.2996 30.7897 24.2898C30.7323 24.278 30.6325 24.4114 30.5826 24.5589C30.5798 24.5708 30.5778 24.5791 30.575 24.5896L30.5326 24.5589C30.3337 24.4485 30.0759 24.4715 29.9214 24.6455C29.7648 24.8202 29.8428 25.1452 30.1231 25.3031Z" fill="#1F2023"/>
<path d="M28.7379 20.8423L28.7372 20.9198C28.727 20.9149 28.7188 20.9107 28.7071 20.9052C28.5622 20.8548 28.3919 20.8821 28.3701 20.9981C28.3496 21.1092 28.4965 21.1826 28.6435 21.2203C28.7133 21.235 28.7707 21.2315 28.8152 21.2168C28.5588 21.497 28.3817 22.0624 28.3817 22.5292C28.3817 22.648 28.3933 22.7507 28.4152 22.8408C28.4377 22.9345 28.4774 23.0442 28.5205 23.1168C28.5581 23.1797 28.5642 23.2587 28.5499 23.3321C28.5102 23.5277 28.5314 23.7702 28.6627 23.9854C28.8398 24.2824 29.1536 24.3914 29.3874 24.2943C29.6055 24.2105 29.7416 24.0225 29.8195 23.8555C29.905 23.678 29.9405 23.5194 29.8981 23.3712C29.8776 23.295 29.8448 23.2238 29.784 23.1609C29.7484 23.1238 29.7553 23.0679 29.784 23.026C29.8216 22.9687 29.8462 22.9268 29.8667 22.8408C29.8886 22.7507 29.9002 22.648 29.9002 22.5292C29.9002 22.0624 29.7231 21.497 29.4674 21.2168C29.5112 21.2315 29.5686 21.235 29.6383 21.2203C29.7881 21.1966 29.9269 21.0771 29.9173 21.0302C29.907 20.989 29.7416 20.9527 29.5918 20.9639C29.5802 20.966 29.572 20.968 29.5611 20.9694C29.5645 20.9541 29.5686 20.9387 29.57 20.9226C29.5843 20.7214 29.477 20.4838 29.2664 20.3929C29.0524 20.3 28.7707 20.4859 28.7379 20.8423Z" fill="#1F2023"/>
<path d="M32.3244 17.8595L32.2608 17.8762C32.2628 17.8643 32.2642 17.856 32.2663 17.8427C32.2745 17.6869 32.2143 17.5247 32.1254 17.5254C32.0365 17.5261 31.96 17.6876 31.9593 17.8427C31.9593 17.9161 31.975 17.972 31.9989 18.0125C31.6694 17.8196 31.0014 17.8154 30.5187 18.0677C30.2753 18.1914 30.1242 18.3423 30.0456 18.4947C30.0134 18.5562 29.9533 18.5988 29.8876 18.6197C29.7085 18.6666 29.5246 18.7833 29.3995 18.9796C29.2272 19.2459 29.2402 19.5687 29.4104 19.7616C29.7379 20.0998 30.2124 20.0816 30.4661 19.8664C30.5324 19.8063 30.5878 19.7357 30.6213 19.6477C30.6397 19.5946 30.6924 19.5701 30.7464 19.5729C30.8777 19.5778 31.0199 19.5463 31.1922 19.459C31.5251 19.2836 31.9306 18.9803 32.135 18.6645C32.1309 18.712 32.1405 18.77 32.1678 18.8364C32.2266 18.9796 32.336 19.1082 32.3989 19.0816C32.4625 19.0551 32.4639 18.8818 32.4119 18.7364C32.4071 18.726 32.403 18.7183 32.3982 18.7078L32.455 18.7029C32.7031 18.661 32.8966 18.4604 32.8802 18.2214C32.8652 17.9894 32.6149 17.8112 32.3244 17.8595Z" fill="#1F2023"/>
<path d="M12.5069 5.61437C12.5897 5.59127 12.6806 5.62197 12.7367 5.68837C13.5017 6.66877 13.8532 7.20127 14.2634 7.60797C14.6504 8.00487 15.0196 8.27187 15.1331 8.24527C15.2192 8.22847 15.5036 7.79457 15.3231 7.04127C15.239 6.66947 15.0045 6.24047 14.6005 5.88127C14.1991 5.52277 13.6145 5.25447 12.9445 5.23557C12.8495 5.23487 12.7606 5.18457 12.7114 5.10277C12.3374 4.50747 11.7644 4.05737 11.9641 5.13707C11.3494 6.01827 11.9046 5.79877 12.5069 5.61437Z" fill="#1F2023"/>
<path d="M7.67244 5.81515C7.70389 5.73545 7.77637 5.67115 7.86525 5.67395C8.47583 5.66905 8.93733 5.69285 9.34613 5.67465C9.75163 5.66425 10.0941 5.60345 10.3854 5.52865C10.961 5.37145 11.3384 5.11425 11.3576 5.00455C11.3767 4.90605 11.0923 4.49585 10.41 4.30645C10.0722 4.20865 9.63813 4.18135 9.14103 4.29455C8.65013 4.40985 8.08333 4.70055 7.64373 5.22815C7.58014 5.29805 7.49194 5.34975 7.39691 5.33995C7.053 5.30575 6.6797 5.36935 6.53954 5.49925C6.39186 5.63135 6.49578 5.76485 6.98395 5.98565C7.16513 6.49575 7.32649 6.57545 7.40853 6.49015C7.49263 6.39865 7.55758 6.11425 7.67244 5.81515Z" fill="#1F2023"/>
<path d="M6.41608 10.1678C6.34293 10.1279 6.30054 10.0427 6.30737 9.95736C6.38532 9.35436 6.50291 8.89596 6.5624 8.49836C6.6212 8.10836 6.64991 7.79816 6.66427 7.52136C6.68478 6.97776 6.65059 6.52076 6.55898 6.44596C6.49676 6.38656 5.97441 6.44036 5.54162 7.10006C5.11567 7.73106 4.94338 9.01896 5.84587 10.1252C5.91356 10.1971 5.94296 10.2978 5.92313 10.3949C5.86091 10.7422 5.8951 11.1349 6.00723 11.2921C6.12688 11.4515 6.26567 11.3557 6.51727 10.8792C7.03347 10.7324 7.12304 10.5752 7.04373 10.4871C6.9651 10.39 6.69982 10.3096 6.41608 10.1678Z" fill="#1F2023"/>
<path d="M10.5327 12.8236C10.4479 12.8543 10.3515 12.8326 10.2845 12.7712C9.31912 11.9046 8.59302 11.572 8.0201 11.4106C7.46014 11.2576 7.01231 11.2687 6.93369 11.3477C6.8619 11.4148 6.88856 11.9277 7.39724 12.4546C7.89088 12.9752 8.85832 13.4203 10.1355 13.2477C10.2257 13.2365 10.316 13.2757 10.3686 13.3498C10.7508 13.8969 11.2014 14.3798 11.1002 13.2966C11.7962 12.47 11.1549 12.6006 10.5327 12.8236Z" fill="#1F2023"/>
<path d="M15.4889 14.6833C15.4007 14.6931 15.3064 14.6602 15.2476 14.5882C14.4155 13.5435 13.433 13.2312 12.7924 13.1983C12.1429 13.1676 11.7245 13.3821 11.6923 13.4869C11.6609 13.5862 11.8838 14.0075 12.4335 14.3646C12.9859 14.7315 13.7715 14.9873 15.0268 15.0348C15.117 15.0369 15.2011 15.0858 15.236 15.1717C15.5006 15.7804 15.7905 16.3345 15.9566 15.2689C16.8386 14.6406 16.1494 14.5917 15.4889 14.6833Z" fill="#1F2023"/>
<path d="M19.4693 18.2934C19.3873 18.2564 19.3182 18.1802 19.3025 18.0873C19.0536 16.74 18.2366 16.0028 17.6342 15.7148C17.0039 15.4276 16.5417 15.5157 16.4788 15.6121C16.4268 15.6939 16.5246 16.1614 16.8849 16.668C17.2404 17.2033 17.8284 17.7246 18.8957 18.3654C18.9709 18.4122 19.0229 18.4954 19.0112 18.5862C18.9675 18.9209 18.9415 19.2256 18.9996 19.3577C19.0509 19.4897 19.2218 19.4611 19.5746 19.046C20.1017 19.0195 20.2398 18.9188 20.1619 18.7595C20.0812 18.6051 19.7701 18.4283 19.4693 18.2934Z" fill="#1F2023"/>
<path d="M20.4888 23.6208C20.4492 23.5362 20.4587 23.4342 20.5107 23.3538C21.1999 22.1778 21.0454 21.0227 20.7062 20.4105C20.374 19.7718 19.9213 19.5824 19.8325 19.6223C19.7292 19.6649 19.5706 20.1031 19.546 20.7103C19.5275 21.3357 19.639 22.082 20.026 23.2861C20.0485 23.3713 20.0219 23.4664 19.9562 23.5264C19.5015 23.9646 19.0113 24.3482 20.0779 24.2532C20.8772 24.9674 20.8047 24.2546 20.4888 23.6208Z" fill="#1F2023"/>
<path d="M17.7631 28.2809C17.7849 28.1894 17.8554 28.1167 17.9442 28.0887C19.2173 27.6737 19.8408 26.7219 20.0166 26.0462C20.1697 25.3348 20.0001 24.8987 19.8901 24.8589C19.8039 24.8268 19.3595 25.0217 18.9643 25.4641C18.5192 25.9008 18.1124 26.5458 17.6209 27.7135C17.5846 27.7952 17.5053 27.8519 17.4178 27.856C16.7888 27.8875 16.1577 27.8889 17.05 28.4912C17.2407 29.5597 17.6031 28.965 17.7631 28.2809Z" fill="#1F2023"/>
<path d="M12.9311 30.5473C12.9926 30.4788 13.0883 30.4509 13.1786 30.4718C14.4715 30.7304 15.4444 30.3181 15.9565 29.8688C16.4788 29.4083 16.5903 28.931 16.5363 28.845C16.4781 28.7507 16.0269 28.6564 15.4266 28.7724C14.8099 28.8863 14.0667 29.1958 13.0733 29.9834C13.0022 30.0358 12.9051 30.0456 12.8258 30.0057C12.2501 29.7248 11.6785 29.4467 12.2077 30.3971C11.9062 31.4376 12.4771 31.0658 12.9311 30.5473Z" fill="#1F2023"/>
<path d="M7.61724 30.4656C7.70202 30.4279 7.80116 30.4398 7.87568 30.495C8.40353 30.908 8.94773 31.0827 9.42083 31.1854C9.89813 31.2434 10.3124 31.2385 10.6392 31.1344C11.2969 30.945 11.6032 30.5851 11.5916 30.4684C11.582 30.3727 11.2183 30.0673 10.618 29.9122C10.0068 29.7424 9.19453 29.7263 7.97892 30.0065C7.89277 30.0268 7.79979 29.9967 7.74373 29.9282C7.34239 29.4146 6.94653 28.9283 7.02515 30.0086C6.30931 30.8241 6.99507 30.7291 7.61724 30.4656Z" fill="#1F2023"/>
<path d="M2.95885 27.8449C3.05047 27.8589 3.12771 27.9239 3.16258 28.0119C3.68835 29.262 4.62709 29.8288 5.28824 29.9636C5.96374 30.1132 6.40472 29.9021 6.43754 29.8085C6.47651 29.7023 6.26867 29.2872 5.81811 28.8672C5.35319 28.4396 4.68383 28.0364 3.49965 27.6492C3.41624 27.6192 3.35402 27.5437 3.3424 27.4557C3.25625 26.8163 3.20225 26.1797 2.69084 27.137C1.66254 27.4221 2.27993 27.7429 2.95885 27.8449Z" fill="#1F2023"/>
<path d="M0.493758 23.0294C0.561448 23.093 0.590157 23.1908 0.571017 23.2838C0.323517 24.6143 0.776818 25.6289 1.2602 26.1202C1.74221 26.6331 2.22627 26.7023 2.30285 26.6422C2.3931 26.5744 2.44027 26.1118 2.29738 25.5101C2.14218 24.8973 1.82152 24.1768 1.04893 23.1748C0.996288 23.1028 0.985348 23.0036 1.02432 22.9232C1.29301 22.3432 1.59795 21.7695 0.652378 22.2894C-0.354722 21.9568 -0.0224423 22.5605 0.493758 23.0294Z" fill="#1F2023"/>
<path d="M15.4236 5.04017C15.5152 5.04157 15.5815 5.11068 15.6123 5.19388C16.0129 6.37698 16.3001 7.04707 16.6816 7.53767C17.0378 8.01907 17.4159 8.27697 17.5205 8.25177C17.6183 8.22877 17.8801 7.81227 17.7974 7.09667C17.7885 6.91497 17.7249 6.72847 17.6518 6.52437C17.5779 6.32107 17.4795 6.10508 17.3215 5.90248C17.1738 5.69488 16.9988 5.48387 16.7602 5.30707C16.5394 5.11697 16.2645 4.95977 15.9568 4.83887C15.8693 4.80537 15.8119 4.71938 15.7887 4.63278C15.6451 3.95208 15.2923 3.32457 15.0838 4.39727C14.1936 4.98707 14.7904 4.99957 15.4236 5.04017Z" fill="#1F2023"/>
<path d="M10.8531 3.14486C10.9262 3.09666 11.022 3.09596 11.0978 3.14146C12.1569 3.80036 12.8755 4.07566 13.4812 4.15466C14.0747 4.22876 14.5089 4.15186 14.5738 4.04566C14.6217 3.97296 14.5198 3.46986 13.966 3.03726C13.4348 2.60546 12.4071 2.22809 11.1478 2.64386C11.0602 2.67396 10.9625 2.65576 10.8934 2.59356C10.3806 2.14423 9.73801 1.85633 10.1974 2.84306C9.82681 3.85976 10.3212 3.50546 10.8531 3.14486Z" fill="#1F2023"/>
<path d="M6.11109 4.45106C6.13434 4.36586 6.20065 4.29386 6.2909 4.28686C7.50585 4.13246 8.22242 3.92486 8.76452 3.62446C9.29032 3.33926 9.59112 2.98926 9.58222 2.87666C9.57542 2.77746 9.20622 2.45883 8.50752 2.43018C7.83608 2.39524 6.76061 2.72786 6.01811 3.87106C5.96478 3.94516 5.88342 4.00526 5.79111 4.00596C5.45268 4.00386 5.10194 4.06956 4.97477 4.19606C4.84008 4.31836 4.93922 4.45596 5.43149 4.67056C5.62224 5.17506 5.77744 5.25886 5.86906 5.16316C5.95794 5.05836 6.02289 4.76416 6.11109 4.45106Z" fill="#1F2023"/>
<path d="M4.19539 8.84119C4.13933 8.77479 4.12634 8.67769 4.16052 8.59519C4.65348 7.43659 4.88594 6.80909 5.00217 6.22489C5.05276 5.93979 5.08763 5.69379 5.07327 5.48979C5.08011 5.29969 5.05071 5.16349 5.00969 5.12779C4.93311 5.05859 4.44153 5.09289 3.94652 5.64979C3.8344 5.79239 3.70791 5.95869 3.61083 6.16059C3.5281 6.36819 3.43922 6.60089 3.39683 6.86149C3.32299 7.38349 3.37837 8.01239 3.67168 8.61269C3.71201 8.69729 3.70654 8.79929 3.65595 8.87829C3.47477 9.16619 3.34691 9.49599 3.35922 9.67069C3.39067 9.84819 3.55818 9.84329 3.99985 9.54699C4.52289 9.66649 4.67809 9.58329 4.64322 9.45059C4.62545 9.30869 4.40803 9.08719 4.19539 8.84119Z" fill="#1F2023"/>
<path d="M6.54473 13.0891C6.45653 13.0961 6.37038 13.0507 6.33278 12.9682C5.75846 11.8502 5.40362 11.2604 5.0057 10.8132C4.61873 10.3827 4.24884 10.1276 4.13056 10.1612C4.0492 10.1808 3.77845 10.6154 3.92613 11.3408C3.9986 11.6992 4.18867 12.1178 4.53258 12.5091C4.89221 12.8802 5.39405 13.2268 6.04083 13.3694C6.12835 13.3952 6.20697 13.4567 6.23774 13.5441C6.46473 14.2037 6.87496 14.7676 6.9652 13.6824C7.78907 12.9941 7.17305 13.0493 6.54473 13.0891Z" fill="#1F2023"/>
<path d="M11.2815 15.0298C11.1967 15.0598 11.101 15.0389 11.034 14.9774C10.0625 14.0871 9.20713 13.8565 8.60413 13.7936C7.99291 13.7335 7.56012 13.8761 7.51021 13.976C7.46509 14.0669 7.62301 14.5309 8.17542 14.9355C8.73402 15.3464 9.64473 15.6119 10.8856 15.454C10.9745 15.4428 11.0648 15.4812 11.116 15.556C11.49 16.1004 11.9228 16.5769 11.8442 15.5008C12.5552 14.6804 11.905 14.8076 11.2815 15.0298Z" fill="#1F2023"/>
<path d="M16.0441 17.3261C15.9525 17.3219 15.8725 17.2611 15.8267 17.1808C15.1635 16.0005 14.209 15.5609 13.5643 15.4631C12.8799 15.3436 12.4711 15.5966 12.4314 15.6909C12.389 15.7929 12.6372 16.1927 13.0973 16.5889C13.5937 17.0005 14.3232 17.3387 15.5306 17.5791C15.6182 17.5958 15.6831 17.6685 15.7029 17.7552C15.8431 18.3862 15.9477 18.9829 16.3778 18.0011C17.3903 17.6231 16.723 17.3617 16.0441 17.3261Z" fill="#1F2023"/>
<path d="M18.3693 22.1384C18.3126 22.0643 18.2989 21.9637 18.3324 21.875C18.8055 20.5878 18.344 19.4592 17.8593 18.9582C17.3609 18.4278 16.872 18.3929 16.7947 18.462C16.7147 18.5298 16.6936 18.9973 16.8241 19.571C16.9479 20.1678 17.2508 20.8093 17.8442 21.9078C17.8846 21.9861 17.8798 22.0846 17.8292 22.1566C17.6548 22.4235 17.4415 22.6604 17.4347 22.8002C17.4224 22.9364 17.5844 23.0049 18.0842 22.8379C18.5608 23.0936 18.7276 23.0839 18.7324 22.9022C18.7324 22.7247 18.5915 22.4053 18.3693 22.1384Z" fill="#1F2023"/>
<path d="M16.1202 26.9706C16.1468 26.879 16.2193 26.8085 16.3095 26.784C16.957 26.6156 17.4465 26.2341 17.7802 25.835C17.9313 25.6226 18.0674 25.4179 18.1514 25.2117C18.2294 25.0014 18.282 24.8036 18.3142 24.6247C18.3955 23.8833 18.1145 23.4801 18.0065 23.4619C17.9566 23.4522 17.8363 23.5171 17.6975 23.645C17.5484 23.7701 17.3611 23.9497 17.1984 24.1845C16.8216 24.6534 16.5276 25.2718 16.0019 26.3948C15.9643 26.4744 15.8843 26.5276 15.7988 26.5262C15.1657 26.4947 14.5777 26.4556 15.3954 27.1299C15.4959 28.2277 15.9055 27.6296 16.1202 26.9706Z" fill="#1F2023"/>
<path d="M11.0823 28.6039C11.1528 28.5466 11.2505 28.5361 11.336 28.5633C12.5667 29.0155 13.5936 28.7604 14.1583 28.3705C14.7374 27.9777 14.9015 27.5249 14.8509 27.4229C14.8078 27.3342 14.3682 27.179 13.7707 27.214C13.1601 27.2503 12.3909 27.4369 11.3018 28.0644C11.2252 28.1126 11.1281 28.1049 11.0557 28.0518C10.5251 27.6773 10.011 27.3321 10.3925 28.346C9.94602 29.3355 10.5668 29.0378 11.0823 28.6039Z" fill="#1F2023"/>
<path d="M5.93264 27.4064C6.02357 27.398 6.11314 27.4427 6.16783 27.5203C6.98828 28.5943 8.05691 28.8675 8.72353 28.8053C9.41343 28.7431 9.77093 28.4357 9.77713 28.3218C9.78323 28.2225 9.47223 27.862 8.93003 27.6013C8.37213 27.3239 7.63165 27.1415 6.40371 27.0821C6.31825 27.0737 6.24099 27.015 6.20954 26.9319C6.08921 26.6321 5.9887 26.3386 5.88341 26.2443C5.77675 26.1569 5.63591 26.2617 5.50806 26.7879C5.04587 27.0618 4.96724 27.2135 5.11082 27.3148C5.24825 27.4203 5.59557 27.4455 5.93264 27.4064Z" fill="#1F2023"/>
<path d="M2.83567 23.0562C2.90131 23.1205 2.92319 23.219 2.91498 23.3112C2.69551 24.6732 3.3464 25.6836 3.89952 26.0882C4.47451 26.5166 4.96405 26.4705 5.029 26.3929C5.09942 26.3105 5.04883 25.8514 4.81705 25.3035C4.58869 24.727 4.17915 24.1463 3.39016 23.1924C3.32794 23.1254 3.32452 23.0261 3.36554 22.9465C3.64996 22.3755 3.96173 21.848 3.00181 22.3182C2.00155 21.9416 2.33041 22.5789 2.83567 23.0562Z" fill="#1F2023"/>
<path d="M18.1846 4.73217C18.2687 4.75737 18.3316 4.83137 18.3473 4.91877C18.5415 6.16817 18.7637 6.89917 19.0857 7.43087C19.3838 7.95287 19.7325 8.25267 19.8364 8.24217C19.939 8.23177 20.2439 7.84807 20.2446 7.12697C20.2412 6.43447 19.8829 5.35337 18.7514 4.63647C18.6714 4.58817 18.6208 4.50087 18.6215 4.40727C18.6345 3.70427 18.4218 3.03897 17.9836 4.02707C16.9765 4.39467 17.5857 4.54487 18.1846 4.73217Z" fill="#1F2023"/>
<path d="M14.2193 1.64154C14.3027 1.61848 14.3944 1.64853 14.4532 1.71631C15.2736 2.67226 15.9204 3.11666 16.4783 3.38016C17.0355 3.61986 17.4833 3.64636 17.5681 3.56116C17.6338 3.49896 17.6474 2.99646 17.2338 2.43257C16.8489 1.86026 15.958 1.24322 14.6432 1.2551C14.5516 1.2565 14.4641 1.20828 14.4162 1.12722C14.0511 0.557014 13.5466 0.0657539 13.6778 1.15867C13.0174 1.99583 13.6033 1.84 14.2193 1.64154Z" fill="#1F2023"/>
<path d="M9.23772 1.08825C9.29922 1.02466 9.39292 1.00369 9.47702 1.03095C10.6612 1.44603 11.4481 1.47886 12.0593 1.41388C12.6637 1.30976 13.0548 1.11339 13.0842 0.991105C13.1068 0.907255 12.8661 0.450945 12.2262 0.202865C11.6081 -0.085735 10.5456 -0.139545 9.41822 0.534795C9.33962 0.583015 9.24042 0.586505 9.15972 0.541785C8.56562 0.212655 7.89763 0.0610153 8.53282 0.937305C8.35912 2.00926 8.79332 1.55434 9.23772 1.08825Z" fill="#1F2023"/>
<path d="M4.64341 3.09786C4.66392 3.01266 4.73502 2.94556 4.82049 2.92666C6.03406 2.66816 6.73555 2.33271 7.23875 1.96095C7.72282 1.5871 7.96485 1.19717 7.93408 1.08187C7.91152 0.991734 7.49241 0.735973 6.81007 0.819123C6.14072 0.879923 5.16097 1.34951 4.52034 2.53117C4.47658 2.61366 4.39249 2.66816 4.2995 2.67166C3.63426 2.72476 2.95875 2.94906 3.96927 3.34876C4.37744 4.33336 4.5176 3.74496 4.64341 3.09786Z" fill="#1F2023"/>
<path d="M2.11365 7.40304C2.07262 7.32404 2.07946 7.22624 2.12937 7.15424C2.88487 6.16334 3.27868 5.52323 3.45645 4.92293C3.63421 4.34153 3.63011 3.88383 3.54601 3.80703C3.47559 3.74133 2.98332 3.75883 2.46439 4.23953C1.95981 4.69513 1.38823 5.70074 1.65146 7.04734C1.67334 7.14094 1.64736 7.23954 1.58172 7.30374C1.07236 7.78454 0.763335 8.41764 1.75607 8.03824C2.72283 8.50854 2.39328 7.97114 2.11365 7.40304Z" fill="#1F2023"/>
<path d="M3.04632 12.2983C2.96428 12.2689 2.89727 12.1969 2.89317 12.1047C2.78925 10.8476 2.6361 10.1271 2.38586 9.56038C2.14383 9.01178 1.83753 8.66868 1.7213 8.66798C1.63037 8.66588 1.27689 9.01178 1.201 9.72948C1.11212 10.4206 1.3897 11.5652 2.47406 12.3632C2.54517 12.4205 2.59918 12.5058 2.59371 12.6001C2.55474 13.301 2.74207 13.9858 3.21588 13.0096C4.2305 12.6798 3.6391 12.5086 3.04632 12.2983Z" fill="#1F2023"/>
<path d="M6.91296 15.5221C6.82749 15.5403 6.73725 15.5053 6.68118 15.4348C5.89355 14.4383 5.25976 13.9561 4.69843 13.6983C4.14942 13.4425 3.70091 13.4083 3.61681 13.4858C3.54571 13.5508 3.52109 14.049 3.92106 14.6276C4.31009 15.1944 5.15857 15.8387 6.46718 15.8841C6.55811 15.8876 6.64289 15.9407 6.68597 16.0231C7.01141 16.6129 7.4565 17.1454 7.42164 16.0462C8.15322 15.2719 7.5447 15.3656 6.91296 15.5221Z" fill="#1F2023"/>
<path d="M11.8005 17.2577C11.7157 17.2877 11.6207 17.2654 11.5544 17.2032C9.66253 15.4345 8.06885 16.0753 7.99911 16.2703C7.92527 16.4778 8.86943 17.9739 11.4039 17.679C11.4928 17.6686 11.5831 17.7084 11.6343 17.7839C12.0097 18.3331 12.3851 18.8209 12.3584 17.744C13.1112 16.9586 12.4213 17.0389 11.8005 17.2577Z" fill="#1F2023"/>
<path d="M15.9393 20.5563C15.8613 20.5018 15.8244 20.4061 15.8182 20.3117C15.8135 19.6171 15.5195 19.0113 15.1701 18.6178C14.8207 18.2118 14.4228 18.0043 14.0905 17.8946C13.4136 17.687 12.9699 17.8834 12.9303 17.9756C12.8851 18.077 13.0773 18.5032 13.4779 18.9449C13.6755 19.172 13.9305 19.3928 14.232 19.6325C14.5383 19.8729 14.9069 20.1133 15.3697 20.5109C15.4402 20.5647 15.4572 20.6611 15.4306 20.7429C15.3308 21.0455 15.2056 21.3131 15.2207 21.4487C15.2371 21.5779 15.4108 21.6073 15.8593 21.3173C16.3782 21.4445 16.5389 21.3969 16.5019 21.2125C16.4691 21.0343 16.2244 20.7541 15.9393 20.5563Z" fill="#1F2023"/>
<path d="M14.5146 25.6158C14.5515 25.5312 14.6274 25.4634 14.7177 25.4369C15.3754 25.2748 15.8937 24.8303 16.1774 24.3516C16.4618 23.8653 16.5268 23.3761 16.494 23.0037C16.4119 22.2462 16.0318 21.9366 15.934 21.9415C15.8273 21.945 15.5409 22.323 15.3091 22.8346C15.0363 23.3663 14.944 23.938 14.4223 25.0379C14.3861 25.1189 14.3047 25.1678 14.2165 25.1546C13.9041 25.1273 13.6142 25.0665 13.4911 25.1217C13.3722 25.1713 13.3879 25.3502 13.7742 25.7206C13.7837 26.267 13.8692 26.4138 14.0333 26.3313C14.1912 26.2482 14.3936 25.9449 14.5146 25.6158Z" fill="#1F2023"/>
<path d="M9.28213 26.4608C9.36483 26.4189 9.46403 26.4273 9.54263 26.479C10.6864 27.1736 11.7489 27.0751 12.3745 26.7899C13.0165 26.4951 13.236 26.0478 13.2004 25.9507C13.1642 25.848 12.756 25.6509 12.1673 25.5852C11.5643 25.5118 10.7787 25.5852 9.61103 25.9835C9.52753 26.008 9.43463 25.9828 9.37643 25.9164C8.95463 25.4378 8.60043 24.9577 8.66953 26.0359C7.94958 26.85 8.66743 26.7704 9.28213 26.4608Z" fill="#1F2023"/>
<path d="M5.30257 23.0319C5.37846 23.0858 5.42017 23.1787 5.41402 23.2744C5.38735 23.9516 5.58836 24.5567 5.88372 25.0005C6.18797 25.4414 6.56948 25.7195 6.90997 25.8537C7.60051 26.1262 8.05517 25.9152 8.09073 25.8229C8.13313 25.7216 7.93689 25.3023 7.59504 24.8509C7.2443 24.3764 6.77186 23.9439 5.87005 23.0927C5.8092 23.0313 5.78595 22.9362 5.81399 22.8524C6.02662 22.2479 6.24814 21.6742 5.36958 22.2779C4.32077 22.0515 4.74535 22.6253 5.30257 23.0319Z" fill="#1F2023"/>
<path d="M9.65744 7.07977C9.71214 7.01547 9.80374 7.00367 9.88034 7.02807C10.9872 7.45157 11.4685 7.77017 11.904 7.98057C12.3245 8.19437 12.6821 8.42777 12.784 8.39427C12.8544 8.38447 13.108 7.90087 12.6855 7.19717C12.477 6.86597 12.0859 6.52497 11.5642 6.38377C11.0473 6.23287 10.4217 6.27547 9.84204 6.57247C9.76064 6.61787 9.66154 6.61367 9.57944 6.58087C9.28274 6.43337 8.91694 6.38377 8.73714 6.45647C8.55044 6.53897 8.61134 6.68217 8.98394 7.00997C8.98944 7.51237 9.11794 7.62347 9.20614 7.57527C9.30594 7.52847 9.44614 7.29577 9.65744 7.07977Z" fill="#1F2023"/>
<path d="M9.23302 10.3165C9.14412 10.3388 9.04973 10.3032 8.98893 10.234C8.77973 9.98255 8.61083 9.75475 8.53773 9.57095C8.46243 9.38575 8.46182 9.27045 8.45082 9.13065C8.43782 8.83365 8.43583 8.48985 8.43783 8.25575C8.42833 7.76315 8.52742 7.29495 8.45292 7.20205C8.42212 7.16425 8.28472 7.13285 8.06386 7.19715C7.84781 7.26145 7.54289 7.45145 7.31248 7.84145C7.08754 8.24185 6.94943 8.75895 7.11763 9.43395C7.20582 9.77635 7.44854 10.1523 7.76715 10.3647C8.08373 10.5841 8.43103 10.6631 8.77833 10.6854C8.87753 10.6889 8.97112 10.7448 9.02312 10.8259C9.41352 11.4276 9.91812 11.9265 9.80322 10.8315C10.5272 10.0223 9.87432 10.1509 9.23302 10.3165Z" fill="#1F2023"/>
<path d="M14.4954 12.0783C14.4038 12.1035 14.3026 12.0762 14.2322 12.0105C13.221 11.0553 12.2351 10.8212 11.5753 10.7688C10.8971 10.7282 10.4602 10.9372 10.4274 11.042C10.3966 11.1405 10.6386 11.5682 11.23 11.9392C11.8303 12.3306 12.7472 12.5633 14.0661 12.4808C14.1604 12.4745 14.2541 12.5185 14.3067 12.5961C14.6787 13.1796 15.0971 13.6974 15.0718 12.6087C15.8683 11.8554 15.162 11.9113 14.4954 12.0783Z" fill="#1F2023"/>
<path d="M11.2736 19.1509C11.1834 19.1788 11.0808 19.1544 11.0076 19.0901C8.93743 17.2606 7.23088 17.8637 7.16387 18.0726C7.10029 18.2697 8.13953 19.7986 10.8572 19.5659C10.9529 19.5576 11.0507 19.5995 11.1075 19.6771C11.5348 20.234 11.8684 20.7448 11.8814 19.6631C12.7224 18.9363 11.9313 18.9314 11.2736 19.1509Z" fill="#1F2023"/>
<path d="M7.88059 23.2887C7.96537 23.3376 8.04468 23.4208 8.06998 23.5256C8.27852 24.267 8.91432 24.7834 9.46612 24.9672C10.0295 25.1664 10.521 25.1363 10.8909 25.0469C11.6478 24.8596 11.9377 24.4012 11.9062 24.3062C11.8748 24.2 11.4659 23.9882 10.8663 23.8247C10.5621 23.7422 10.2106 23.6814 9.82642 23.6207C9.43942 23.5515 9.01962 23.5088 8.45832 23.2209C8.38382 23.1762 8.32632 23.0938 8.34142 23.0001C8.37152 22.6745 8.46722 22.381 8.42622 22.2496C8.39612 22.1182 8.21762 22.1022 7.81017 22.4641C7.27756 22.3859 7.12305 22.4509 7.18458 22.6514C7.25432 22.8429 7.54147 23.1266 7.88059 23.2887Z" fill="#1F2023"/>
</svg>
