<svg viewBox="0 0 214 43" fill="none" xmlns="http://www.w3.org/2000/svg">
<path d="M92.6741 24.6574H79.5435V37.1889H75.6279V8.89258H79.5435V21.1005H92.6741V8.89258H96.5897V37.1889H92.6741V24.6574Z" fill="#ffffff"/>
<path d="M104.021 8.89258H107.936V33.5908H121.501V37.1882H104.021V8.89258Z" fill="#ffffff"/>
<path d="M125.708 8.89216H129.624V37.1878H125.708V8.89216ZM128.675 0H132.709L129.189 6.06204H125.788L128.675 0Z" fill="#ffffff"/>
<path d="M137.019 8.89258H145.206C154.223 8.89258 159.681 14.2286 159.681 23.0404C159.681 31.8522 154.223 37.1882 145.206 37.1882H137.019V8.89258ZM145.206 33.5908C151.85 33.5908 155.686 29.7097 155.686 23.0404C155.686 16.3711 151.85 12.49 145.206 12.49H140.934V33.5908H145.206Z" fill="#ffffff"/>
<path d="M166.005 8.89258H169.92V20.8573H171.977L180.797 8.89258H185.542L175.418 22.5149V22.7574L186.136 37.1882H181.39L171.977 24.4554H169.92V37.1882H166.005V8.89258Z" fill="#ffffff"/>
<path d="M198.75 8.89258H204.011L213.661 37.1882H209.547L207.096 29.8313H195.666L193.213 37.1882H189.101L198.75 8.89258ZM205.87 26.2332L201.479 13.258H201.243L196.891 26.2332H205.87Z" fill="#ffffff"/>
<path d="M67.1955 10.496C67.4902 8.9412 65.9593 7.26898 64.2617 8.02578C64.2077 8.04115 64.1386 8.10614 64.2049 8.15715C65.506 8.93631 66.0804 10.7434 65.5054 12.2549C65.4958 12.2968 65.5101 12.3164 65.532 12.3255C65.5416 12.3485 65.5594 12.3639 65.5936 12.3527C66.9548 11.7147 68.5841 12.3506 69.2863 13.795C69.3362 13.8705 69.3881 13.7901 69.4045 13.7314C70.0807 11.851 68.5943 10.169 67.1955 10.496Z" fill="#ffffff"/>
<path d="M49.3019 10.496C49.5966 8.9412 48.0658 7.26898 46.3681 8.02578C46.3141 8.04115 46.2451 8.10614 46.3114 8.15715C47.6125 8.93631 48.1868 10.7434 47.6118 12.2549C47.6022 12.2968 47.6166 12.3164 47.6385 12.3255C47.648 12.3485 47.6658 12.3639 47.7 12.3527C49.0613 11.7147 50.6905 12.3506 51.3927 13.795C51.4426 13.8705 51.4946 13.7901 51.511 13.7314C52.1872 11.851 50.7008 10.169 49.3019 10.496Z" fill="#ffffff"/>
<path d="M51.216 16.5898C51.5107 15.035 49.9798 13.3627 48.2822 14.1195C48.2282 14.1349 48.1591 14.1999 48.2255 14.2509C49.5265 15.0301 50.1009 16.8371 49.5259 18.3486C49.5163 18.3906 49.5307 18.4101 49.5525 18.4192C49.5621 18.4423 49.5799 18.4576 49.6141 18.4465C50.9753 17.8085 52.6046 18.4444 53.3068 19.8888C53.3567 19.9643 53.4086 19.8839 53.425 19.8252C54.1012 17.9447 52.6148 16.2627 51.216 16.5898Z" fill="#ffffff"/>
<path d="M53.13 22.6816C53.4247 21.1267 51.8939 19.4545 50.1963 20.2113C50.1423 20.2267 50.0732 20.2917 50.1395 20.3427C51.4406 21.1219 52.0149 22.9289 51.4399 24.4404C51.4304 24.4824 51.4447 24.5019 51.4666 24.511C51.4762 24.5341 51.4939 24.5494 51.5281 24.5383C52.8894 23.9003 54.5187 24.5362 55.2208 25.9806C55.2707 26.056 55.3227 25.9757 55.3391 25.917C56.0153 24.0365 54.5289 22.3545 53.13 22.6816Z" fill="#ffffff"/>
<path d="M55.0441 28.7734C55.3388 27.2185 53.808 25.5463 52.1103 26.3031C52.0563 26.3185 51.9873 26.3835 52.0536 26.4345C53.3547 27.2137 53.929 29.0207 53.354 30.5322C53.3444 30.5742 53.3588 30.5937 53.3807 30.6028C53.3902 30.6259 53.408 30.6412 53.4422 30.6301C54.8034 29.9921 56.4327 30.628 57.1349 32.0724C57.1848 32.1478 57.2368 32.0675 57.2532 32.0088C57.9294 30.1283 56.443 28.4463 55.0441 28.7734Z" fill="#ffffff"/>
<path d="M58.0138 34.8671C58.3085 33.3123 56.7777 31.6401 55.0801 32.3969C55.026 32.4122 54.957 32.4772 55.0233 32.5282C56.3244 33.3074 56.8987 35.1145 56.3237 36.626C56.3141 36.6679 56.3285 36.6875 56.3504 36.6966C56.36 36.7196 56.3777 36.735 56.4119 36.7238C57.7732 36.0858 59.4024 36.7217 60.1046 38.1661C60.1545 38.2416 60.2065 38.1612 60.2229 38.1025C60.8991 36.2214 59.4127 34.5401 58.0138 34.8671Z" fill="#ffffff"/>
<path d="M55.0441 12.912C55.3388 11.3572 53.808 9.685 52.1103 10.4418C52.0563 10.4572 51.9873 10.5222 52.0536 10.5732C53.3547 11.3523 53.929 13.1594 53.354 14.6709C53.3444 14.7128 53.3588 14.7324 53.3807 14.7415C53.3902 14.7645 53.408 14.7799 53.4422 14.7687C54.8034 14.1307 56.4327 14.7666 57.1349 16.211C57.1848 16.2865 57.2368 16.2062 57.2532 16.1475C57.9294 14.267 56.443 12.585 55.0441 12.912Z" fill="#ffffff"/>
<path d="M58.5236 4.27336C58.8183 2.71854 57.2875 1.04633 55.5898 1.80312C55.5358 1.8185 55.4668 1.88279 55.5331 1.9345C56.8342 2.71365 57.4085 4.52074 56.8335 6.03223C56.8239 6.07416 56.8383 6.09373 56.8601 6.10281C56.8697 6.12587 56.8875 6.14124 56.9217 6.13006C58.2829 5.49206 59.9122 6.12797 60.6144 7.57238C60.6643 7.64785 60.7162 7.56748 60.7327 7.50879C61.4088 5.62763 59.9225 3.94633 58.5236 4.27336Z" fill="#ffffff"/>
<path d="M69.3488 34.0273C69.6435 32.4725 68.1127 30.8002 66.415 31.557C66.361 31.5724 66.2919 31.6374 66.3583 31.6884C67.6594 32.4676 68.2337 34.2746 67.6587 35.7861C67.6491 35.8281 67.6635 35.8476 67.6853 35.8567C67.6949 35.8798 67.7127 35.8951 67.7469 35.884C69.1081 35.246 70.7374 35.8819 71.4396 37.3263C71.4895 37.4018 71.5414 37.3214 71.5579 37.2627C72.234 35.3815 70.7477 33.7002 69.3488 34.0273Z" fill="#ffffff"/>
<path d="M51.9992 38.912C52.2939 37.3572 50.763 35.685 49.0654 36.4418C49.0114 36.4572 48.9423 36.5222 49.0087 36.5732C50.3098 37.3523 50.8841 39.1594 50.3091 40.6709C50.2995 40.7128 50.3139 40.7324 50.3357 40.7415C50.3453 40.7645 50.3631 40.7799 50.3973 40.7687C51.7585 40.1307 53.3878 40.7666 54.09 42.211C54.1399 42.2865 54.1918 42.2062 54.2082 42.1475C54.8844 40.2663 53.3981 38.585 51.9992 38.912Z" fill="#ffffff"/>
<path d="M60.7121 29.9921C61.0068 28.4373 59.4759 26.7651 57.7783 27.5219C57.7243 27.5372 57.6552 27.6015 57.7215 27.6532C59.0226 28.4324 59.597 30.2395 59.022 31.751C59.0124 31.7929 59.0267 31.8125 59.0486 31.8216C59.0582 31.8446 59.076 31.86 59.1102 31.8488C60.4714 31.2108 62.1007 31.8467 62.8029 33.2911C62.8528 33.3666 62.9047 33.2862 62.9211 33.2275C63.5973 31.3464 62.1109 29.6651 60.7121 29.9921Z" fill="#ffffff"/>
<path d="M62.3332 25.1191C62.6279 23.5642 61.097 21.892 59.3994 22.6488C59.3454 22.6642 59.2763 22.7292 59.3426 22.7802C60.6437 23.5594 61.218 25.3664 60.6431 26.8779C60.6335 26.9199 60.6478 26.9394 60.6697 26.9485C60.6793 26.9716 60.6971 26.9869 60.7313 26.9758C62.0925 26.3378 63.7218 26.9737 64.4239 28.4181C64.4739 28.4935 64.5258 28.4132 64.5422 28.3545C65.2184 26.4733 63.732 24.792 62.3332 25.1191Z" fill="#ffffff"/>
<path d="M63.9533 20.2441C64.248 18.6892 62.7172 17.017 61.0195 17.7738C60.9655 17.7892 60.8964 17.8542 60.9628 17.9052C62.2639 18.6844 62.8382 20.4914 62.2632 22.0029C62.2536 22.0449 62.268 22.0644 62.2898 22.0735C62.2994 22.0966 62.3172 22.1119 62.3514 22.1008C63.7126 21.4628 65.3419 22.0987 66.0441 23.5431C66.094 23.6185 66.1459 23.5382 66.1623 23.4795C66.8385 21.5983 65.3522 19.917 63.9533 20.2441Z" fill="#ffffff"/>
<path d="M65.5744 15.371C65.8691 13.8162 64.3382 12.144 62.6406 12.9008C62.5866 12.9162 62.5175 12.9811 62.5839 13.0322C63.8849 13.8113 64.4593 15.6184 63.8843 17.1299C63.8747 17.1718 63.889 17.1914 63.9109 17.2005C63.9205 17.2235 63.9383 17.2389 63.9725 17.2277C65.3337 16.5897 66.963 17.2256 67.6652 18.67C67.7151 18.7455 67.767 18.6651 67.7834 18.6064C68.4596 16.7253 66.9732 15.044 65.5744 15.371Z" fill="#ffffff"/>
<path d="M40.4104 9.35318C40.4303 9.35318 40.4487 9.34969 40.4679 9.34759C40.4644 9.35877 40.4603 9.36716 40.4583 9.37974C40.4296 9.53207 40.459 9.70188 40.5314 9.71725C40.6039 9.73263 40.6914 9.58728 40.7201 9.43494C40.7331 9.36366 40.7304 9.30497 40.7167 9.26024C40.9731 9.52159 41.4907 9.70258 41.918 9.70258C42.1347 9.70258 42.2954 9.65436 42.4144 9.574C42.4629 9.54116 42.5238 9.53557 42.575 9.56212C42.7125 9.6348 42.8759 9.65856 43.0468 9.61104C43.2793 9.54675 43.4652 9.3427 43.5186 9.09393C43.6184 8.62993 43.2895 8.21764 42.8697 8.21764C42.7644 8.21764 42.6653 8.2435 42.5764 8.29031C42.5244 8.31757 42.4636 8.31268 42.4144 8.27983C42.2954 8.19877 42.1347 8.15056 41.918 8.15056C41.4907 8.15056 40.9731 8.33154 40.7167 8.59359C40.7304 8.54817 40.7331 8.48947 40.7201 8.41819C40.6914 8.26656 40.6039 8.12051 40.5314 8.13588C40.459 8.15125 40.4296 8.32176 40.4583 8.4741C40.4603 8.48528 40.4644 8.49366 40.4672 8.50415C40.4487 8.50205 40.4296 8.49925 40.4104 8.49925C40.1554 8.49925 39.9482 8.69003 39.9482 8.92622C39.9482 9.16171 40.1554 9.35318 40.4104 9.35318Z" fill="#ffffff"/>
<path d="M36.2835 9.35318C36.3033 9.35318 36.3218 9.34969 36.3409 9.34759C36.3375 9.35877 36.3334 9.36716 36.3313 9.37974C36.3026 9.53207 36.332 9.70188 36.4045 9.71725C36.477 9.73263 36.5645 9.58728 36.5932 9.43494C36.6062 9.36366 36.6034 9.30497 36.5898 9.26024C36.8462 9.52159 37.3637 9.70258 37.791 9.70258C38.0078 9.70258 38.1685 9.65436 38.2874 9.574C38.336 9.54116 38.3968 9.53557 38.4481 9.56212C38.5848 9.6348 38.7489 9.65856 38.9198 9.61104C39.1523 9.54675 39.3383 9.3427 39.3916 9.09393C39.4914 8.62993 39.1626 8.21764 38.7428 8.21764C38.6375 8.21764 38.5383 8.2435 38.4495 8.29031C38.3975 8.31757 38.3366 8.31268 38.2874 8.27983C38.1685 8.19877 38.0078 8.15056 37.791 8.15056C37.3637 8.15056 36.8462 8.33154 36.5898 8.59359C36.6034 8.54817 36.6062 8.48947 36.5932 8.41819C36.5645 8.26656 36.477 8.12051 36.4045 8.13588C36.332 8.15125 36.3026 8.32176 36.3313 8.4741C36.3334 8.48528 36.3375 8.49366 36.3402 8.50415C36.3218 8.50205 36.3026 8.49925 36.2835 8.49925C36.0285 8.49925 35.8213 8.69003 35.8213 8.92622C35.8213 9.16171 36.0285 9.35318 36.2835 9.35318Z" fill="#ffffff"/>
<path d="M32.1829 9.39075L32.2383 9.38237C32.2356 9.39355 32.2335 9.40193 32.2308 9.41451C32.2123 9.56825 32.2506 9.73666 32.3196 9.74784C32.3894 9.75902 32.4666 9.60878 32.4878 9.45504C32.4974 9.38307 32.4919 9.32507 32.4769 9.28034C32.7435 9.52911 33.2351 9.70311 33.6645 9.70241C33.8805 9.70241 34.0419 9.6542 34.1602 9.57384C34.2087 9.54099 34.2696 9.5354 34.3209 9.56196C34.4583 9.63463 34.6217 9.65839 34.7933 9.61087C35.0251 9.54658 35.211 9.34254 35.2651 9.09376C35.3642 8.62907 35.0353 8.21747 34.6155 8.21747C34.5102 8.21747 34.4111 8.24333 34.3229 8.28945C34.2709 8.3167 34.2094 8.31251 34.1609 8.27897C34.0419 8.19861 33.8812 8.15039 33.6645 8.15039C33.2392 8.15109 32.6943 8.34046 32.4489 8.61439C32.4612 8.56827 32.4619 8.50957 32.4454 8.43969C32.4099 8.28945 32.3114 8.14899 32.2362 8.16856C32.161 8.18813 32.1412 8.36003 32.1795 8.51027C32.1836 8.52145 32.1863 8.52984 32.1904 8.54032L32.1316 8.53822C31.8691 8.5494 31.6735 8.76254 31.6961 8.99873C31.7187 9.23143 31.9347 9.40123 32.1829 9.39075Z" fill="#ffffff"/>
<path d="M28.625 10.5739C28.6373 10.562 28.6475 10.5488 28.6578 10.5362C28.6633 10.546 28.668 10.5536 28.6735 10.5641C28.7597 10.6899 28.895 10.794 28.9449 10.7689C28.9942 10.743 28.949 10.5865 28.8732 10.4509C28.8376 10.388 28.7993 10.3447 28.7624 10.3182C28.9285 10.3391 29.1378 10.3461 29.3169 10.3077C29.522 10.2979 29.695 10.2343 29.8714 10.1777C30.0478 10.1183 30.1524 10.0121 30.2392 9.91425C30.2727 9.87162 30.3253 9.85206 30.3773 9.86673C30.5182 9.90796 30.6563 9.8835 30.8067 9.81572C31.005 9.71579 31.1472 9.48309 31.1663 9.22733C31.208 8.75075 30.8121 8.39716 30.3575 8.48381C30.2447 8.51316 30.1442 8.56627 30.0621 8.63545C30.0136 8.67668 29.9486 8.68856 29.8878 8.67039C29.7401 8.61868 29.5507 8.65013 29.3162 8.73398C29.0851 8.81085 28.852 9.00442 28.6701 9.18261C28.4985 9.39714 28.3713 9.60608 28.3481 9.80314C28.331 9.75842 28.2975 9.7102 28.2421 9.66548C28.1245 9.56904 27.9502 9.5341 27.8934 9.60887C27.836 9.68365 27.9283 9.8283 28.0561 9.91425C28.0671 9.91984 28.0746 9.92403 28.0848 9.92892L28.0336 9.97015C27.823 10.1805 27.8449 10.4991 28.0288 10.6298C28.2223 10.7703 28.4698 10.7262 28.625 10.5739Z" fill="#ffffff"/>
<path d="M27.3596 22.2531C27.3425 22.2545 27.3268 22.2586 27.3104 22.2621C27.3124 22.251 27.3138 22.2419 27.3159 22.23C27.3234 22.077 27.281 21.9093 27.2263 21.8981C27.1723 21.8869 27.1121 22.0385 27.0902 22.193C27.08 22.2649 27.0834 22.3229 27.0964 22.367C26.9788 22.2454 26.8188 22.1077 26.6547 22.0246C26.4879 21.9023 26.3129 21.8429 26.1406 21.7758C25.9662 21.7115 25.8199 21.729 25.6921 21.7506C25.6401 21.7625 25.5868 21.745 25.5546 21.7003C25.4692 21.5794 25.3461 21.5109 25.1868 21.469C24.9701 21.4222 24.7178 21.5151 24.5482 21.7038C24.2269 22.0518 24.3233 22.5801 24.7335 22.7988C24.8395 22.8477 24.9509 22.8694 25.0569 22.8673C25.1198 22.8659 25.1786 22.8973 25.2155 22.9498C25.2996 23.0839 25.4678 23.179 25.7023 23.2614C25.9307 23.3474 26.2308 23.3425 26.4817 23.318C26.747 23.2572 26.9726 23.1741 27.1107 23.0336C27.0964 23.0797 27.0937 23.1384 27.1101 23.209C27.1442 23.3586 27.2605 23.4962 27.35 23.4739C27.4403 23.4515 27.4553 23.2796 27.4068 23.1307C27.402 23.1196 27.3986 23.1119 27.3938 23.1014H27.4588C27.7514 23.0693 27.9271 22.8051 27.8621 22.5864C27.7945 22.353 27.5736 22.2321 27.3596 22.2531Z" fill="#ffffff"/>
<path d="M27.576 14.2055L27.5726 14.1489C27.5835 14.1524 27.5917 14.1552 27.6034 14.1587C27.7511 14.188 27.9186 14.1601 27.9357 14.0916C27.9527 14.0231 27.8126 13.9351 27.6649 13.9022C27.5952 13.8868 27.5377 13.8882 27.4933 13.9001C27.7497 13.6493 27.9603 13.172 28.0197 12.7897C28.056 12.5976 28.0286 12.4417 27.978 12.3187C27.9589 12.2698 27.9678 12.2146 28.0061 12.1776C28.1127 12.0805 28.1558 11.94 28.1736 11.7926C28.192 11.5913 28.0615 11.3439 27.8796 11.1874C27.5268 10.868 26.9949 11.0141 26.8267 11.4998C26.7939 11.6165 26.7877 11.7353 26.8041 11.8443C26.8144 11.9093 26.7918 11.9742 26.7453 12.0211C26.6366 12.1329 26.5641 12.3041 26.5204 12.5466C26.4452 13.0259 26.5867 13.608 26.8417 13.8799C26.798 13.8645 26.7405 13.8596 26.6708 13.8715C26.5211 13.8959 26.3761 13.9882 26.3884 14.0678C26.4014 14.1468 26.5676 14.1789 26.7173 14.1503C26.7282 14.1468 26.7364 14.144 26.7474 14.1405L26.7405 14.2006C26.7364 14.4661 26.9265 14.6744 27.1562 14.6758C27.388 14.6765 27.5719 14.462 27.576 14.2055Z" fill="#ffffff"/>
<path d="M27.5832 18.4L27.5763 18.3455C27.5873 18.3476 27.5955 18.3497 27.6071 18.3525C27.7568 18.3735 27.9223 18.3371 27.9359 18.2707C27.9496 18.2044 27.8054 18.1261 27.6556 18.0995C27.5859 18.0877 27.5285 18.0912 27.4847 18.1051C27.737 17.8501 27.9168 17.3155 27.9161 16.8808C27.9161 16.6593 27.8689 16.4951 27.7896 16.3735C27.7575 16.3239 27.752 16.2617 27.7787 16.2093C27.8498 16.0688 27.873 15.9018 27.8266 15.7271C27.7637 15.4895 27.564 15.2995 27.3206 15.245C26.8659 15.1429 26.4632 15.4791 26.4632 15.9081C26.4632 16.0157 26.4885 16.1171 26.5337 16.2079C26.5603 16.261 26.5555 16.3232 26.5234 16.3735C26.4448 16.4951 26.3976 16.6593 26.3976 16.8808C26.3983 17.319 26.5726 17.8431 26.8324 18.1121C26.788 18.0981 26.7306 18.0954 26.6615 18.11C26.5132 18.1422 26.373 18.2442 26.3901 18.3253C26.4065 18.4063 26.574 18.4301 26.7217 18.3923C26.7333 18.3881 26.7408 18.3854 26.7518 18.3819C26.7504 18.4021 26.7463 18.4217 26.7484 18.4427C26.7661 18.7236 26.976 18.9255 27.2078 18.892C27.4327 18.8591 27.5982 18.6411 27.5832 18.4Z" fill="#ffffff"/>
<path d="M29.4856 21.2093L29.435 21.1988C29.4412 21.1891 29.4453 21.1821 29.4521 21.1709C29.5212 21.0339 29.5458 20.8634 29.4952 20.832C29.4426 20.8033 29.3291 20.9137 29.2525 21.043C29.2163 21.1045 29.1978 21.1597 29.193 21.2072C29.0549 20.8767 28.8026 20.528 28.6009 20.3142C28.4874 20.2094 28.3931 20.1395 28.2714 20.1136C28.2194 20.1045 28.1948 20.0612 28.1969 20.0123C28.2003 19.8837 28.1681 19.7656 28.0765 19.6538C27.9521 19.5057 27.7162 19.4015 27.4673 19.4085C27.0079 19.4078 26.6708 19.8725 26.8958 20.3743C26.9423 20.4959 27.0387 20.5923 27.1282 20.665C27.1836 20.7069 27.2123 20.7761 27.2246 20.8432C27.2492 21.0081 27.3272 21.2191 27.533 21.4169C27.9316 21.8334 28.6119 21.9815 28.9551 21.8278C28.9257 21.8641 28.9004 21.9165 28.8888 21.9892C28.8628 22.145 28.9134 22.3225 29.0009 22.3302C29.0884 22.3421 29.1691 22.189 29.1841 22.0346C29.1834 22.022 29.1834 22.0136 29.1834 22.0025L29.2416 22.0262C29.5137 22.1206 29.7701 21.9584 29.8118 21.7313C29.8555 21.4951 29.6983 21.2855 29.4856 21.2093Z" fill="#ffffff"/>
<path d="M33.4673 21.4336L33.4106 21.4391C33.4133 21.428 33.4161 21.4189 33.4195 21.407C33.4482 21.2547 33.4188 21.0849 33.3463 21.0695C33.2738 21.0541 33.1863 21.1995 33.1576 21.3518C33.1446 21.4231 33.1474 21.4818 33.161 21.5265C32.9046 21.2651 32.3871 21.0842 31.9598 21.0842C31.743 21.0842 31.5824 21.1324 31.4634 21.2127C31.4155 21.2456 31.354 21.2512 31.3027 21.2246C31.1591 21.1547 31.0203 21.1205 30.859 21.1638C30.6423 21.2267 30.457 21.4063 30.3777 21.6481C30.2218 22.0967 30.5315 22.5579 30.9944 22.5628C31.1099 22.5677 31.2159 22.5439 31.3013 22.4964C31.3533 22.4692 31.4142 22.4741 31.4634 22.5069C31.5824 22.588 31.743 22.6362 31.9598 22.6362C32.3871 22.6362 32.9046 22.4545 33.161 22.1931C33.1474 22.2386 33.1446 22.2973 33.1576 22.3678C33.1863 22.5202 33.2738 22.6662 33.3463 22.6509C33.4188 22.6355 33.4482 22.465 33.4195 22.3126C33.4161 22.3015 33.414 22.2931 33.4106 22.2826L33.4673 22.2875C33.723 22.2875 33.9295 22.0967 33.9295 21.8605C33.9295 21.625 33.723 21.4336 33.4673 21.4336Z" fill="#ffffff"/>
<path d="M37.5949 21.4336C37.5751 21.4336 37.5566 21.4363 37.5381 21.4391C37.5409 21.428 37.545 21.4189 37.547 21.407C37.5757 21.2547 37.5463 21.0849 37.4739 21.0695C37.4014 21.0541 37.3139 21.1995 37.2852 21.3518C37.2722 21.4231 37.2749 21.4818 37.2886 21.5265C37.0322 21.2651 36.5146 21.0842 36.0873 21.0842C35.8706 21.0842 35.7099 21.1324 35.5909 21.2127C35.5431 21.2456 35.4815 21.2512 35.4303 21.2246C35.2935 21.1519 35.1294 21.1282 34.9585 21.1757C34.7261 21.24 34.5401 21.444 34.4868 21.6928C34.3869 22.1568 34.7158 22.5691 35.1356 22.5691C35.2409 22.5691 35.3407 22.5432 35.4289 22.4964C35.4809 22.4692 35.5417 22.4741 35.5909 22.5069C35.7099 22.588 35.8706 22.6362 36.0873 22.6362C36.5146 22.6362 37.0322 22.4545 37.2886 22.1931C37.2749 22.2386 37.2722 22.2973 37.2852 22.3678C37.3139 22.5202 37.4014 22.6662 37.4739 22.6509C37.5463 22.6355 37.5757 22.465 37.547 22.3126C37.545 22.3015 37.5409 22.2931 37.5381 22.2826C37.5573 22.2847 37.5757 22.2875 37.5949 22.2875C37.8506 22.2875 38.0571 22.0967 38.0571 21.8605C38.0571 21.625 37.8506 21.4336 37.5949 21.4336Z" fill="#ffffff"/>
<path d="M41.7209 21.4336C41.701 21.4336 41.6826 21.4363 41.6634 21.4391C41.6668 21.428 41.671 21.4189 41.673 21.407C41.7017 21.2547 41.6723 21.0849 41.5998 21.0695C41.5274 21.0541 41.4399 21.1995 41.4111 21.3518C41.3982 21.4231 41.4009 21.4818 41.4146 21.5265C41.1582 21.2651 40.6406 21.0842 40.2133 21.0842C39.9966 21.0842 39.8359 21.1324 39.7169 21.2127C39.6684 21.2456 39.6075 21.2512 39.5562 21.2246C39.4188 21.1519 39.2554 21.1282 39.0845 21.1757C38.852 21.24 38.6661 21.444 38.6127 21.6928C38.5129 22.1568 38.8418 22.5691 39.2616 22.5691C39.3669 22.5691 39.466 22.5432 39.5549 22.4964C39.6068 22.4692 39.6677 22.4741 39.7169 22.5069C39.8359 22.588 39.9966 22.6362 40.2133 22.6362C40.6406 22.6362 41.1582 22.4545 41.4146 22.1931C41.4009 22.2386 41.3982 22.2973 41.4111 22.3678C41.4399 22.5202 41.5274 22.6662 41.5998 22.6509C41.6723 22.6355 41.7017 22.465 41.673 22.3126C41.671 22.3015 41.6668 22.2931 41.6641 22.2826C41.6833 22.2847 41.7017 22.2875 41.7209 22.2875C41.9759 22.2875 42.183 22.0967 42.183 21.8605C42.183 21.625 41.9759 21.4336 41.7209 21.4336Z" fill="#ffffff"/>
<path d="M41.2342 37.5016C41.2554 37.5016 41.2752 37.4981 41.295 37.496C41.2923 37.5072 41.2875 37.5163 41.2848 37.5282C41.2547 37.6798 41.2861 37.8503 41.3634 37.8657C41.44 37.8811 41.5343 37.7357 41.5644 37.5834C41.5781 37.5121 41.5746 37.4534 41.5603 37.4087C41.8338 37.67 42.3855 37.851 42.8409 37.851C43.072 37.851 43.2429 37.8028 43.3701 37.7224C43.4213 37.6896 43.4863 37.684 43.541 37.7106C43.6873 37.7832 43.8616 37.807 44.0435 37.7595C44.2917 37.6952 44.49 37.4911 44.5467 37.2424C44.6527 36.7784 44.302 36.3661 43.8548 36.3661C43.7427 36.3661 43.6367 36.3919 43.5424 36.4388C43.487 36.466 43.422 36.4611 43.3701 36.4283C43.2436 36.3472 43.072 36.299 42.8409 36.299C42.3855 36.299 41.8338 36.4807 41.5603 36.742C41.5746 36.6966 41.5781 36.6379 41.5644 36.5666C41.5343 36.415 41.44 36.2689 41.3634 36.2843C41.2861 36.2997 41.2547 36.4702 41.2848 36.6225C41.2875 36.6337 41.2916 36.6421 41.295 36.6526C41.2745 36.6505 41.2547 36.6477 41.2342 36.6477C40.962 36.6477 40.7412 36.8385 40.7412 37.0747C40.7412 37.3102 40.962 37.5016 41.2342 37.5016Z" fill="#ffffff"/>
<path d="M36.8357 37.5016C36.8569 37.5016 36.8767 37.4981 36.8966 37.496C36.8938 37.5072 36.8891 37.5163 36.887 37.5282C36.8562 37.6798 36.8877 37.8503 36.9649 37.8657C37.0415 37.8811 37.1359 37.7357 37.166 37.5834C37.1796 37.5121 37.1762 37.4534 37.1619 37.4087C37.4353 37.67 37.9871 37.851 38.4424 37.851C38.6735 37.851 38.8445 37.8028 38.9716 37.7224C39.0229 37.6896 39.0879 37.684 39.1425 37.7106C39.2889 37.7832 39.4632 37.807 39.6451 37.7595C39.8933 37.6952 40.0915 37.4911 40.1483 37.2424C40.2543 36.7784 39.9035 36.3661 39.4564 36.3661C39.3442 36.3661 39.2383 36.3919 39.1439 36.4388C39.0885 36.466 39.0236 36.4611 38.9716 36.4283C38.8451 36.3472 38.6735 36.299 38.4424 36.299C37.9871 36.299 37.4353 36.4807 37.1619 36.742C37.1762 36.6966 37.1796 36.6379 37.166 36.5666C37.1359 36.415 37.0415 36.2689 36.9649 36.2843C36.8877 36.2997 36.8562 36.4702 36.887 36.6225C36.8891 36.6337 36.8932 36.6421 36.8966 36.6526C36.8761 36.6505 36.8562 36.6477 36.8357 36.6477C36.5636 36.6477 36.3428 36.8385 36.3428 37.0747C36.3428 37.3102 36.5636 37.5016 36.8357 37.5016Z" fill="#ffffff"/>
<path d="M32.4096 37.4598L32.4725 37.4591C32.4684 37.4696 32.465 37.4779 32.4602 37.4898C32.4192 37.6394 32.4397 37.812 32.5204 37.8329C32.6011 37.8539 32.7077 37.7155 32.746 37.566C32.7638 37.4954 32.7624 37.4367 32.7501 37.3906C33.0147 37.6603 33.5986 37.8553 34.0451 37.8511C34.2762 37.8511 34.4471 37.8029 34.5743 37.7225C34.6255 37.6897 34.6905 37.6841 34.7452 37.7106C34.8915 37.7833 35.0658 37.8071 35.2484 37.7596C35.4959 37.6953 35.6935 37.4912 35.7509 37.2425C35.8569 36.7778 35.5062 36.3662 35.059 36.3662C34.9469 36.3662 34.8409 36.392 34.7472 36.4381C34.6912 36.4654 34.6262 36.4612 34.5743 36.4277C34.4478 36.3473 34.2762 36.2991 34.0451 36.2991C33.5808 36.3033 33.0612 36.471 32.7802 36.7246C32.7959 36.6806 32.8021 36.6226 32.7918 36.5506C32.7693 36.3962 32.6886 36.2446 32.6154 36.2544C32.543 36.2641 32.5013 36.4325 32.5204 36.5863C32.5231 36.5982 32.5245 36.6065 32.5272 36.617L32.4691 36.6079C32.2073 36.5933 31.9762 36.7582 31.9488 36.9895C31.9208 37.2264 32.128 37.4444 32.4096 37.4598Z" fill="#ffffff"/>
<path d="M34.895 39.6785L34.9579 39.6778C34.9538 39.6883 34.9504 39.6967 34.9456 39.7086C34.9046 39.8581 34.9251 40.0307 35.0058 40.0517C35.0864 40.0726 35.1931 39.9343 35.2314 39.7847C35.2492 39.7142 35.2478 39.6555 35.2355 39.6093C35.5001 39.8791 36.084 40.074 36.5304 40.0699C36.7615 40.0699 36.9324 40.0216 37.0589 39.9413C37.1109 39.9084 37.1758 39.9028 37.2305 39.9294C37.3769 40.0021 37.5512 40.0258 37.7337 39.9783C37.9812 39.914 38.1788 39.71 38.2363 39.4612C38.3422 38.9972 37.9915 38.5849 37.5444 38.5849C37.4322 38.5849 37.3263 38.6108 37.2319 38.6576C37.1765 38.6848 37.1116 38.6799 37.0596 38.6464C36.9331 38.566 36.7615 38.5178 36.5304 38.5178C36.0662 38.522 35.5466 38.6904 35.2656 38.9434C35.2813 38.8994 35.2874 38.8414 35.2772 38.7694C35.2546 38.615 35.174 38.4633 35.1008 38.4731C35.0276 38.4829 34.9866 38.6513 35.0051 38.805C35.0085 38.8169 35.0099 38.8253 35.0126 38.8358L34.9545 38.8267C34.6926 38.8127 34.4615 38.9769 34.4342 39.2082C34.4061 39.4451 34.6133 39.6632 34.895 39.6785Z" fill="#ffffff"/>
<path d="M38.7192 31.2156L38.7821 31.2149C38.778 31.2254 38.7746 31.2338 38.7698 31.2457C38.7288 31.3952 38.7493 31.5678 38.83 31.5888C38.9107 31.6098 39.0173 31.4714 39.0556 31.3219C39.0734 31.2513 39.072 31.1926 39.0597 31.1465C39.3243 31.4162 39.9089 31.6112 40.3546 31.607C40.5857 31.607 40.7567 31.5587 40.8831 31.4784C40.9351 31.4455 41.0001 31.4399 41.0548 31.4665C41.2011 31.5392 41.3754 31.5629 41.558 31.5154C41.8055 31.4511 42.0031 31.2471 42.0605 30.9983C42.1665 30.5343 41.8157 30.122 41.3686 30.122C41.2565 30.122 41.1505 30.1479 41.0568 30.1947C41.0007 30.2219 40.9358 30.2171 40.8838 30.1835C40.7573 30.1032 40.5857 30.0549 40.3546 30.0549C39.8904 30.0591 39.3708 30.2275 39.0898 30.4805C39.1055 30.4365 39.1117 30.3785 39.1014 30.3065C39.0788 30.1521 38.9982 30.0004 38.925 30.0102C38.8525 30.02 38.8108 30.1884 38.83 30.3421C38.8327 30.354 38.8341 30.3624 38.8368 30.3729L38.7787 30.3638C38.5168 30.3498 38.2857 30.514 38.2584 30.7453C38.2304 30.9822 38.4375 31.2003 38.7192 31.2156Z" fill="#ffffff"/>
<path d="M28.1138 35.7913L28.1623 35.8388C28.152 35.8437 28.1438 35.8479 28.1329 35.8535C28.0064 35.9325 27.9052 36.0848 27.9668 36.1575C28.0262 36.2315 28.2067 36.1994 28.3291 36.1065C28.3872 36.0631 28.4214 36.0163 28.4385 35.9716C28.4727 36.386 28.9376 36.9003 29.4162 37.1274C29.6589 37.2329 29.8593 37.2525 30.0158 37.2294C30.0794 37.221 30.1485 37.235 30.1977 37.2769C30.3303 37.3894 30.5115 37.4691 30.7153 37.474C30.9928 37.4649 31.2362 37.3056 31.3333 37.0715C31.5104 36.6285 31.2438 36.1728 30.8623 36.0708C30.7652 36.0429 30.6667 36.0422 30.5703 36.0624C30.5136 36.075 30.4568 36.0547 30.4254 36.0044C30.3467 35.8849 30.2223 35.7906 30.0398 35.7123C29.6965 35.5432 29.2138 35.4615 28.8665 35.4685C28.9055 35.4433 28.9451 35.4007 28.9814 35.3392C29.058 35.2057 29.0969 35.0471 29.0402 35.0184C28.9814 34.9912 28.8508 35.0841 28.7605 35.2134C28.7544 35.2239 28.7503 35.2316 28.7448 35.2421L28.7134 35.1966C28.5582 35.0142 28.2737 34.9814 28.0939 35.1114C27.8977 35.2539 27.9093 35.5565 28.1138 35.7913Z" fill="#ffffff"/>
<path d="M26.7391 31.3105L26.7445 31.3727C26.7336 31.3692 26.7254 31.3664 26.7131 31.3629C26.564 31.3314 26.3979 31.3636 26.3828 31.4425C26.3685 31.5215 26.5093 31.6151 26.6604 31.6494C26.7302 31.6648 26.7876 31.6606 26.8314 31.6452C26.5818 31.931 26.4246 32.555 26.5066 33.0707C26.5449 33.33 26.6468 33.5152 26.7507 33.634C26.7944 33.6829 26.8156 33.7521 26.804 33.8198C26.7869 33.9987 26.832 34.2028 26.9435 34.3852C27.1069 34.6325 27.3995 34.7423 27.6347 34.6773C27.8583 34.6172 28.0176 34.4516 28.1078 34.2734C28.1947 34.0952 28.2131 33.9044 28.1584 33.7143C28.1277 33.6214 28.0723 33.5424 28.0019 33.4753C27.9656 33.4334 27.9574 33.3726 27.9786 33.3181C28.034 33.1839 28.0354 33.0316 28.006 32.8241C27.941 32.4195 27.7462 31.9156 27.4836 31.6431C27.5281 31.6571 27.5855 31.6599 27.6545 31.6459C27.8009 31.6186 27.9451 31.5201 27.9301 31.4425C27.915 31.3636 27.7482 31.3314 27.5998 31.3629C27.5882 31.3664 27.58 31.3692 27.5698 31.3727L27.5745 31.3105C27.5745 31.0324 27.3879 30.8066 27.1568 30.8066C26.9264 30.8066 26.7391 31.0324 26.7391 31.3105Z" fill="#ffffff"/>
<path d="M26.866 26.7401L26.8591 26.8072C26.8489 26.8009 26.8413 26.7967 26.8304 26.7904C26.6902 26.7289 26.52 26.7303 26.4892 26.817C26.4591 26.9043 26.5788 27.0336 26.7258 27.0867C26.7928 27.1112 26.8502 27.1153 26.8954 27.1063C26.6027 27.3446 26.3853 28.0098 26.3969 28.457C26.3969 28.6932 26.4441 28.8686 26.5227 28.9979C26.5549 29.0503 26.5603 29.1167 26.5344 29.1726C26.4632 29.3221 26.44 29.501 26.4865 29.6869C26.5494 29.9399 26.749 30.1425 26.9924 30.2005C27.4471 30.3095 27.8498 29.9511 27.8498 29.494C27.8498 29.3794 27.8245 29.2711 27.7787 29.1747C27.7527 29.1181 27.7568 29.051 27.7896 28.9979C27.8683 28.8686 27.9154 28.6932 27.9154 28.457C27.9059 27.9735 27.7609 27.5116 27.5415 27.1971C27.5845 27.2167 27.6406 27.2279 27.711 27.2244C27.8587 27.2146 28.0173 27.1559 28.0139 27.0881C28.0112 27.0196 27.8525 26.9588 27.7014 26.9581C27.6898 26.9595 27.6816 26.9602 27.6707 26.9616L27.6857 26.9064C27.7247 26.6562 27.6194 26.411 27.3938 26.3348C27.1818 26.2614 26.9152 26.4403 26.866 26.7401Z" fill="#ffffff"/>
<path d="M34.5792 23.3476L34.5184 23.3532C34.5218 23.342 34.5245 23.3329 34.528 23.3211C34.5587 23.1687 34.5273 22.9989 34.45 22.9835C34.3734 22.9682 34.2791 23.1135 34.249 23.2659C34.2353 23.3371 34.2388 23.3958 34.2531 23.4406C33.9796 23.1792 33.4279 22.9982 32.9725 22.9982C32.7414 22.9982 32.5705 23.0464 32.4433 23.1268C32.3921 23.1596 32.3271 23.1652 32.2724 23.1387C32.1261 23.066 31.9518 23.0422 31.7692 23.0898C31.521 23.1547 31.3248 23.356 31.266 23.6083C31.1641 24.073 31.5094 24.4818 31.9586 24.4832C32.0707 24.4832 32.1767 24.4566 32.2704 24.4105C32.3264 24.3832 32.3914 24.3881 32.4433 24.421C32.5698 24.502 32.7414 24.5502 32.9725 24.5502C33.4279 24.5502 33.9796 24.3686 34.2531 24.1072C34.2388 24.1526 34.2353 24.2113 34.249 24.2819C34.2791 24.4342 34.3734 24.5796 34.45 24.5649C34.5273 24.5495 34.5587 24.379 34.528 24.2267C34.5245 24.2155 34.5218 24.2071 34.5184 24.1967L34.5792 24.2015C34.8514 24.2015 35.0722 24.0108 35.0722 23.7746C35.0722 23.5391 34.8514 23.3476 34.5792 23.3476Z" fill="#ffffff"/>
<path d="M38.9771 23.3476C38.9559 23.3476 38.9361 23.3504 38.9163 23.3532C38.919 23.342 38.9238 23.3329 38.9265 23.3211C38.9566 23.1687 38.9251 22.9989 38.8479 22.9835C38.7713 22.9682 38.677 23.1135 38.6469 23.2659C38.6332 23.3371 38.6366 23.3958 38.651 23.4406C38.3775 23.1792 37.8258 22.9982 37.3704 22.9982C37.1393 22.9982 36.9684 23.0464 36.8412 23.1268C36.7899 23.1596 36.725 23.1652 36.6703 23.1387C36.524 23.066 36.3496 23.0422 36.1671 23.0898C35.9196 23.154 35.7213 23.3581 35.6646 23.6069C35.5586 24.0709 35.9093 24.4832 36.3565 24.4832C36.4686 24.4832 36.5746 24.4566 36.6689 24.4105C36.7243 24.3832 36.7893 24.3881 36.8412 24.421C36.9677 24.502 37.1393 24.5502 37.3704 24.5502C37.8258 24.5502 38.3775 24.3686 38.651 24.1072C38.6366 24.1526 38.6332 24.2113 38.6469 24.2819C38.677 24.4342 38.7713 24.5796 38.8479 24.5649C38.9251 24.5495 38.9566 24.379 38.9265 24.2267C38.9238 24.2155 38.9197 24.2071 38.9163 24.1967C38.9368 24.1987 38.9566 24.2015 38.9771 24.2015C39.2492 24.2015 39.4701 24.0108 39.4701 23.7746C39.4701 23.5391 39.2492 23.3476 38.9771 23.3476Z" fill="#ffffff"/>
<path d="M43.3755 23.3476C43.3544 23.3476 43.3345 23.3504 43.3147 23.3532C43.3174 23.342 43.3222 23.3329 43.3243 23.3211C43.355 23.1687 43.3236 22.9989 43.2463 22.9835C43.1698 22.9682 43.0754 23.1135 43.0453 23.2659C43.031 23.3371 43.0351 23.3958 43.0494 23.4406C42.7759 23.1792 42.2242 22.9982 41.7688 22.9982C41.5377 22.9982 41.3661 23.0464 41.2397 23.1268C41.1884 23.1596 41.1234 23.1652 41.0687 23.1387C40.9224 23.066 40.7481 23.0422 40.5655 23.0898C40.318 23.154 40.1197 23.3581 40.063 23.6069C39.957 24.0709 40.3078 24.4832 40.7549 24.4832C40.867 24.4832 40.973 24.4566 41.0674 24.4105C41.1221 24.3832 41.1877 24.3881 41.2397 24.421C41.3661 24.502 41.5377 24.5502 41.7688 24.5502C42.2242 24.5502 42.7759 24.3686 43.0494 24.1072C43.0351 24.1526 43.031 24.2113 43.0453 24.2819C43.0754 24.4342 43.1698 24.5796 43.2463 24.5649C43.3236 24.5495 43.355 24.379 43.3243 24.2267C43.3222 24.2155 43.3181 24.2071 43.3147 24.1967C43.3352 24.1987 43.355 24.2015 43.3755 24.2015C43.6477 24.2015 43.8685 24.0108 43.8685 23.7746C43.8685 23.5391 43.6477 23.3476 43.3755 23.3476Z" fill="#ffffff"/>
<path d="M46.1251 21.8192C46.1046 21.8164 46.084 21.8171 46.0642 21.8164C46.0683 21.8059 46.0738 21.7975 46.0779 21.7863C46.1278 21.6396 46.1189 21.4663 46.0444 21.4404C45.9699 21.4153 45.8584 21.5466 45.8085 21.6934C45.7853 21.7619 45.7812 21.8206 45.7894 21.8674C45.5528 21.5711 45.0291 21.3167 44.5778 21.2552C44.3488 21.2238 44.1731 21.2483 44.037 21.3111C43.9816 21.337 43.9167 21.3335 43.8661 21.2993C43.73 21.2077 43.5605 21.1609 43.3738 21.1833C43.1195 21.2133 42.8973 21.3887 42.8084 21.6277C42.643 22.0735 42.9369 22.5291 43.38 22.5899C43.4914 22.6053 43.5995 22.5934 43.6993 22.5606C43.7574 22.541 43.8217 22.5543 43.8688 22.5941C43.9837 22.6913 44.1478 22.7618 44.3768 22.7933C44.8281 22.8548 45.3983 22.75 45.7032 22.5277C45.6827 22.5711 45.6718 22.6284 45.6766 22.701C45.6868 22.8555 45.7613 23.0127 45.8393 23.0078C45.9179 23.0036 45.9712 22.8387 45.9603 22.6836C45.9596 22.6724 45.9569 22.6633 45.9548 22.6521C45.9747 22.657 45.9938 22.6633 46.0143 22.6661C46.2844 22.7024 46.5278 22.5431 46.5579 22.309C46.5886 22.0756 46.3951 21.8562 46.1251 21.8192Z" fill="#ffffff"/>
<path d="M39.0326 35.3122C39.0545 35.3122 39.075 35.3094 39.0962 35.3066C39.0928 35.3178 39.088 35.3268 39.0852 35.3387C39.0538 35.4911 39.0866 35.6609 39.1666 35.6762C39.2466 35.6916 39.3444 35.5463 39.3758 35.3939C39.3902 35.3226 39.3868 35.2639 39.3717 35.2192C39.6561 35.4806 40.2298 35.6616 40.7029 35.6616C40.9429 35.6616 41.1213 35.6133 41.2526 35.533C41.3059 35.5001 41.3736 35.4946 41.4304 35.5211C41.5828 35.5938 41.764 35.6175 41.9534 35.57C42.2112 35.5057 42.4169 35.3017 42.4757 35.0529C42.5865 34.5889 42.2221 34.1766 41.7572 34.1766C41.6403 34.1766 41.5302 34.2025 41.4324 34.2493C41.375 34.2766 41.3073 34.2717 41.2526 34.2388C41.1213 34.1578 40.9429 34.1095 40.7029 34.1095C40.2298 34.1095 39.6561 34.2912 39.3717 34.5526C39.3868 34.5072 39.3902 34.4485 39.3758 34.3779C39.3444 34.2255 39.2466 34.0795 39.1666 34.0949C39.0866 34.1102 39.0538 34.2807 39.0852 34.4331C39.088 34.4443 39.0928 34.4526 39.0955 34.4631C39.0743 34.461 39.0538 34.4582 39.0326 34.4582C38.7495 34.4582 38.5205 34.649 38.5205 34.8852C38.5205 35.1207 38.7495 35.3122 39.0326 35.3122Z" fill="#ffffff"/>
<path d="M34.4613 35.3122C34.4832 35.3122 34.5037 35.3094 34.5249 35.3066C34.5215 35.3178 34.5167 35.3268 34.514 35.3387C34.4825 35.4911 34.5153 35.6609 34.5953 35.6762C34.6753 35.6916 34.7731 35.5463 34.8045 35.3939C34.8189 35.3226 34.8155 35.2639 34.8004 35.2192C35.0849 35.4806 35.6585 35.6616 36.1316 35.6616C36.3716 35.6616 36.55 35.6133 36.6813 35.533C36.7346 35.5001 36.8023 35.4946 36.8591 35.5211C37.0115 35.5938 37.1927 35.6175 37.3821 35.57C37.6399 35.5057 37.8457 35.3017 37.9045 35.0529C38.0152 34.5889 37.6508 34.1766 37.1859 34.1766C37.069 34.1766 36.9589 34.2025 36.8611 34.2493C36.8037 34.2766 36.7353 34.2717 36.6813 34.2388C36.55 34.1578 36.3716 34.1095 36.1316 34.1095C35.6585 34.1095 35.0849 34.2912 34.8004 34.5526C34.8155 34.5072 34.8189 34.4485 34.8045 34.3779C34.7731 34.2255 34.6753 34.0795 34.5953 34.0949C34.5153 34.1102 34.4825 34.2807 34.514 34.4331C34.5167 34.4443 34.5215 34.4526 34.5242 34.4631C34.503 34.461 34.4825 34.4582 34.4613 34.4582C34.1783 34.4582 33.9492 34.649 33.9492 34.8852C33.9492 35.1207 34.1783 35.3122 34.4613 35.3122Z" fill="#ffffff"/>
<path d="M29.8446 34.1216C29.861 34.1411 29.8808 34.1544 29.9006 34.1684C29.8897 34.174 29.8822 34.1782 29.8705 34.1838C29.7406 34.2704 29.6538 34.4186 29.7229 34.4982C29.7912 34.5772 29.9765 34.5443 30.0941 34.4465C30.1495 34.4011 30.1803 34.3515 30.1946 34.3046C30.2746 34.712 30.8284 35.2354 31.3672 35.3822C31.6345 35.4486 31.8458 35.4625 32.0017 35.3997C32.0659 35.3773 32.1391 35.3836 32.1965 35.4206C32.3517 35.524 32.5479 35.5646 32.7572 35.5352C33.0429 35.5031 33.2631 35.2886 33.3287 35.0461C33.445 34.5793 33.0976 34.1782 32.6881 34.1299C32.5808 34.1237 32.4816 34.132 32.3879 34.1628C32.3326 34.1817 32.2724 34.167 32.23 34.1265C32.1234 34.0342 31.9928 33.9385 31.7931 33.8931C31.413 33.7847 30.9542 33.733 30.5919 33.7764C30.6288 33.7491 30.6657 33.7044 30.6985 33.6394C30.7676 33.5003 30.8031 33.3396 30.7484 33.3145C30.6937 33.2886 30.5577 33.3948 30.4763 33.5227C30.4708 33.5332 30.4674 33.5402 30.4626 33.5499L30.4264 33.5087C30.2609 33.3382 29.9909 33.2893 29.8049 33.4165C29.6087 33.5527 29.6107 33.8805 29.8446 34.1216Z" fill="#ffffff"/>
<path d="M32.7022 29.683C32.7159 29.7047 32.7336 29.7208 32.7514 29.7375C32.7405 29.741 32.7316 29.7438 32.7193 29.748C32.5791 29.8151 32.4731 29.95 32.5306 30.0387C32.5873 30.1268 32.7753 30.1205 32.9052 30.0401C32.9661 30.0031 33.0037 29.9584 33.0242 29.9136C33.0481 30.3287 33.526 30.9255 34.0395 31.147C34.2952 31.2504 34.5024 31.2938 34.6651 31.2539C34.7321 31.2407 34.8032 31.2574 34.8559 31.3021C34.9953 31.4272 35.1847 31.495 35.3953 31.495C35.6825 31.5034 35.93 31.3224 36.0277 31.0918C36.2055 30.646 35.9163 30.1987 35.517 30.0939C35.4117 30.0723 35.3126 30.0667 35.2155 30.0841C35.1581 30.0946 35.1006 30.0716 35.0637 30.0254C34.9707 29.9192 34.8545 29.806 34.6631 29.732C34.3014 29.5712 33.8535 29.4552 33.4891 29.4468C33.5295 29.4252 33.5719 29.386 33.6129 29.3267C33.7004 29.1981 33.7571 29.0443 33.7065 29.0115C33.656 28.9787 33.5069 29.0646 33.4091 29.1792C33.4023 29.189 33.3975 29.196 33.3914 29.2044L33.362 29.1582C33.2211 28.9661 32.9599 28.8794 32.7582 28.9794C32.5456 29.0863 32.5025 29.4112 32.7022 29.683Z" fill="#ffffff"/>
<path d="M30.0492 23.337C30.0246 23.337 30.0014 23.3433 29.9781 23.3503C29.9809 23.3384 29.9829 23.3293 29.9863 23.3167C30.0062 23.1595 29.9515 22.996 29.8482 22.9981C29.7443 23.0002 29.6486 23.1651 29.6459 23.3202C29.6438 23.3929 29.6602 23.4495 29.6862 23.4907C29.3307 23.2881 28.5813 23.3803 28.1232 23.7038C27.9003 23.8688 27.7527 24.0239 27.6987 24.186C27.674 24.2503 27.6214 24.3034 27.5564 24.3244C27.3787 24.3775 27.2207 24.504 27.1079 24.6857C26.9466 24.9288 26.963 25.2398 27.1011 25.448C27.3732 25.8408 27.8976 25.831 28.1991 25.5431C28.273 25.4641 28.3311 25.3817 28.3687 25.2887C28.3912 25.2335 28.4412 25.1958 28.4986 25.1895C28.636 25.1664 28.7919 25.1273 28.956 25.0015C29.2828 24.7758 29.6185 24.4523 29.8216 24.1427C29.8181 24.1888 29.8277 24.2468 29.8544 24.3139C29.9132 24.4578 30.0103 24.5892 30.0643 24.5641C30.119 24.5382 30.1279 24.3635 30.0855 24.2168C30.0814 24.2056 30.078 24.1979 30.0739 24.1881L30.1279 24.1874C30.3624 24.1692 30.5743 23.9911 30.5996 23.7632C30.6256 23.5222 30.3808 23.3111 30.0492 23.337Z" fill="#ffffff"/>
<path d="M28.6376 29.416L28.6431 29.481C28.6321 29.4768 28.6232 29.474 28.6116 29.4705C28.4626 29.4376 28.2964 29.4712 28.2814 29.5529C28.2663 29.6347 28.4085 29.7346 28.5576 29.7668C28.6273 29.7814 28.6848 29.778 28.7285 29.7626C28.6007 29.9079 28.4926 30.1273 28.4161 30.3705C28.3477 30.6242 28.3019 30.9198 28.3272 31.1846C28.3532 31.4558 28.4161 31.6507 28.5255 31.7849C28.5672 31.8401 28.5863 31.9135 28.5713 31.982C28.5241 32.1643 28.5672 32.381 28.6677 32.5808C28.8201 32.854 29.0998 32.9973 29.3432 32.9463C29.7985 32.8331 30.0139 32.3761 29.9257 32.0015C29.897 31.9058 29.8491 31.8177 29.793 31.7374C29.7582 31.6906 29.7513 31.6284 29.7753 31.5746C29.8265 31.446 29.8628 31.2776 29.8409 31.0595C29.819 30.8436 29.7773 30.6032 29.6932 30.3705C29.6173 30.1273 29.5086 29.9079 29.3808 29.7626C29.4252 29.778 29.4826 29.7814 29.5524 29.7668C29.7007 29.7346 29.8436 29.6347 29.8286 29.5529C29.8136 29.4712 29.6467 29.4376 29.4977 29.4705C29.4867 29.474 29.4785 29.4768 29.4683 29.4803L29.4731 29.416C29.4731 29.1267 29.2864 28.8926 29.0553 28.8926C28.8249 28.8926 28.6376 29.1267 28.6376 29.416Z" fill="#ffffff"/>
<path d="M30.7053 25.1596L30.643 25.1925C30.6424 25.1806 30.6424 25.1715 30.6417 25.1582C30.6171 25.0038 30.5207 24.8605 30.4256 24.8857C30.3313 24.9081 30.2868 25.0932 30.3238 25.247C30.3408 25.3183 30.3709 25.3679 30.4051 25.4007C30.0257 25.2903 29.29 25.5503 28.9187 26.096C28.7307 26.3588 28.6712 26.6054 28.6815 26.7913C28.6849 26.8675 28.6562 26.9471 28.6124 27.0086C28.4853 27.168 28.4046 27.3986 28.4224 27.6397C28.4401 27.9709 28.6521 28.2134 28.8914 28.2637C29.1197 28.3238 29.331 28.2469 29.4931 28.1246C29.6537 28.0044 29.7611 27.8472 29.7987 27.6746C29.813 27.5851 29.813 27.502 29.7925 27.4146C29.7775 27.3622 29.8041 27.3154 29.8499 27.291C29.96 27.2288 30.051 27.1407 30.1474 27.0079C30.3176 26.7466 30.5678 26.349 30.6991 25.9954C30.7073 26.0422 30.7306 26.096 30.7736 26.1533C30.8646 26.2742 30.9952 26.3706 31.0499 26.3329C31.1025 26.2931 31.0656 26.124 30.9828 25.9947C30.9753 25.9849 30.9705 25.9786 30.963 25.9702L31.017 25.9521C31.2509 25.8577 31.4047 25.6145 31.3459 25.3888C31.2864 25.1589 30.9979 25.0415 30.7053 25.1596Z" fill="#ffffff"/>
<path d="M38.8844 11.3493C38.9056 11.3493 38.9261 11.3458 38.9466 11.3437C38.9432 11.3549 38.9384 11.364 38.9363 11.3758C38.9056 11.5282 38.937 11.698 39.0156 11.7133C39.0943 11.7287 39.19 11.5834 39.2207 11.431C39.2351 11.3598 39.2317 11.3011 39.2173 11.2563C39.4956 11.5177 40.0583 11.6987 40.5232 11.6987C40.7584 11.6987 40.9334 11.6505 41.062 11.5701C41.1146 11.5373 41.1809 11.5317 41.237 11.5582C41.386 11.6309 41.5638 11.6546 41.7498 11.6071C42.0021 11.5428 42.2044 11.3388 42.2626 11.09C42.3713 10.626 42.013 10.2137 41.557 10.2137C41.4428 10.2137 41.3348 10.2396 41.2384 10.2864C41.1823 10.3137 41.1153 10.3088 41.0626 10.2759C40.9334 10.1949 40.7584 10.1466 40.5232 10.1466C40.0583 10.1466 39.4956 10.3283 39.2173 10.5897C39.2317 10.5443 39.2351 10.4856 39.2207 10.4143C39.19 10.2626 39.0943 10.1166 39.0156 10.132C38.937 10.1473 38.9056 10.3179 38.9363 10.4702C38.9384 10.4814 38.9432 10.4898 38.9459 10.5002C38.9254 10.4981 38.9056 10.4953 38.8844 10.4953C38.6068 10.4953 38.3818 10.6861 38.3818 10.9223C38.3818 11.1578 38.6068 11.3493 38.8844 11.3493Z" fill="#ffffff"/>
<path d="M34.399 11.3493C34.4202 11.3493 34.4407 11.3458 34.4612 11.3437C34.4578 11.3549 34.453 11.364 34.451 11.3758C34.4202 11.5282 34.4517 11.698 34.5303 11.7133C34.6089 11.7287 34.7046 11.5834 34.7354 11.431C34.7497 11.3598 34.7463 11.3011 34.732 11.2563C35.0102 11.5177 35.5729 11.6987 36.0379 11.6987C36.273 11.6987 36.4481 11.6505 36.5766 11.5701C36.6293 11.5373 36.6956 11.5317 36.7516 11.5582C36.9007 11.6309 37.0785 11.6546 37.2644 11.6071C37.5167 11.5428 37.7191 11.3388 37.7772 11.09C37.8859 10.626 37.5283 10.2137 37.0716 10.2137C36.9574 10.2137 36.8494 10.2396 36.7537 10.2864C36.6969 10.3137 36.6299 10.3088 36.5773 10.2759C36.4481 10.1949 36.273 10.1466 36.0379 10.1466C35.5729 10.1466 35.0102 10.3283 34.732 10.5897C34.7463 10.5443 34.7497 10.4856 34.7354 10.4143C34.7046 10.2626 34.6089 10.1166 34.5303 10.132C34.4517 10.1473 34.4202 10.3179 34.451 10.4702C34.453 10.4814 34.4578 10.4898 34.4605 10.5002C34.44 10.4981 34.4202 10.4953 34.399 10.4953C34.1214 10.4953 33.8965 10.6861 33.8965 10.9223C33.8965 11.1578 34.1214 11.3493 34.399 11.3493Z" fill="#ffffff"/>
<path d="M30.3349 12.1021C30.3479 12.0902 30.3589 12.0763 30.3705 12.063C30.3746 12.0742 30.378 12.0825 30.3828 12.0944C30.4566 12.2328 30.5715 12.3453 30.6296 12.3306C30.6843 12.3138 30.6645 12.1531 30.6098 12.0085C30.5838 11.9407 30.5524 11.8918 30.5189 11.8603C30.8669 11.9498 31.3229 11.9386 31.7277 11.8666C31.9225 11.8149 32.0784 11.7583 32.1816 11.6556C32.2247 11.6164 32.2835 11.5983 32.3382 11.6206C32.4859 11.6814 32.65 11.6912 32.8195 11.629C33.052 11.5522 33.2414 11.3481 33.2954 11.0958C33.3986 10.636 33.0274 10.2105 32.5331 10.2552C32.4107 10.2657 32.2979 10.3013 32.2008 10.3565C32.144 10.3887 32.0716 10.3977 32.0107 10.3726C31.8603 10.3202 31.6641 10.2838 31.4022 10.3509C30.8867 10.4397 30.3001 10.8981 30.1797 11.2908C30.1702 11.2433 30.1449 11.1909 30.0943 11.1392C29.9883 11.0281 29.8071 10.9736 29.7306 11.0434C29.6519 11.1112 29.7285 11.2789 29.8468 11.3733C29.857 11.3796 29.8639 11.3837 29.8734 11.39L29.8153 11.4334C29.5514 11.6451 29.5357 11.9875 29.7182 12.1273C29.9042 12.2712 30.1586 12.2412 30.3349 12.1021Z" fill="#ffffff"/>
<path d="M27.1582 8.80901C27.1665 8.79293 27.1719 8.77616 27.1781 8.76009C27.1856 8.76848 27.1917 8.77477 27.2006 8.78455C27.3176 8.88727 27.4639 8.95156 27.5124 8.91662C27.5582 8.88168 27.4844 8.73843 27.3832 8.62173C27.3353 8.56862 27.2895 8.53368 27.2471 8.51691C27.6033 8.47498 28.0266 8.30028 28.3807 8.08715C28.5448 7.96836 28.672 7.85934 28.7328 7.72657C28.7595 7.67416 28.808 7.63643 28.8675 7.63783C29.0261 7.64132 29.1834 7.59171 29.3208 7.47221C29.5116 7.31638 29.6189 7.05713 29.5827 6.80207C29.5211 6.33457 29.0268 6.06973 28.579 6.28915C28.4682 6.34296 28.3746 6.41773 28.3028 6.50368C28.2611 6.55399 28.1968 6.58893 28.1305 6.58754C27.9719 6.59243 27.7763 6.62877 27.5534 6.78599C27.1022 7.05433 26.7111 7.69443 26.733 8.10602C26.7084 8.06479 26.666 8.02426 26.601 7.99421C26.4636 7.92853 26.2749 7.9425 26.2277 8.03614C26.1778 8.12698 26.307 8.25696 26.4499 8.30238C26.4616 8.30448 26.4698 8.30657 26.4807 8.30867L26.441 8.37016C26.2674 8.66366 26.3706 8.9893 26.5894 9.05498C26.813 9.12207 27.0407 9.00257 27.1582 8.80901Z" fill="#ffffff"/>
<path d="M29.4724 16.0549L29.4669 15.9913C29.4779 15.9948 29.4867 15.9976 29.4984 16.0018C29.6474 16.0332 29.8135 16.0011 29.8286 15.9207C29.8436 15.8403 29.7014 15.7425 29.5524 15.7111C29.4826 15.6964 29.4252 15.6999 29.3814 15.7146C29.6399 15.4413 29.8081 14.8292 29.8204 14.4057C29.8272 14.1863 29.7944 14.0284 29.7267 13.9019C29.7014 13.8516 29.7042 13.7915 29.737 13.7454C29.8197 13.6189 29.8806 13.4868 29.8669 13.3198C29.8635 13.1102 29.737 12.8775 29.5476 12.7202C29.3644 12.5735 29.1476 12.5281 28.9364 12.6126C28.7408 12.6951 28.5501 12.9117 28.5008 13.1793C28.4687 13.3142 28.4721 13.4449 28.5056 13.5595C28.5227 13.628 28.5084 13.702 28.468 13.7586C28.3757 13.8949 28.3108 14.0927 28.3026 14.3547C28.2896 14.8802 28.4762 15.4183 28.7292 15.7146C28.6848 15.6999 28.6273 15.6964 28.5583 15.7111C28.4092 15.7425 28.2663 15.8403 28.2814 15.9207C28.2964 16.0011 28.4632 16.0332 28.6123 16.0018C28.6232 15.9983 28.6314 15.9955 28.6417 15.992L28.6369 16.0549C28.6369 16.3386 28.8235 16.5685 29.0546 16.5685C29.285 16.5685 29.4724 16.3386 29.4724 16.0549Z" fill="#ffffff"/>
<path d="M30.8304 19.6037L30.7791 19.5848C30.7867 19.5765 30.7928 19.5695 30.801 19.5604C30.8899 19.4346 30.9378 19.269 30.8919 19.2313C30.8482 19.1914 30.719 19.2774 30.6164 19.3941C30.5699 19.4486 30.5419 19.4996 30.5303 19.545C30.4373 19.1879 30.2554 18.7875 30.1029 18.4982C30.0168 18.3522 29.9293 18.2508 29.8199 18.1817C29.7741 18.1544 29.7577 18.1013 29.77 18.0517C29.8042 17.9175 29.8021 17.7813 29.7413 17.6373C29.6579 17.4549 29.4623 17.253 29.2189 17.1859C28.9912 17.1307 28.7772 17.1943 28.62 17.3305C28.4634 17.4738 28.3698 17.74 28.4162 18.0223C28.4429 18.1635 28.4914 18.2921 28.5708 18.3934C28.6166 18.4535 28.6302 18.5339 28.6241 18.6065C28.6036 18.784 28.6398 19.0202 28.7957 19.2879C29.0924 19.8413 29.7973 20.1949 30.1898 20.1131C30.1529 20.1439 30.1187 20.1907 30.0968 20.2606C30.0482 20.4066 30.0804 20.6002 30.1761 20.633C30.2725 20.6638 30.3785 20.5261 30.4113 20.3738C30.412 20.3612 30.4127 20.3528 30.414 20.3416L30.4749 20.3766C30.7655 20.5156 31.0608 20.4017 31.1217 20.1732C31.1825 19.9475 31.0424 19.7064 30.8304 19.6037Z" fill="#ffffff"/>
<path d="M41.4732 13.4372C41.4937 13.4372 41.5136 13.4337 41.5334 13.4316C41.5307 13.4428 41.5259 13.4511 41.5238 13.4637C41.4937 13.6161 41.5245 13.7859 41.6011 13.8012C41.6777 13.8166 41.7706 13.6713 41.8007 13.5189C41.8144 13.4476 41.811 13.3889 41.7973 13.3442C42.068 13.6056 42.6157 13.7866 43.0676 13.7866C43.2967 13.7866 43.4662 13.7383 43.592 13.658C43.6433 13.6251 43.7076 13.6196 43.7623 13.6461C43.9072 13.7188 44.0802 13.7425 44.2614 13.695C44.5068 13.6307 44.7031 13.4267 44.7598 13.1779C44.8658 12.7139 44.5178 12.3016 44.0734 12.3016C43.9626 12.3016 43.8573 12.3275 43.7636 12.3743C43.7089 12.4016 43.644 12.3967 43.592 12.3638C43.4669 12.2828 43.2967 12.2345 43.0676 12.2345C42.6157 12.2345 42.068 12.4155 41.7973 12.6776C41.811 12.6322 41.8144 12.5735 41.8007 12.5022C41.7706 12.3505 41.6777 12.2045 41.6011 12.2199C41.5245 12.2352 41.4937 12.4057 41.5238 12.5581C41.5259 12.5693 41.5307 12.5776 41.5334 12.5881C41.5136 12.586 41.4937 12.5832 41.4732 12.5832C41.2032 12.5832 40.9844 12.774 40.9844 13.0102C40.9844 13.2457 41.2032 13.4372 41.4732 13.4372Z" fill="#ffffff"/>
<path d="M34.2379 7.27701C34.2584 7.27701 34.2782 7.27352 34.298 7.27142C34.2953 7.2826 34.2905 7.29169 34.2885 7.30356C34.2584 7.4559 34.2892 7.62571 34.3657 7.64108C34.4423 7.65646 34.5353 7.51111 34.5654 7.35877C34.5797 7.28749 34.5763 7.22879 34.5619 7.18407C34.8327 7.44542 35.3803 7.62641 35.8323 7.62641C36.0613 7.62641 36.2309 7.57819 36.3567 7.49783C36.408 7.46499 36.4722 7.4594 36.5269 7.48595C36.6719 7.55862 36.8448 7.58238 37.026 7.53487C37.2715 7.47058 37.4677 7.26653 37.5244 7.01776C37.6304 6.55376 37.2824 6.14147 36.838 6.14147C36.7272 6.14147 36.622 6.16732 36.5283 6.21414C36.4736 6.2414 36.4086 6.2365 36.3567 6.20366C36.2316 6.1226 36.0613 6.07438 35.8323 6.07438C35.3803 6.07438 34.8327 6.25607 34.5619 6.51742C34.5763 6.472 34.5797 6.4133 34.5654 6.34202C34.5353 6.19038 34.4423 6.04434 34.3657 6.05971C34.2892 6.07508 34.2584 6.24559 34.2885 6.39793C34.2905 6.40911 34.2953 6.41749 34.298 6.42797C34.2782 6.42588 34.2584 6.42308 34.2379 6.42308C33.9678 6.42308 33.749 6.61385 33.749 6.85005C33.749 7.08554 33.9678 7.27701 34.2379 7.27701Z" fill="#ffffff"/>
<path d="M42.5463 7.1964C42.5668 7.19291 42.5852 7.18662 42.6051 7.18103C42.6037 7.19291 42.601 7.20199 42.6003 7.21457C42.5948 7.369 42.6522 7.53252 42.7302 7.53462C42.8081 7.53741 42.8765 7.37809 42.8826 7.22295C42.8847 7.15028 42.8724 7.09298 42.8512 7.05105C43.1595 7.26418 43.7291 7.35293 44.1749 7.27816C44.4005 7.24042 44.5611 7.16495 44.6719 7.06433C44.7177 7.0238 44.7799 7.00703 44.838 7.0252C44.9926 7.07271 45.1669 7.06712 45.3385 6.99095C45.5703 6.88683 45.7323 6.65274 45.7487 6.39768C45.7795 5.9225 45.3713 5.5731 44.9331 5.64647C44.823 5.66464 44.7239 5.70797 44.6384 5.76946C44.5885 5.8051 44.5242 5.81139 44.4682 5.78693C44.3314 5.72823 44.1557 5.70867 43.9294 5.7464C43.4836 5.82117 42.9715 6.09021 42.7459 6.39349C42.7527 6.34597 42.7466 6.28797 42.722 6.22018C42.668 6.07483 42.5531 5.94626 42.4799 5.97421C42.4068 6.00216 42.4034 6.17546 42.4574 6.32011C42.4615 6.33129 42.467 6.33898 42.4711 6.34876C42.4512 6.35016 42.4314 6.35016 42.4109 6.35365C42.1449 6.39838 41.959 6.62269 41.9959 6.85539C42.0335 7.08879 42.2796 7.24112 42.5463 7.1964Z" fill="#ffffff"/>
<path d="M37.109 13.4372C37.1295 13.4372 37.1493 13.4337 37.1691 13.4316C37.1664 13.4428 37.1616 13.4511 37.1596 13.4637C37.1295 13.6161 37.1602 13.7859 37.2368 13.8012C37.3134 13.8166 37.4064 13.6713 37.4365 13.5189C37.4501 13.4476 37.4467 13.3889 37.433 13.3442C37.7038 13.6056 38.2514 13.7866 38.7034 13.7866C38.9324 13.7866 39.102 13.7383 39.2278 13.658C39.279 13.6251 39.3433 13.6196 39.398 13.6461C39.543 13.7188 39.7159 13.7425 39.8971 13.695C40.1426 13.6307 40.3388 13.4267 40.3955 13.1779C40.5015 12.7139 40.1535 12.3016 39.7091 12.3016C39.5983 12.3016 39.4931 12.3275 39.3994 12.3743C39.3447 12.4016 39.2797 12.3967 39.2278 12.3638C39.1027 12.2828 38.9324 12.2345 38.7034 12.2345C38.2514 12.2345 37.7038 12.4155 37.433 12.6776C37.4467 12.6322 37.4501 12.5735 37.4365 12.5022C37.4064 12.3505 37.3134 12.2045 37.2368 12.2199C37.1602 12.2352 37.1295 12.4057 37.1596 12.5581C37.1616 12.5693 37.1664 12.5776 37.1691 12.5881C37.1493 12.586 37.1295 12.5832 37.109 12.5832C36.8389 12.5832 36.6201 12.774 36.6201 13.0102C36.6201 13.2457 36.8389 13.4372 37.109 13.4372Z" fill="#ffffff"/>
<path d="M32.8093 13.4754L32.8619 13.4643C32.8599 13.4754 32.8592 13.4845 32.8571 13.4971C32.8524 13.6501 32.9023 13.8164 32.9624 13.8248C33.0233 13.8353 33.0828 13.6781 33.1033 13.5271C33.1115 13.4559 33.1053 13.3979 33.0889 13.3531C33.3303 13.5991 33.8895 13.7885 34.3387 13.7864C34.5678 13.7864 34.738 13.7382 34.8638 13.6578C34.9151 13.625 34.9794 13.6194 35.0334 13.6459C35.179 13.7186 35.352 13.7424 35.5325 13.6949C35.7786 13.6306 35.9748 13.4265 36.0316 13.1777C36.1369 12.713 35.7889 12.3015 35.3451 12.3015C35.2337 12.3015 35.1291 12.3273 35.0354 12.3734C34.98 12.4007 34.9158 12.3965 34.8638 12.363C34.738 12.2826 34.5685 12.2344 34.3387 12.2344C33.8848 12.2372 33.3487 12.4084 33.0486 12.6872C33.0609 12.6418 33.0616 12.5831 33.0417 12.5132C33.0021 12.3595 32.8763 12.2295 32.7847 12.2539C32.6931 12.2798 32.6821 12.4524 32.7368 12.5991C32.7423 12.6103 32.7464 12.618 32.7512 12.6285L32.6842 12.6313C32.3717 12.6823 32.1851 12.9562 32.2726 13.1736C32.3608 13.3937 32.5871 13.5125 32.8093 13.4754Z" fill="#ffffff"/>
<path d="M31.4802 16.6402L31.4747 16.5787C31.4857 16.5822 31.4946 16.5843 31.5062 16.5885C31.6545 16.6192 31.8214 16.5878 31.8364 16.5095C31.8514 16.4313 31.7092 16.3362 31.5602 16.3055C31.4904 16.2908 31.433 16.2943 31.3893 16.309C31.647 16.0232 31.8118 15.4753 31.8576 15.0987C31.8774 14.9002 31.8576 14.7597 31.807 14.643C31.7865 14.5955 31.7926 14.541 31.8303 14.5082C31.9335 14.4236 31.9937 14.3286 32.0114 14.2105C32.0265 14.0505 31.9807 13.8282 31.8692 13.5969C31.7632 13.388 31.5882 13.242 31.353 13.2482C31.1295 13.2538 30.8491 13.432 30.7267 13.7143C30.6529 13.8548 30.6447 13.9946 30.6433 14.1231C30.6488 14.1979 30.6269 14.272 30.5791 14.3258C30.4635 14.4565 30.376 14.6584 30.3487 14.9254C30.2885 15.4683 30.4847 16.042 30.737 16.309C30.6926 16.2943 30.6351 16.2908 30.5661 16.3055C30.417 16.3362 30.2741 16.4313 30.2892 16.5095C30.3042 16.5878 30.471 16.6192 30.6201 16.5885C30.631 16.585 30.6392 16.5822 30.6495 16.5787L30.6447 16.6402C30.6379 16.9064 30.8464 17.1699 31.0754 17.1398C31.3058 17.1091 31.4747 16.926 31.4802 16.6402Z" fill="#ffffff"/>
<path d="M33.6746 19.4577L33.6213 19.4465C33.6274 19.4367 33.6322 19.4291 33.6391 19.4186C33.7067 19.2809 33.7279 19.109 33.6746 19.0762C33.6213 19.0447 33.5023 19.1572 33.4251 19.2872C33.3888 19.3487 33.371 19.4046 33.3676 19.4521C33.2152 19.1216 32.9034 18.7561 32.6388 18.5213C32.5014 18.4025 32.3776 18.3424 32.2518 18.3173C32.1978 18.3096 32.1595 18.2719 32.1561 18.2187C32.1356 18.0811 32.0864 17.9609 31.977 17.8617C31.8368 17.7289 31.5934 17.6534 31.3493 17.673C31.1176 17.696 30.9289 17.8134 30.8304 18.0203C30.7429 18.2173 30.7511 18.5032 30.9042 18.7393C30.9719 18.863 31.0799 18.9455 31.1811 19.0105C31.2413 19.0482 31.2864 19.1104 31.3056 19.1775C31.3452 19.3466 31.4587 19.5353 31.6727 19.7184C32.0953 20.0894 32.7769 20.2278 33.1372 20.0754C33.1071 20.1118 33.0832 20.1649 33.073 20.2376C33.0497 20.3948 33.1071 20.5688 33.2001 20.5814C33.2931 20.5946 33.3731 20.4416 33.3834 20.2858C33.3827 20.2739 33.3827 20.2648 33.382 20.2536L33.4442 20.2788C33.7368 20.3619 34.0062 20.2124 34.0363 19.9755C34.0664 19.7449 33.9023 19.5227 33.6746 19.4577Z" fill="#ffffff"/>
<path d="M33.3153 16.6336L33.3454 16.5875C33.3523 16.5972 33.357 16.6042 33.3646 16.6147C33.4637 16.73 33.6114 16.8153 33.6613 16.7768C33.7098 16.7384 33.6524 16.5833 33.5642 16.461C33.5218 16.4037 33.4781 16.3659 33.4364 16.345C33.7926 16.3254 34.2411 16.1668 34.5535 16.0047C34.7128 15.9194 34.814 15.8244 34.8838 15.7147C34.9111 15.6664 34.9596 15.6441 35.0096 15.6609C35.1422 15.6937 35.2694 15.6916 35.4006 15.6252C35.5736 15.5428 35.7336 15.3401 35.8074 15.1011C35.8731 14.874 35.8382 14.6511 35.6878 14.4799C35.5422 14.3234 35.2796 14.2234 35.0082 14.2793C34.8694 14.2975 34.7545 14.3688 34.6581 14.4401C34.6007 14.4827 34.5275 14.5023 34.4599 14.4953C34.2917 14.4694 34.0777 14.5058 33.8315 14.6392C33.3358 14.9006 32.955 15.4938 32.9571 15.8922C32.9352 15.8502 32.8962 15.8076 32.8347 15.7706C32.7007 15.6895 32.5216 15.6783 32.4751 15.7622C32.4279 15.8446 32.5366 15.9781 32.674 16.0466C32.685 16.0508 32.6932 16.0536 32.7034 16.0578L32.6576 16.1067C32.4723 16.3527 32.5065 16.6636 32.7103 16.7817C32.9078 16.8963 33.1711 16.8251 33.3153 16.6336Z" fill="#ffffff"/>
<path d="M43.7742 35.2586L43.8282 35.2544C43.8254 35.2655 43.8227 35.2739 43.8193 35.2858C43.7926 35.4375 43.82 35.6087 43.8801 35.6247C43.9403 35.6394 44.023 35.4962 44.0613 35.3501C44.0784 35.2802 44.0805 35.2215 44.0702 35.1754C44.3081 35.4479 44.7081 35.7079 45.0274 35.856C45.1922 35.9301 45.3275 35.9518 45.4547 35.9392C45.5087 35.9315 45.5566 35.956 45.5744 36.0063C45.6318 36.1328 45.7131 36.2334 45.8451 36.2963C46.0167 36.3836 46.271 36.385 46.4994 36.2949C46.7155 36.2061 46.8638 36.0384 46.9007 35.812C46.9295 35.5982 46.8426 35.3256 46.6307 35.144C46.5302 35.0447 46.4044 34.9972 46.2888 34.9644C46.2211 34.9455 46.1603 34.8987 46.1234 34.84C46.0386 34.6897 45.8772 34.5416 45.6215 34.4277C45.1129 34.195 44.4216 34.26 44.1181 34.5102C44.1365 34.4668 44.1454 34.4088 44.1345 34.3362C44.1133 34.1789 44.01 34.0287 43.917 34.0441C43.8241 34.0573 43.7899 34.2278 43.8234 34.3802C43.8275 34.3921 43.8302 34.3997 43.8336 34.4109L43.7673 34.4046C43.4638 34.4095 43.247 34.631 43.2833 34.8672C43.3188 35.0971 43.5376 35.2621 43.7742 35.2586Z" fill="#ffffff"/>
<path d="M40.9972 33.2242C41.0184 33.2242 41.0383 33.2207 41.0581 33.2186C41.0554 33.2298 41.0506 33.2389 41.0485 33.2507C41.0178 33.4031 41.0492 33.5729 41.1265 33.5883C41.2037 33.6036 41.2981 33.4583 41.3282 33.3059C41.3425 33.2347 41.3391 33.176 41.3247 33.1312C41.5989 33.3926 42.152 33.5736 42.6087 33.5736C42.8405 33.5736 43.0128 33.5254 43.1393 33.445C43.1913 33.4122 43.2562 33.4066 43.3109 33.4338C43.4579 33.5058 43.6329 33.5296 43.8155 33.482C44.0644 33.4178 44.2626 33.2137 44.3201 32.9649C44.4267 32.5009 44.0746 32.0886 43.6261 32.0886C43.514 32.0886 43.4073 32.1145 43.313 32.1613C43.2576 32.1886 43.1919 32.1837 43.14 32.1508C43.0128 32.0698 42.8405 32.0216 42.6087 32.0216C42.152 32.0216 41.5989 32.2032 41.3247 32.4646C41.3391 32.4192 41.3425 32.3605 41.3282 32.2899C41.2981 32.1376 41.2037 31.9922 41.1265 32.0069C41.0492 32.0223 41.0178 32.1928 41.0485 32.3451C41.0506 32.3563 41.0554 32.3647 41.0581 32.3751C41.0376 32.3731 41.0178 32.3703 40.9972 32.3703C40.7245 32.3703 40.5029 32.561 40.5029 32.7972C40.5029 33.0327 40.7245 33.2242 40.9972 33.2242Z" fill="#ffffff"/>
<path d="M36.5851 33.2242C36.6063 33.2242 36.6262 33.2207 36.646 33.2186C36.6433 33.2298 36.6385 33.2389 36.6364 33.2507C36.6057 33.4031 36.6371 33.5729 36.7144 33.5883C36.7916 33.6036 36.886 33.4583 36.9161 33.3059C36.9304 33.2347 36.927 33.176 36.9126 33.1312C37.1868 33.3926 37.7399 33.5736 38.1966 33.5736C38.4284 33.5736 38.6007 33.5254 38.7272 33.445C38.7792 33.4122 38.8441 33.4066 38.8988 33.4338C39.0458 33.5058 39.2208 33.5296 39.4034 33.482C39.6522 33.4178 39.8505 33.2137 39.908 32.9649C40.0146 32.5009 39.6632 32.0886 39.214 32.0886C39.1019 32.0886 38.9952 32.1145 38.9009 32.1613C38.8455 32.1886 38.7798 32.1837 38.7279 32.1508C38.6007 32.0698 38.4284 32.0216 38.1966 32.0216C37.7399 32.0216 37.1868 32.2032 36.9126 32.4646C36.927 32.4192 36.9304 32.3605 36.9161 32.2899C36.886 32.1376 36.7916 31.9922 36.7144 32.0069C36.6371 32.0223 36.6057 32.1928 36.6364 32.3451C36.6385 32.3563 36.6433 32.3647 36.646 32.3751C36.6255 32.3731 36.6057 32.3703 36.5851 32.3703C36.3123 32.3703 36.0908 32.561 36.0908 32.7972C36.0908 33.0327 36.3123 33.2242 36.5851 33.2242Z" fill="#ffffff"/>
<path d="M32.045 32.7015L32.1079 32.7322C32.0997 32.7399 32.0929 32.7462 32.0833 32.7546C31.9821 32.8692 31.9322 33.0411 32.0136 33.0991C32.0949 33.155 32.2611 33.0732 32.3499 32.9475C32.3923 32.8888 32.4108 32.8329 32.4135 32.7846C32.5803 33.1557 33.1841 33.524 33.7262 33.5561C34.0066 33.5778 34.2 33.5247 34.3163 33.445C34.3676 33.4122 34.4325 33.4066 34.4879 33.4338C34.6342 33.5058 34.8092 33.5296 34.9925 33.482C35.2406 33.4178 35.4396 33.2137 35.4964 32.9649C35.603 32.5009 35.2516 32.0886 34.8024 32.0886C34.6903 32.0886 34.5843 32.1145 34.4893 32.1613C34.4339 32.1886 34.3682 32.1837 34.3163 32.1508C34.1782 32.0698 34.0271 32.0237 33.8459 32.009C33.4719 31.9866 33.0022 32.0397 32.6713 32.1725C32.7007 32.1369 32.7253 32.0838 32.7417 32.0132C32.7759 31.8615 32.7704 31.698 32.7116 31.6882C32.6542 31.6764 32.5544 31.8098 32.5045 31.9573C32.5017 31.9692 32.4997 31.9775 32.4969 31.988L32.4545 31.9573C32.2556 31.8469 31.9978 31.8699 31.8433 32.0439C31.6867 32.2186 31.7647 32.5436 32.045 32.7015Z" fill="#ffffff"/>
<path d="M27.5255 38.2428L27.5782 38.2897C27.5679 38.2953 27.5604 38.2987 27.5488 38.3043C27.4209 38.3868 27.3286 38.5391 27.3915 38.6174C27.4551 38.6936 27.6363 38.6593 27.7553 38.5629C27.8113 38.5182 27.8435 38.4693 27.8592 38.4238C27.9228 38.8263 28.4089 39.3462 28.9224 39.5251C29.1869 39.6223 29.3873 39.6244 29.5199 39.5789C29.578 39.5615 29.6423 39.5733 29.6888 39.6146C29.8112 39.7243 29.9732 39.7949 30.1619 39.7991C30.4183 39.8047 30.6631 39.6621 30.7834 39.4378C31.007 39.0199 30.7759 38.5266 30.3431 38.4043C30.2351 38.3735 30.1257 38.37 30.0224 38.3889C29.9616 38.3994 29.9001 38.3777 29.8583 38.3316C29.7462 38.2156 29.6129 38.1303 29.442 38.0667C29.0871 37.9424 28.6202 37.8662 28.2674 37.9039C28.305 37.8774 28.3426 37.8334 28.3768 37.7698C28.4492 37.6328 28.4868 37.4742 28.4328 37.4476C28.3809 37.4211 28.2489 37.5224 28.1621 37.651C28.1566 37.6614 28.1525 37.6691 28.1477 37.6789L28.1149 37.637C27.9515 37.4763 27.6972 37.428 27.503 37.5545C27.3061 37.6796 27.2965 38.0143 27.5255 38.2428Z" fill="#ffffff"/>
<path d="M30.6598 28.2407L30.6591 28.3182C30.6489 28.3133 30.6407 28.3091 30.629 28.3036C30.4841 28.2532 30.3138 28.2805 30.292 28.3965C30.2715 28.5076 30.4184 28.581 30.5654 28.6187C30.6352 28.6334 30.6926 28.6299 30.7371 28.6152C30.4807 28.8954 30.3036 29.4608 30.3036 29.9276C30.3036 30.0464 30.3152 30.1491 30.3371 30.2392C30.3596 30.3329 30.3993 30.4426 30.4424 30.5152C30.48 30.5781 30.4861 30.6571 30.4718 30.7305C30.4321 30.9261 30.4533 31.1686 30.5846 31.3838C30.7617 31.6808 31.0755 31.7898 31.3093 31.6927C31.5274 31.6089 31.6635 31.4209 31.7414 31.2539C31.8269 31.0764 31.8624 30.9178 31.82 30.7696C31.7995 30.6934 31.7667 30.6222 31.7059 30.5593C31.6703 30.5222 31.6772 30.4663 31.7059 30.4244C31.7435 30.3671 31.7681 30.3252 31.7886 30.2392C31.8105 30.1491 31.8221 30.0464 31.8221 29.9276C31.8221 29.4608 31.645 28.8954 31.3893 28.6152C31.4331 28.6299 31.4905 28.6334 31.5602 28.6187C31.71 28.595 31.8488 28.4755 31.8392 28.4286C31.8289 28.3874 31.6635 28.3511 31.5137 28.3623C31.5021 28.3644 31.4939 28.3664 31.483 28.3678C31.4864 28.3525 31.4905 28.3371 31.4919 28.321C31.5062 28.1198 31.3989 27.8822 31.1883 27.7913C30.9743 27.6984 30.6926 27.8843 30.6598 28.2407Z" fill="#ffffff"/>
<path d="M34.2463 25.2579L34.1827 25.2746C34.1847 25.2627 34.1861 25.2544 34.1882 25.2411C34.1964 25.0853 34.1362 24.9231 34.0473 24.9238C33.9584 24.9245 33.8819 25.086 33.8812 25.2411C33.8812 25.3145 33.8969 25.3704 33.9208 25.4109C33.5913 25.218 32.9233 25.2138 32.4406 25.4661C32.1972 25.5898 32.0461 25.7407 31.9675 25.8931C31.9353 25.9546 31.8752 25.9972 31.8095 26.0181C31.6304 26.065 31.4465 26.1817 31.3214 26.378C31.1491 26.6443 31.1621 26.9671 31.3323 27.16C31.6598 27.4982 32.1343 27.48 32.388 27.2648C32.4543 27.2047 32.5097 27.1341 32.5432 27.0461C32.5616 26.993 32.6143 26.9685 32.6683 26.9713C32.7996 26.9762 32.9418 26.9447 33.1141 26.8574C33.447 26.682 33.8525 26.3787 34.0569 26.0629C34.0528 26.1104 34.0624 26.1684 34.0897 26.2348C34.1485 26.378 34.2579 26.5066 34.3208 26.48C34.3844 26.4535 34.3858 26.2802 34.3338 26.1348C34.329 26.1244 34.3249 26.1167 34.3201 26.1062L34.3769 26.1013C34.625 26.0594 34.8185 25.8588 34.8021 25.6198C34.7871 25.3878 34.5368 25.2096 34.2463 25.2579Z" fill="#ffffff"/>
<path d="M14.4288 13.0128C14.5116 12.9897 14.6025 13.0204 14.6586 13.0868C15.4236 14.0672 15.7751 14.5997 16.1853 15.0064C16.5723 15.4033 16.9415 15.6703 17.055 15.6437C17.1411 15.6269 17.4255 15.193 17.245 14.4397C17.1609 14.0679 16.9264 13.6389 16.5224 13.2797C16.121 12.9212 15.5364 12.6529 14.8664 12.634C14.7714 12.6333 14.6825 12.583 14.6333 12.5012C14.2593 11.9059 13.6863 11.4558 13.886 12.5355C13.2713 13.4167 13.8265 13.1972 14.4288 13.0128Z" fill="#ffffff"/>
<path d="M9.59431 13.2136C9.62576 13.1339 9.69824 13.0696 9.78712 13.0724C10.3977 13.0675 10.8592 13.0913 11.268 13.0731C11.6735 13.0627 12.016 13.0019 12.3073 12.9271C12.8829 12.7699 13.2603 12.5127 13.2795 12.403C13.2986 12.3045 13.0142 11.8943 12.3319 11.7049C11.9941 11.6071 11.56 11.5798 11.0629 11.693C10.572 11.8083 10.0052 12.099 9.5656 12.6266C9.50201 12.6965 9.41381 12.7482 9.31878 12.7384C8.97487 12.7042 8.60157 12.7678 8.46141 12.8977C8.31373 13.0298 8.41765 13.1633 8.90582 13.3841C9.087 13.8942 9.24836 13.9739 9.3304 13.8886C9.4145 13.7971 9.47945 13.5127 9.59431 13.2136Z" fill="#ffffff"/>
<path d="M8.33795 17.5662C8.2648 17.5263 8.22241 17.4411 8.22924 17.3558C8.30719 16.7528 8.42478 16.2944 8.48427 15.8968C8.54307 15.5068 8.57178 15.1966 8.58614 14.9198C8.60665 14.3762 8.57246 13.9192 8.48085 13.8444C8.41863 13.785 7.89628 13.8388 7.46349 14.4985C7.03754 15.1295 6.86525 16.4174 7.76774 17.5236C7.83543 17.5955 7.86483 17.6962 7.845 17.7933C7.78278 18.1406 7.81697 18.5333 7.9291 18.6905C8.04875 18.8499 8.18754 18.7541 8.43914 18.2776C8.95534 18.1308 9.04491 17.9736 8.9656 17.8855C8.88697 17.7884 8.62169 17.708 8.33795 17.5662Z" fill="#ffffff"/>
<path d="M12.4546 20.222C12.3698 20.2527 12.2734 20.231 12.2064 20.1696C11.241 19.303 10.5149 18.9704 9.94198 18.809C9.38202 18.656 8.93419 18.6671 8.85557 18.7461C8.78378 18.8132 8.81044 19.3261 9.31912 19.853C9.81276 20.3736 10.7802 20.8187 12.0574 20.6461C12.1476 20.6349 12.2379 20.6741 12.2905 20.7482C12.6727 21.2953 13.1233 21.7782 13.0221 20.695C13.7181 19.8684 13.0768 19.999 12.4546 20.222Z" fill="#ffffff"/>
<path d="M17.4108 22.0817C17.3226 22.0915 17.2283 22.0586 17.1695 21.9866C16.3374 20.9419 15.3549 20.6296 14.7143 20.5967C14.0648 20.566 13.6464 20.7805 13.6142 20.8853C13.5828 20.9846 13.8057 21.4059 14.3554 21.763C14.9078 22.1299 15.6934 22.3857 16.9487 22.4332C17.0389 22.4353 17.123 22.4842 17.1579 22.5701C17.4225 23.1788 17.7124 23.7329 17.8785 22.6673C18.7605 22.039 18.0713 21.9901 17.4108 22.0817Z" fill="#ffffff"/>
<path d="M21.3912 25.6918C21.3092 25.6548 21.2401 25.5786 21.2244 25.4857C20.9755 24.1384 20.1585 23.4012 19.5561 23.1132C18.9258 22.826 18.4636 22.9141 18.4007 23.0105C18.3487 23.0923 18.4465 23.5598 18.8068 24.0664C19.1623 24.6017 19.7503 25.123 20.8176 25.7638C20.8928 25.8106 20.9448 25.8938 20.9331 25.9846C20.8894 26.3193 20.8634 26.624 20.9215 26.7561C20.9728 26.8881 21.1437 26.8595 21.4965 26.4444C22.0236 26.4179 22.1617 26.3172 22.0838 26.1579C22.0031 26.0035 21.692 25.8267 21.3912 25.6918Z" fill="#ffffff"/>
<path d="M22.4106 31.0192C22.371 30.9346 22.3805 30.8326 22.4325 30.7522C23.1217 29.5762 22.9672 28.4211 22.628 27.8089C22.2958 27.1702 21.8431 26.9808 21.7543 27.0207C21.651 27.0633 21.4924 27.5015 21.4678 28.1087C21.4493 28.7341 21.5608 29.4804 21.9478 30.6845C21.9703 30.7697 21.9437 30.8648 21.878 30.9248C21.4233 31.363 20.9331 31.7466 21.9997 31.6516C22.799 32.3658 22.7265 31.653 22.4106 31.0192Z" fill="#ffffff"/>
<path d="M19.685 35.6793C19.7068 35.5878 19.7773 35.5151 19.8661 35.4871C21.1392 35.0721 21.7627 34.1203 21.9385 33.4446C22.0916 32.7332 21.922 32.2971 21.812 32.2573C21.7258 32.2252 21.2814 32.4201 20.8862 32.8625C20.4411 33.2992 20.0343 33.9442 19.5428 35.1119C19.5065 35.1936 19.4272 35.2503 19.3397 35.2544C18.7107 35.2859 18.0796 35.2873 18.9719 35.8896C19.1626 36.9581 19.525 36.3634 19.685 35.6793Z" fill="#ffffff"/>
<path d="M14.853 37.9458C14.9145 37.8773 15.0102 37.8494 15.1005 37.8703C16.3934 38.1289 17.3663 37.7166 17.8784 37.2673C18.4007 36.8068 18.5122 36.3295 18.4582 36.2435C18.4 36.1492 17.9488 36.0549 17.3485 36.1709C16.7318 36.2848 15.9886 36.5943 14.9952 37.3819C14.9241 37.4343 14.827 37.4441 14.7477 37.4042C14.172 37.1233 13.6004 36.8452 14.1296 37.7956C13.8281 38.8361 14.399 38.4643 14.853 37.9458Z" fill="#ffffff"/>
<path d="M9.53911 37.864C9.62389 37.8263 9.72303 37.8382 9.79755 37.8934C10.3254 38.3064 10.8696 38.4811 11.3427 38.5838C11.82 38.6418 12.2343 38.6369 12.5611 38.5328C13.2188 38.3434 13.5251 37.9835 13.5135 37.8668C13.5039 37.7711 13.1402 37.4657 12.5399 37.3106C11.9287 37.1408 11.1164 37.1247 9.90079 37.4049C9.81464 37.4252 9.72166 37.3951 9.6656 37.3266C9.26426 36.813 8.8684 36.3267 8.94702 37.407C8.23118 38.2225 8.91694 38.1275 9.53911 37.864Z" fill="#ffffff"/>
<path d="M4.88072 35.2434C4.97234 35.2574 5.04959 35.3224 5.08446 35.4104C5.61023 36.6605 6.54896 37.2273 7.21011 37.3621C7.88561 37.5117 8.3266 37.3006 8.35942 37.207C8.39839 37.1008 8.19054 36.6857 7.73998 36.2657C7.27506 35.8381 6.60571 35.4349 5.42153 35.0477C5.33812 35.0177 5.2759 34.9422 5.26428 34.8542C5.17813 34.2148 5.12412 33.5782 4.61271 34.5355C3.58441 34.8206 4.2018 35.1414 4.88072 35.2434Z" fill="#ffffff"/>
<path d="M2.41563 30.4278C2.48332 30.4914 2.51203 30.5892 2.49289 30.6822C2.24539 32.0127 2.69869 33.0273 3.18207 33.5186C3.66408 34.0315 4.14814 34.1007 4.22472 34.0406C4.31497 33.9728 4.36214 33.5102 4.21925 32.9085C4.06405 32.2957 3.74339 31.5752 2.9708 30.5732C2.91816 30.5012 2.90722 30.402 2.94619 30.3216C3.21488 29.7416 3.51982 29.1679 2.57425 29.6878C1.56715 29.3552 1.89943 29.9589 2.41563 30.4278Z" fill="#ffffff"/>
<path d="M17.3455 12.4386C17.4371 12.44 17.5034 12.5091 17.5342 12.5923C17.9348 13.7754 18.222 14.4455 18.6035 14.9361C18.9597 15.4175 19.3378 15.6754 19.4424 15.6502C19.5402 15.6272 19.802 15.2107 19.7193 14.4951C19.7104 14.3134 19.6468 14.1269 19.5737 13.9228C19.4998 13.7195 19.4014 13.5035 19.2434 13.3009C19.0957 13.0933 18.9207 12.8823 18.6821 12.7055C18.4613 12.5154 18.1864 12.3582 17.8787 12.2373C17.7912 12.2038 17.7338 12.1178 17.7106 12.0312C17.567 11.3505 17.2142 10.723 17.0057 11.7957C16.1155 12.3855 16.7123 12.398 17.3455 12.4386Z" fill="#ffffff"/>
<path d="M12.775 10.5433C12.8481 10.4951 12.9439 10.4944 13.0197 10.5399C14.0788 11.1988 14.7974 11.4741 15.4031 11.5531C15.9966 11.6272 16.4308 11.5503 16.4957 11.4441C16.5436 11.3714 16.4417 10.8683 15.8879 10.4357C15.3567 10.0039 14.329 9.62653 13.0697 10.0423C12.9821 10.0724 12.8844 10.0542 12.8153 9.992C12.3025 9.54267 11.6599 9.25477 12.1193 10.2415C11.7487 11.2582 12.2431 10.9039 12.775 10.5433Z" fill="#ffffff"/>
<path d="M8.03297 11.8495C8.05622 11.7643 8.12253 11.6923 8.21278 11.6853C9.42773 11.5309 10.1443 11.3233 10.6864 11.0229C11.2122 10.7377 11.513 10.3877 11.5041 10.2751C11.4973 10.1759 11.1281 9.85727 10.4294 9.82862C9.75796 9.79368 8.68249 10.1263 7.93999 11.2695C7.88666 11.3436 7.8053 11.4037 7.71299 11.4044C7.37456 11.4023 7.02382 11.468 6.89665 11.5945C6.76196 11.7168 6.8611 11.8544 7.35337 12.069C7.54412 12.5735 7.69932 12.6573 7.79094 12.5616C7.87982 12.4568 7.94477 12.1626 8.03297 11.8495Z" fill="#ffffff"/>
<path d="M6.11726 16.2396C6.0612 16.1732 6.04821 16.0761 6.08239 15.9936C6.57535 14.835 6.80781 14.2075 6.92404 13.6233C6.97463 13.3382 7.0095 13.0922 6.99514 12.8882C7.00198 12.6981 6.97258 12.5619 6.93156 12.5262C6.85498 12.457 6.3634 12.4913 5.86839 13.0482C5.75627 13.1908 5.62978 13.3571 5.5327 13.559C5.44997 13.7666 5.36109 13.9993 5.3187 14.2599C5.24486 14.7819 5.30024 15.4108 5.59355 16.0111C5.63388 16.0957 5.62841 16.1977 5.57782 16.2767C5.39664 16.5646 5.26878 16.8944 5.28109 17.0691C5.31254 17.2466 5.48005 17.2417 5.92172 16.9454C6.44476 17.0649 6.59996 16.9817 6.56509 16.849C6.54732 16.7071 6.3299 16.4856 6.11726 16.2396Z" fill="#ffffff"/>
<path d="M8.4666 20.4875C8.3784 20.4945 8.29225 20.4491 8.25465 20.3666C7.68033 19.2486 7.32549 18.6588 6.92757 18.2116C6.5406 17.7811 6.17071 17.526 6.05243 17.5596C5.97107 17.5792 5.70032 18.0138 5.848 18.7392C5.92047 19.0976 6.11054 19.5162 6.45445 19.9075C6.81408 20.2786 7.31592 20.6252 7.9627 20.7678C8.05022 20.7936 8.12884 20.8551 8.15961 20.9425C8.3866 21.6021 8.79683 22.166 8.88707 21.0808C9.71094 20.3925 9.09492 20.4477 8.4666 20.4875Z" fill="#ffffff"/>
<path d="M13.2034 22.4282C13.1186 22.4582 13.0229 22.4373 12.9559 22.3758C11.9844 21.4855 11.129 21.2549 10.526 21.192C9.91478 21.1319 9.48199 21.2745 9.43208 21.3744C9.38696 21.4653 9.54489 21.9293 10.0973 22.3339C10.6559 22.7448 11.5666 23.0103 12.8075 22.8524C12.8964 22.8412 12.9867 22.8796 13.0379 22.9544C13.4119 23.4988 13.8447 23.9753 13.7661 22.8992C14.4771 22.0788 13.8269 22.206 13.2034 22.4282Z" fill="#ffffff"/>
<path d="M17.966 24.7245C17.8744 24.7203 17.7944 24.6595 17.7486 24.5792C17.0854 23.3989 16.1309 22.9593 15.4862 22.8615C14.8018 22.742 14.393 22.995 14.3533 23.0893C14.3109 23.1913 14.5591 23.5911 15.0192 23.9873C15.5156 24.3989 16.2451 24.7371 17.4525 24.9775C17.5401 24.9942 17.605 25.0669 17.6248 25.1536C17.765 25.7846 17.8696 26.3813 18.2997 25.3995C19.3122 25.0215 18.6449 24.7601 17.966 24.7245Z" fill="#ffffff"/>
<path d="M20.2912 29.5368C20.2345 29.4627 20.2208 29.3621 20.2543 29.2734C20.7274 27.9862 20.2659 26.8576 19.7812 26.3566C19.2828 25.8262 18.7939 25.7913 18.7166 25.8604C18.6366 25.9282 18.6155 26.3957 18.746 26.9694C18.8698 27.5662 19.1727 28.2077 19.7661 29.3062C19.8065 29.3845 19.8017 29.483 19.7511 29.555C19.5767 29.8219 19.3634 30.0588 19.3566 30.1986C19.3443 30.3348 19.5063 30.4033 20.0061 30.2363C20.4827 30.492 20.6495 30.4823 20.6543 30.3006C20.6543 30.1231 20.5134 29.8037 20.2912 29.5368Z" fill="#ffffff"/>
<path d="M18.0421 34.369C18.0687 34.2774 18.1412 34.2069 18.2314 34.1824C18.8789 34.014 19.3684 33.6325 19.7021 33.2334C19.8532 33.021 19.9893 32.8163 20.0733 32.6101C20.1513 32.3998 20.2039 32.202 20.2361 32.0231C20.3174 31.2817 20.0364 30.8785 19.9284 30.8603C19.8785 30.8506 19.7582 30.9155 19.6194 31.0434C19.4703 31.1685 19.283 31.3481 19.1203 31.5829C18.7435 32.0518 18.4495 32.6702 17.9238 33.7932C17.8862 33.8728 17.8062 33.926 17.7207 33.9246C17.0876 33.8931 16.4996 33.854 17.3173 34.5283C17.4178 35.6261 17.8274 35.028 18.0421 34.369Z" fill="#ffffff"/>
<path d="M13.0042 36.0024C13.0747 35.9451 13.1724 35.9346 13.2579 35.9618C14.4886 36.414 15.5155 36.1589 16.0802 35.769C16.6593 35.3762 16.8234 34.9234 16.7728 34.8214C16.7297 34.7327 16.2901 34.5775 15.6926 34.6125C15.082 34.6488 14.3128 34.8354 13.2237 35.4629C13.1471 35.5111 13.05 35.5034 12.9776 35.4503C12.447 35.0758 11.9329 34.7306 12.3144 35.7445C11.8679 36.734 12.4887 36.4363 13.0042 36.0024Z" fill="#ffffff"/>
<path d="M7.85451 34.8049C7.94544 34.7965 8.03501 34.8412 8.0897 34.9188C8.91015 35.9928 9.97878 36.266 10.6454 36.2038C11.3353 36.1416 11.6928 35.8342 11.699 35.7203C11.7051 35.621 11.3941 35.2605 10.8519 34.9998C10.294 34.7224 9.55352 34.54 8.32558 34.4806C8.24012 34.4722 8.16286 34.4135 8.13141 34.3304C8.01108 34.0306 7.91057 33.7371 7.80528 33.6428C7.69862 33.5554 7.55778 33.6602 7.42993 34.1864C6.96774 34.4603 6.88911 34.612 7.03269 34.7133C7.17012 34.8188 7.51744 34.844 7.85451 34.8049Z" fill="#ffffff"/>
<path d="M4.75754 30.4546C4.82318 30.5189 4.84506 30.6174 4.83685 30.7096C4.61738 32.0716 5.26827 33.082 5.82139 33.4866C6.39638 33.915 6.88592 33.8689 6.95087 33.7913C7.02129 33.7089 6.9707 33.2498 6.73892 32.7019C6.51056 32.1254 6.10102 31.5447 5.31203 30.5908C5.24981 30.5238 5.24639 30.4245 5.28741 30.3449C5.57183 29.7739 5.8836 29.2464 4.92368 29.7166C3.92342 29.34 4.25228 29.9773 4.75754 30.4546Z" fill="#ffffff"/>
<path d="M20.1065 12.1306C20.1906 12.1558 20.2535 12.2298 20.2692 12.3172C20.4634 13.5666 20.6856 14.2976 21.0076 14.8293C21.3057 15.3513 21.6544 15.6511 21.7583 15.6406C21.8609 15.6302 22.1658 15.2465 22.1665 14.5254C22.1631 13.8329 21.8048 12.7518 20.6733 12.0349C20.5933 11.9866 20.5427 11.8993 20.5434 11.8057C20.5564 11.1027 20.3437 10.4374 19.9055 11.4255C18.8984 11.7931 19.5076 11.9433 20.1065 12.1306Z" fill="#ffffff"/>
<path d="M16.1412 9.03998C16.2246 9.01692 16.3163 9.04697 16.3751 9.11475C17.1955 10.0707 17.8423 10.5151 18.4002 10.7786C18.9574 11.0183 19.4052 11.0448 19.49 10.9596C19.5557 10.8974 19.5693 10.3949 19.1557 9.83101C18.7708 9.2587 17.8799 8.64166 16.5651 8.65354C16.4735 8.65494 16.386 8.60672 16.3381 8.52566C15.973 7.95545 15.4685 7.46419 15.5997 8.55711C14.9393 9.39427 15.5252 9.23844 16.1412 9.03998Z" fill="#ffffff"/>
<path d="M11.1596 8.48668C11.2211 8.42309 11.3148 8.40212 11.3989 8.42938C12.5831 8.84446 13.37 8.8773 13.9812 8.81232C14.5856 8.7082 14.9767 8.51183 15.0061 8.38954C15.0287 8.30569 14.788 7.84938 14.1481 7.6013C13.53 7.3127 12.4675 7.25889 11.3401 7.93323C11.2615 7.98145 11.1623 7.98494 11.0816 7.94022C10.4875 7.61109 9.81951 7.45945 10.4547 8.33574C10.281 9.40769 10.7152 8.95277 11.1596 8.48668Z" fill="#ffffff"/>
<path d="M14.1166 5.32618C14.1884 5.27587 14.2848 5.27238 14.362 5.3157C15.4491 5.94951 16.2169 6.13189 16.8288 6.185C17.4414 6.19828 17.8619 6.08018 17.9132 5.96558C17.9508 5.88732 17.7977 5.39397 17.2145 5.0278C16.66 4.62529 15.6262 4.36953 14.3955 4.81676C14.3087 4.8496 14.2109 4.83423 14.1405 4.77413C13.6168 4.33809 12.9885 4.06136 13.4513 5.04317C13.0849 6.06341 13.5949 5.69934 14.1166 5.32618Z" fill="#ffffff"/>
<path d="M6.56528 10.4963C6.58579 10.4111 6.65689 10.344 6.74236 10.3251C7.95593 10.0666 8.65742 9.73115 9.16062 9.35939C9.64469 8.98554 9.88672 8.59561 9.85595 8.48031C9.83339 8.39017 9.41428 8.13441 8.73194 8.21756C8.06259 8.27836 7.08284 8.74795 6.44221 9.92961C6.39845 10.0121 6.31436 10.0666 6.22137 10.0701C5.55613 10.1232 4.88062 10.3475 5.89114 10.7472C6.29931 11.7318 6.43947 11.1434 6.56528 10.4963Z" fill="#ffffff"/>
<path d="M4.03553 14.8015C3.9945 14.7225 4.00134 14.6247 4.05125 14.5527C4.80675 13.5618 5.20056 12.9217 5.37833 12.3214C5.55609 11.74 5.55199 11.2823 5.46789 11.2055C5.39747 11.1398 4.9052 11.1573 4.38627 11.638C3.88169 12.0936 3.31011 13.0992 3.57334 14.4458C3.59522 14.5394 3.56924 14.638 3.5036 14.7022C2.99424 15.183 2.68521 15.8161 3.67795 15.4367C4.64471 15.907 4.31516 15.3696 4.03553 14.8015Z" fill="#ffffff"/>
<path d="M1.17389 8.43793C1.16569 8.34849 1.20876 8.26114 1.28192 8.21432C2.35124 7.59519 2.95495 7.15914 3.34466 6.67487C3.72754 6.20738 3.89573 5.78251 3.84719 5.67909C3.80616 5.59104 3.34534 5.41355 2.68557 5.65463C2.04904 5.87685 1.14313 6.58123 0.880584 7.92851C0.865543 8.02285 0.804693 8.10391 0.719914 8.13815C0.0690253 8.38133 -0.45401 8.84533 0.605051 8.88446C1.32157 9.69786 1.21834 9.07244 1.17389 8.43793Z" fill="#ffffff"/>
<path d="M4.9682 19.6967C4.88616 19.6673 4.81915 19.5953 4.81505 19.5031C4.71113 18.246 4.55798 17.5255 4.30774 16.9588C4.06571 16.4102 3.75941 16.0671 3.64318 16.0664C3.55225 16.0643 3.19877 16.4102 3.12288 17.1279C3.034 17.819 3.31158 18.9636 4.39594 19.7616C4.46705 19.8189 4.52106 19.9042 4.51559 19.9985C4.47662 20.6994 4.66395 21.3842 5.13776 20.408C6.15238 20.0782 5.56098 19.907 4.9682 19.6967Z" fill="#ffffff"/>
<path d="M8.83484 22.9206C8.74937 22.9388 8.65913 22.9038 8.60306 22.8333C7.81543 21.8368 7.18164 21.3546 6.62031 21.0968C6.0713 20.841 5.62279 20.8068 5.53869 20.8843C5.46759 20.9493 5.44297 21.4475 5.84294 22.0261C6.23197 22.5929 7.08045 23.2372 8.38906 23.2826C8.47999 23.2861 8.56477 23.3392 8.60785 23.4216C8.93329 24.0114 9.37838 24.5439 9.34352 23.4447C10.0751 22.6704 9.46658 22.7641 8.83484 22.9206Z" fill="#ffffff"/>
<path d="M13.7224 24.6561C13.6376 24.6861 13.5426 24.6638 13.4763 24.6016C11.5844 22.8329 9.99072 23.4737 9.92098 23.6687C9.84714 23.8762 10.7913 25.3723 13.3258 25.0774C13.4147 25.067 13.505 25.1068 13.5562 25.1823C13.9316 25.7315 14.307 26.2193 14.2803 25.1424C15.0331 24.357 14.3432 24.4373 13.7224 24.6561Z" fill="#ffffff"/>
<path d="M17.8612 27.9547C17.7832 27.9002 17.7463 27.8045 17.7401 27.7101C17.7354 27.0155 17.4414 26.4097 17.092 26.0162C16.7426 25.6102 16.3447 25.4027 16.0124 25.293C15.3355 25.0854 14.8918 25.2818 14.8522 25.374C14.807 25.4754 14.9992 25.9016 15.3998 26.3433C15.5974 26.5704 15.8524 26.7912 16.1539 27.0309C16.4602 27.2713 16.8288 27.5117 17.2916 27.9093C17.3621 27.9631 17.3791 28.0595 17.3525 28.1413C17.2527 28.4439 17.1275 28.7115 17.1426 28.8471C17.159 28.9763 17.3327 29.0057 17.7812 28.7157C18.3001 28.8429 18.4608 28.7953 18.4238 28.6109C18.391 28.4327 18.1463 28.1525 17.8612 27.9547Z" fill="#ffffff"/>
<path d="M16.4365 33.0142C16.4734 32.9296 16.5493 32.8618 16.6396 32.8353C17.2973 32.6732 17.8156 32.2287 18.0993 31.75C18.3837 31.2637 18.4487 30.7745 18.4159 30.4021C18.3338 29.6446 17.9537 29.335 17.8559 29.3399C17.7492 29.3434 17.4628 29.7214 17.231 30.233C16.9582 30.7647 16.8659 31.3364 16.3442 32.4363C16.308 32.5173 16.2266 32.5662 16.1384 32.553C15.826 32.5257 15.5361 32.4649 15.413 32.5201C15.2941 32.5697 15.3098 32.7486 15.6961 33.119C15.7056 33.6654 15.7911 33.8122 15.9552 33.7297C16.1131 33.6466 16.3155 33.3433 16.4365 33.0142Z" fill="#ffffff"/>
<path d="M11.204 33.8592C11.2867 33.8173 11.3859 33.8257 11.4645 33.8774C12.6083 34.572 13.6708 34.4735 14.2964 34.1883C14.9384 33.8935 15.1579 33.4462 15.1223 33.3491C15.0861 33.2464 14.6779 33.0493 14.0892 32.9836C13.4862 32.9102 12.7006 32.9836 11.5329 33.3819C11.4494 33.4064 11.3565 33.3812 11.2983 33.3148C10.8765 32.8362 10.5223 32.3561 10.5914 33.4343C9.87145 34.2484 10.5893 34.1688 11.204 33.8592Z" fill="#ffffff"/>
<path d="M12.5936 41.8251C12.6729 41.7769 12.7727 41.7762 12.8547 41.8216C14.0492 42.4205 15.1007 42.2346 15.7017 41.8985C16.3191 41.5526 16.5016 41.0886 16.4592 40.995C16.4155 40.895 15.9923 40.7329 15.4002 40.7154C14.7937 40.6917 14.0163 40.8293 12.8834 41.3227C12.8028 41.3534 12.7084 41.336 12.6448 41.2752C12.1867 40.8321 11.7957 40.3828 11.9495 41.452C11.2959 42.3227 12.0056 42.1836 12.5936 41.8251Z" fill="#ffffff"/>
<path d="M7.22444 30.4303C7.30033 30.4842 7.34204 30.5771 7.33589 30.6728C7.30922 31.35 7.51023 31.9551 7.80559 32.3989C8.10984 32.8398 8.49135 33.1179 8.83184 33.2521C9.52238 33.5246 9.97704 33.3136 10.0126 33.2213C10.055 33.12 9.85876 32.7007 9.51691 32.2493C9.16617 31.7748 8.69373 31.3423 7.79192 30.4911C7.73107 30.4297 7.70782 30.3346 7.73586 30.2508C7.94849 29.6463 8.17001 29.0726 7.29145 29.6763C6.24264 29.4499 6.66722 30.0237 7.22444 30.4303Z" fill="#ffffff"/>
<path d="M11.5793 14.4782C11.634 14.4139 11.7256 14.4021 11.8022 14.4265C12.9091 14.85 13.3904 15.1686 13.8259 15.379C14.2464 15.5928 14.604 15.8262 14.7059 15.7927C14.7763 15.7829 15.0299 15.2993 14.6074 14.5956C14.3989 14.2644 14.0078 13.9234 13.4861 13.7822C12.9692 13.6313 12.3436 13.6739 11.7639 13.9709C11.6825 14.0163 11.5834 14.0121 11.5013 13.9793C11.2046 13.8318 10.8388 13.7822 10.659 13.8549C10.4723 13.9374 10.5332 14.0806 10.9058 14.4084C10.9113 14.9108 11.0398 15.0219 11.128 14.9737C11.2278 14.9269 11.368 14.6942 11.5793 14.4782Z" fill="#ffffff"/>
<path d="M11.1549 17.715C11.066 17.7373 10.9716 17.7017 10.9108 17.6325C10.7016 17.381 10.5327 17.1532 10.4596 16.9694C10.3843 16.7842 10.3837 16.6689 10.3727 16.5291C10.3597 16.2321 10.3577 15.8883 10.3597 15.6542C10.3502 15.1616 10.4493 14.6934 10.3748 14.6005C10.344 14.5627 10.2066 14.5313 9.98574 14.5956C9.76969 14.6599 9.46476 14.8499 9.23435 15.2399C9.00941 15.6403 8.8713 16.1574 9.0395 16.8324C9.12769 17.1748 9.37041 17.5508 9.68902 17.7632C10.0056 17.9826 10.3529 18.0616 10.7002 18.0839C10.7994 18.0874 10.893 18.1433 10.945 18.2244C11.3354 18.8261 11.84 19.325 11.7251 18.23C12.4491 17.4208 11.7962 17.5494 11.1549 17.715Z" fill="#ffffff"/>
<path d="M16.4173 19.4768C16.3257 19.502 16.2245 19.4747 16.1541 19.409C15.1429 18.4538 14.157 18.2197 13.4972 18.1673C12.819 18.1267 12.3821 18.3357 12.3493 18.4405C12.3185 18.539 12.5605 18.9667 13.1519 19.3377C13.7522 19.7291 14.6691 19.9618 15.988 19.8793C16.0823 19.873 16.176 19.917 16.2286 19.9946C16.6006 20.5781 17.019 21.0959 16.9937 20.0072C17.7902 19.2539 17.0839 19.3098 16.4173 19.4768Z" fill="#ffffff"/>
<path d="M24.1586 27.238C24.0902 27.1682 24.0601 27.064 24.0792 26.9662C24.3274 25.5546 23.7791 24.454 23.226 23.9817C22.9655 23.7168 22.7023 23.5791 22.4917 23.5204C22.2879 23.4569 22.1491 23.4603 22.1081 23.4967C22.0698 23.5302 22.0466 23.6721 22.065 23.8768C22.091 24.0774 22.1423 24.3492 22.2339 24.6651C22.4623 25.2877 22.826 26.0061 23.6 27.0682C23.6533 27.1451 23.6642 27.2492 23.6259 27.3324C23.5001 27.6343 23.3244 27.927 23.3299 28.0822C23.334 28.2345 23.5036 28.2757 23.9781 28.0158C24.4813 28.2066 24.6454 28.1646 24.6283 27.9781C24.6091 27.7957 24.4259 27.491 24.1586 27.238Z" fill="#ffffff"/>
<path d="M23.4947 34.1593C23.4755 34.0699 23.5063 33.9798 23.5719 33.9232C23.8058 33.7226 24.015 33.5116 24.1804 33.2942C24.3261 33.0692 24.4416 32.8435 24.5312 32.6269C24.7322 32.1985 24.7096 31.7799 24.6994 31.4578C24.6406 30.8002 24.285 30.4599 24.192 30.4571C24.0765 30.4508 23.777 30.7576 23.5172 31.2733C23.3675 31.5284 23.3176 31.8589 23.2185 32.2412C23.1802 32.4354 23.159 32.652 23.1576 32.898C23.1364 33.1363 23.1214 33.3984 23.133 33.703C23.1357 33.789 23.0906 33.8679 23.0161 33.9022C22.4288 34.1244 21.9133 34.3641 22.9306 34.5842C23.5432 35.4794 23.5877 34.7966 23.4947 34.1593Z" fill="#ffffff"/>
<path d="M20.1301 37.8571C20.156 37.7712 20.2265 37.7097 20.3119 37.6957C20.9314 37.6112 21.3997 37.3512 21.773 37.0892C22.134 36.8103 22.3603 36.477 22.5148 36.1975C22.7835 35.5923 22.7008 35.1367 22.6153 35.0759C22.5299 35.0144 22.082 35.0766 21.6137 35.3925C21.1037 35.6902 20.6066 36.2401 20.033 37.2848C19.9933 37.3596 19.9147 37.4043 19.8313 37.3966C19.2269 37.3372 18.6259 37.2778 19.4443 37.9661C19.5797 39.029 19.9345 38.4902 20.1301 37.8571Z" fill="#ffffff"/>
<path d="M5.95037 38.5364C6.03652 38.5203 6.12267 38.5559 6.17394 38.6272C6.91918 39.6516 7.84971 39.9346 8.46846 39.9423C9.10226 39.9465 9.47898 39.6593 9.49812 39.5594C9.52 39.4497 9.27387 39.0828 8.78639 38.7635C8.29138 38.4308 7.57144 38.2107 6.40094 38.1835C6.31752 38.1821 6.24232 38.1311 6.21086 38.0521C5.97567 37.4861 5.76099 36.9047 5.53673 37.9675C4.67731 38.5755 5.30632 38.6628 5.95037 38.5364Z" fill="#ffffff"/>
<path d="M0.880009 36.6857C0.962737 36.7123 1.02154 36.7843 1.03589 36.873C1.2875 38.1106 1.99718 38.8129 2.5756 39.0658C3.16085 39.3356 3.60116 39.2496 3.66679 39.1518C3.71876 39.0742 3.65654 38.613 3.34067 38.1253C3.01249 37.6326 2.49082 37.1043 1.43039 36.5767C1.35792 36.5362 1.31485 36.4551 1.32305 36.3685C1.3504 36.0512 1.36612 35.7528 1.29433 35.6361C1.23485 35.5139 1.0694 35.5635 0.746002 35.9932C0.229804 36.0806 0.101951 36.1931 0.183996 36.3301C0.274929 36.4579 0.57781 36.5907 0.880009 36.6857Z" fill="#ffffff"/>
<path d="M13.1955 26.5493C13.1053 26.5772 13.0027 26.5528 12.9295 26.4885C10.8593 24.659 9.15275 25.2621 9.08574 25.471C9.02216 25.6681 10.0614 27.197 12.7791 26.9643C12.8748 26.956 12.9726 26.9979 13.0294 27.0755C13.4567 27.6324 13.7903 28.1432 13.8033 27.0615C14.6443 26.3347 13.8532 26.3298 13.1955 26.5493Z" fill="#ffffff"/>
<path d="M9.80247 30.6871C9.88725 30.736 9.96656 30.8192 9.99186 30.924C10.2004 31.6654 10.8362 32.1818 11.388 32.3656C11.9514 32.5648 12.4429 32.5347 12.8128 32.4453C13.5697 32.258 13.8596 31.7996 13.8281 31.7046C13.7967 31.5984 13.3878 31.3866 12.7882 31.2231C12.484 31.1406 12.1325 31.0798 11.7483 31.0191C11.3613 30.9499 10.9415 30.9072 10.3802 30.6193C10.3057 30.5746 10.2482 30.4922 10.2633 30.3985C10.2934 30.0729 10.3891 29.7794 10.3481 29.648C10.318 29.5166 10.1395 29.5006 9.73205 29.8625C9.19944 29.7843 9.04493 29.8493 9.10646 30.0498C9.1762 30.2413 9.46335 30.525 9.80247 30.6871Z" fill="#ffffff"/>
<path d="M19.9455 8.69251C20.0282 8.68902 20.102 8.73723 20.1349 8.8134C20.3865 9.3375 20.5882 9.77355 20.8439 10.0677C21.0729 10.3871 21.3115 10.6128 21.5549 10.7637C22.0007 11.0929 22.443 11.1593 22.534 11.0978C22.6174 11.0419 22.7158 10.5981 22.4882 9.99786C22.3562 9.71625 22.1504 9.38991 21.8229 9.09502C21.4729 8.82598 21.0428 8.53947 20.4418 8.42347C20.3591 8.40531 20.2948 8.34102 20.2764 8.25507C20.1458 7.60798 19.8361 7.06502 19.6173 8.10203C18.7558 8.73793 19.3561 8.70369 19.9455 8.69251Z" fill="#ffffff"/>
<path d="M6.86229 7.56812C6.89374 7.48986 6.96758 7.44164 7.04894 7.44234C7.61778 7.42906 8.09638 7.43046 8.46421 7.31097C8.84777 7.2334 9.14928 7.09783 9.38585 6.93362C9.86581 6.64222 10.1003 6.25998 10.0798 6.14887C10.062 6.05034 9.69967 5.77711 9.07818 5.75195C8.77393 5.75754 8.40336 5.81904 8.00613 5.99583C7.62462 6.21316 7.1891 6.48359 6.83289 6.99301C6.78229 7.06219 6.6982 7.09574 6.61479 7.07687C5.98851 6.92733 5.36839 6.97484 6.19841 7.61913C6.39668 8.6813 6.62436 8.12366 6.86229 7.56812Z" fill="#ffffff"/>
<path d="M1.6193 14.8057C1.57691 14.7358 1.58238 14.6471 1.6316 14.58C1.81005 14.3424 1.93722 14.1223 2.05687 13.9203C2.18882 13.7212 2.28864 13.5339 2.3618 13.355C2.4917 12.9916 2.61887 12.6932 2.63186 12.4039C2.68998 11.8421 2.58811 11.4242 2.48487 11.3627C2.40829 11.3159 1.94064 11.4019 1.54272 11.8987C1.36222 12.1517 1.12771 12.478 1.06071 12.9315C1.01832 13.1544 0.993021 13.399 0.992337 13.6604C1.00464 13.9252 1.06618 14.2117 1.14822 14.5038C1.17215 14.587 1.14754 14.6757 1.08327 14.7358C0.635443 15.1858 0.307948 15.7484 1.30342 15.3955C2.26813 15.8106 1.96115 15.3179 1.6193 14.8057Z" fill="#ffffff"/>
</svg>
