<svg width="24" height="24" viewBox="0 0 24 24" fill="none" xmlns="http://www.w3.org/2000/svg">
<path d="M20.328 12.75H17.9994V20.625C17.9994 20.7244 17.9599 20.8198 17.8896 20.8902C17.8192 20.9605 17.7239 21 17.6244 21H14.6244C14.5249 21 14.4296 20.9605 14.3592 20.8902C14.2889 20.8198 14.2494 20.7244 14.2494 20.625V16.875C14.2494 16.7755 14.2099 16.6802 14.1396 16.6098C14.0692 16.5395 13.9739 16.5 13.8744 16.5H10.1244C10.0249 16.5 9.92956 16.5395 9.85923 16.6098C9.78891 16.6802 9.7494 16.7755 9.7494 16.875V20.625C9.7494 20.7244 9.70989 20.8198 9.63956 20.8902C9.56924 20.9605 9.47385 21 9.3744 21H6.3744C6.27494 21 6.17956 20.9605 6.10923 20.8902C6.03891 20.8198 5.9994 20.7244 5.9994 20.625V12.75H3.67078C3.55434 12.75 3.44051 12.7155 3.34369 12.6508C3.24687 12.5861 3.17141 12.4941 3.12685 12.3865C3.08229 12.279 3.07063 12.1606 3.09334 12.0464C3.11606 11.9322 3.17213 11.8273 3.25447 11.7449L11.6017 3.39766C11.7071 3.29217 11.8502 3.23291 11.9994 3.23291C12.1486 3.23291 12.2917 3.29217 12.3971 3.39766L20.7443 11.7449C20.8267 11.8273 20.8827 11.9322 20.9055 12.0464C20.9282 12.1606 20.9165 12.279 20.8719 12.3865C20.8274 12.4941 20.7519 12.5861 20.6551 12.6508C20.5583 12.7155 20.4445 12.75 20.328 12.75Z" fill="#ffffff"/>
</svg>
